<svg id="图层_2" data-name="图层 2" xmlns="http://www.w3.org/2000/svg" viewBox="0 0 1921.66 1079.96"><defs><style>.cls-1{fill:#18d4e8;}.cls-2{fill:#39bad8;}.cls-3{fill:#7ad8e2;}.cls-4{fill:#3ca4bc;}.cls-5{fill:#5be2e8;}.cls-6{fill:#daf1f2;}.cls-7{fill:#05b6d3;}.cls-8{fill:#06a7cc;}</style></defs><title>视频界面背景</title><rect class="cls-1" x="1.66" width="1920" height="1077.64"/><rect class="cls-2" y="732.82" width="1915.51" height="347.14"/><path class="cls-3" d="M1399.65,834.5c0,13.53-191.77,24.5-428.32,24.5S543,848,543,834.5,734.77,810,971.33,810,1399.65,821,1399.65,834.5Z" transform="translate(-1.5 -0.18)"/><rect class="cls-4" x="405.81" y="6.78" width="29.91" height="640.04"/><rect class="cls-5" x="374.91" y="6.78" width="29.91" height="640.04"/><rect class="cls-4" x="344" y="6.78" width="29.91" height="640.04"/><rect class="cls-5" x="313.1" y="6.78" width="29.91" height="640.04"/><rect class="cls-4" x="282.19" y="6.78" width="29.91" height="640.04"/><rect class="cls-5" x="251.29" y="6.78" width="29.91" height="640.04"/><rect class="cls-4" x="220.38" y="6.78" width="29.91" height="640.04"/><rect class="cls-5" x="189.48" y="6.78" width="29.91" height="640.04"/><rect class="cls-4" x="158.57" y="6.78" width="29.91" height="640.04"/><rect class="cls-4" x="1765" y="6.78" width="29.91" height="640.04"/><rect class="cls-5" x="1734.09" y="6.78" width="29.91" height="640.04"/><rect class="cls-4" x="1703.19" y="6.78" width="29.91" height="640.04"/><rect class="cls-5" x="1672.28" y="6.78" width="29.91" height="640.04"/><rect class="cls-4" x="1641.38" y="6.78" width="29.91" height="640.04"/><rect class="cls-5" x="1610.47" y="6.78" width="29.91" height="640.04"/><rect class="cls-4" x="1579.57" y="6.78" width="29.91" height="640.04"/><rect class="cls-5" x="1548.66" y="6.78" width="29.91" height="640.04"/><rect class="cls-4" x="1517.76" y="6.78" width="29.91" height="640.04"/><rect class="cls-6" x="468.47" y="167.44" width="1019.45" height="609.27"/><rect class="cls-7" x="427.11" y="152.58" width="1111.91" height="19.11"/><ellipse class="cls-8" cx="417.38" cy="163.9" rx="21.9" ry="19.11"/><ellipse class="cls-8" cx="1538.26" cy="163.9" rx="21.9" ry="19.11"/></svg>