<svg id="图层_1" data-name="图层 1" xmlns="http://www.w3.org/2000/svg" viewBox="0 0 338.74 385.23"><defs><style>.cls-1{fill:#ffd2a6;}.cls-2{fill:#ed5564;}.cls-3{fill:#656d78;}.cls-4{fill:#545c66;}.cls-5{fill:#556080;}.cls-6{fill:#424a60;}.cls-7{fill:#2a303d;}.cls-10,.cls-8{fill:#fff;}.cls-9{fill:#dd352e;}.cls-10{font-size:34.16px;font-family:DFPHaiBaoW12, DFPHaiBaoW12-GB;letter-spacing:0.2em;}</style></defs><title>1</title><path class="cls-1" d="M1071.24,457.12H1086v134h-14.73Z" transform="translate(-791.42 -347.93)"/><path class="cls-1" d="M835.6,457.13h14.73v134H835.6Z" transform="translate(-791.42 -347.93)"/><path class="cls-1" d="M835.6,602.72H1086v127.4H835.6Z" transform="translate(-791.42 -347.93)"/><path class="cls-2" d="M960.79,347.93,791.42,457.13h338.74Z" transform="translate(-791.42 -347.93)"/><path class="cls-2" d="M1104.38,605.76c0,1.67-1.66,3-3.69,3H820.88c-2,0-3.68-1.37-3.68-3V593.62c0-1.66,1.66-3,3.68-3h279.81c2,0,3.69,1.37,3.69,3Z" transform="translate(-791.42 -347.93)"/><path class="cls-3" d="M1100.8,733.16h-280c-2,0-3.68-1.36-3.68-3s1.65-3,3.68-3h280c2,0,3.68,1.36,3.68,3S1102.84,733.16,1100.8,733.16Z" transform="translate(-791.42 -347.93)"/><path class="cls-4" d="M1008.65,663.39h14.73v66.73h-14.73Z" transform="translate(-791.42 -347.93)"/><path class="cls-4" d="M898.19,663.39h14.73v66.73H898.19Z" transform="translate(-791.42 -347.93)"/><path class="cls-3" d="M924,678.48c0,1.67-1.66,3-3.68,3H890.83c-2,0-3.68-1.36-3.68-3v-6.07c0-1.67,1.66-3,3.68-3h29.46c2,0,3.68,1.37,3.68,3Z" transform="translate(-791.42 -347.93)"/><path class="cls-2" d="M946.06,672.5c0,1.67-1.66,3-3.68,3H868.74c-2,0-3.68-1.37-3.68-3V654.3c0-1.67,1.65-3,3.68-3h73.64c2,0,3.68,1.37,3.68,3Z" transform="translate(-791.42 -347.93)"/><path class="cls-3" d="M1034.43,678.48c0,1.67-1.66,3-3.69,3h-29.45c-2,0-3.68-1.36-3.68-3v-6.07c0-1.67,1.65-3,3.68-3h29.45c2,0,3.69,1.37,3.69,3Z" transform="translate(-791.42 -347.93)"/><path class="cls-2" d="M1056.52,672.5c0,1.67-1.66,3-3.68,3H979.2c-2,0-3.69-1.37-3.69-3V654.3c0-1.67,1.66-3,3.69-3h73.64c2,0,3.68,1.37,3.68,3Z" transform="translate(-791.42 -347.93)"/><rect class="cls-5" x="59.16" y="109.2" width="220.67" height="132.9"/><rect class="cls-6" x="59.16" y="219.46" width="220.67" height="22.64"/><path class="cls-7" d="M1054.88,581.81H894.09c-3,0-5.36-1.12-5.36-2.51s2.39-2.51,5.36-2.51h160.79c3,0,5.36,1.12,5.36,2.51S1057.84,581.81,1054.88,581.81Z" transform="translate(-791.42 -347.93)"/><path class="cls-8" d="M866.24,583.08c-1,0-1.85-.49-1.85-1.09v-6.56c0-.61.83-1.09,1.85-1.09s1.85.48,1.85,1.09V582C868.09,582.59,867.27,583.08,866.24,583.08Z" transform="translate(-791.42 -347.93)"/><path class="cls-8" d="M873.64,583.08c-1,0-1.85-.49-1.85-1.09v-6.56c0-.61.83-1.09,1.85-1.09s1.85.48,1.85,1.09V582C875.49,582.59,874.67,583.08,873.64,583.08Z" transform="translate(-791.42 -347.93)"/><path class="cls-9" d="M911.53,576.79H890.31c-2.35,0-4.25,1.12-4.25,2.51s1.9,2.51,4.25,2.51h21.22Z" transform="translate(-791.42 -347.93)"/><path class="cls-8" d="M914.39,586.06c-1.58,0-2.86-.75-2.86-1.69V574.22c0-.93,1.28-1.69,2.86-1.69s2.86.76,2.86,1.69v10.15C917.25,585.31,916,586.06,914.39,586.06Z" transform="translate(-791.42 -347.93)"/><text class="cls-10" transform="translate(90.8 180.35)">点击观看</text></svg>