<svg id="图层_1" data-name="图层 1" xmlns="http://www.w3.org/2000/svg" xmlns:xlink="http://www.w3.org/1999/xlink" viewBox="0 0 286.46 471.88"><defs><style>.cls-1{fill:#cdd6df;}.cls-2{fill:#fed066;}.cls-3{fill:#fd715c;}.cls-4{fill:#f2f2f2;}.cls-5,.cls-7{fill:#33bca5;}.cls-6{font-size:32.87px;fill:#212121;font-family:MicrosoftYaHei-Bold, Microsoft YaHei;font-weight:700;letter-spacing:0.2em;}.cls-7{font-size:49.31px;font-family:DFPHaiBaoW12, DFPHaiBaoW12-GB;letter-spacing:0.2em;}.cls-8{fill:url(#未命名的渐变_24);}</style><linearGradient id="未命名的渐变_24" x1="998.68" y1="845.61" x2="998.68" y2="791.41" gradientUnits="userSpaceOnUse"><stop offset="0" stop-color="#fcdac8"/><stop offset="1" stop-color="#fcb282"/></linearGradient></defs><title>通关手册</title><path class="cls-1" d="M1004.67,812.13h-6.58a6,6,0,0,1-6-6v-355h18.49v355A6,6,0,0,1,1004.67,812.13Z" transform="translate(-857.91 -373.72)"/><path class="cls-2" d="M1058.65,568.21h-115A13.21,13.21,0,0,1,930.43,555V527.8h141.43V555A13.21,13.21,0,0,1,1058.65,568.21Z" transform="translate(-857.91 -373.72)"/><path class="cls-3" d="M1131.26,550.69H871a13.12,13.12,0,0,1-13.12-13.12V386.84A13.12,13.12,0,0,1,871,373.72h260.23a13.13,13.13,0,0,1,13.12,13.12V537.57A13.13,13.13,0,0,1,1131.26,550.69Z" transform="translate(-857.91 -373.72)"/><rect class="cls-4" x="18.47" y="18.47" width="249.52" height="140.02"/><rect class="cls-1" x="236.98" y="18.47" width="31.01" height="140.02"/><path class="cls-5" d="M952.82,450.26" transform="translate(-857.91 -373.72)"/><text class="cls-6" transform="translate(64.75 65.77)">点击领取</text><text class="cls-7" transform="translate(31.88 129.08)">通关手册</text><path class="cls-8" d="M922.66,844.71h152c-6.54,8.83-55.08-50.5-59.58-44.52s-3,19.17-16.43,9.15-10.9-25.87-25.34-13.25C963.73,804.48,928.3,849.65,922.66,844.71Z" transform="translate(-857.91 -373.72)"/></svg>