<?xml version="1.0" encoding="utf-8"?>
<!-- Generator: Adobe Illustrator 16.0.0, SVG Export Plug-In . SVG Version: 6.00 Build 0)  -->
<!DOCTYPE svg PUBLIC "-//W3C//DTD SVG 1.1//EN" "http://www.w3.org/Graphics/SVG/1.1/DTD/svg11.dtd">
<svg version="1.1" xmlns="http://www.w3.org/2000/svg" xmlns:xlink="http://www.w3.org/1999/xlink" x="0px" y="0px" width="2525px"
	 height="3366px" viewBox="0 0 2525 3366" enable-background="new 0 0 2525 3366" xml:space="preserve">
<g id="图层_7">
	<rect y="2484" fill="#FFFFFF" stroke="#000000" stroke-miterlimit="10" width="2525" height="1724"/>
</g>
<g id="图层_6">
	<path fill="none" stroke="#757575" stroke-width="7" stroke-miterlimit="10" stroke-dasharray="20,20" d="M964.125,2903.343
		h850.708c0,0,410.887,52.144,428.248,246.012c17.363,193.87-283.57,347.229-283.57,347.229H784.724
		c0,0-349.222-34.723-362.693,150.466c-13.47,185.188,299.035,326.974,299.035,326.974h1278.146"/>
	
		<image overflow="visible" width="371" height="310" xlink:href="../图标图片/第一关门.png"  transform="matrix(0.7106 0 0 0.7106 1207.9858 2789.21)">
	</image>
	
		<image overflow="visible" width="360" height="386" xlink:href="../图标图片/4.png"  transform="matrix(0.7115 0 0 0.7115 1656.4619 2766.0264)">
	</image>
	
		<image overflow="visible" width="358" height="274" xlink:href="../图标图片/1.png"  transform="matrix(0.9127 0 0 0.898 1835.8359 3254.7725)">
	</image>
	
		<image overflow="visible" width="316" height="379" xlink:href="../图标图片/2.png"  transform="matrix(0.7005 0 0 0.7005 1376.459 3284.709)">
	</image>
	
		<image overflow="visible" width="371" height="309" xlink:href="../图标图片/3.png"  transform="matrix(0.7207 0 0 0.7207 774.1938 3306.1025)">
	</image>
	
		<image overflow="visible" width="360" height="386" xlink:href="../图标图片/4.png"  transform="matrix(0.7824 0 0 0.7824 281.1943 3377.7949)">
	</image>
	
		<image overflow="visible" width="436" height="279" xlink:href="../图标图片/5.png"  transform="matrix(0.8923 0 0 0.8923 621.7026 3752.6963)">
	</image>
	
		<image overflow="visible" width="349" height="311" xlink:href="../图标图片/6.png"  transform="matrix(0.8935 0 0 0.8935 1246.248 3752.6963)">
	</image>
	
		<image overflow="visible" width="608" height="163" xlink:href="../图标图片/开头.png"  transform="matrix(0.9968 0 0 0.9968 329.437 2822.1055)">
	</image>
	
		<image overflow="visible" width="261" height="509" xlink:href="../图标图片/下一关.png"  transform="matrix(0.6637 0 0 0.6637 1825.9824 3708.249)">
	</image>
	<text transform="matrix(1 0 0 1 1219.7979 3105.9863)"><tspan x="0" y="0" font-family="'Jkaton'" font-size="60">第一关：</tspan><tspan x="-30" y="72" font-family="'Jkaton'" font-size="60">制作温度计</tspan></text>
	<text transform="matrix(1 0 0 1 1676.9824 3133.9863)" font-family="'Jkaton'" font-size="60">微课学习</text>
	<text transform="matrix(1 0 0 1 1879.2139 3584)" font-family="'Jkaton'" font-size="60">答题闯关</text>
	<text transform="matrix(1 0 0 1 1367.1387 3626.8281)" font-family="'Jkaton'" font-size="60">微课学习</text>
	<text transform="matrix(1 0 0 1 301.6069 3780.6963)" font-family="'Jkaton'" font-size="60">微课学习</text>
	<text transform="matrix(1 0 0 1 696.2139 4099.9268)" font-family="'Jkaton'" font-size="60">模拟操练</text>
	<text transform="matrix(1 0 0 1 1282.1641 4135.9268)" font-family="'Jkaton'" font-size="60">答题闯关</text>
	<text transform="matrix(1 0 0 1 2028.6777 3924.8652)" font-family="'Jkaton'" font-size="60">进入下一关</text>
	<text transform="matrix(1 0 0 1 815.4922 3597.8926)"><tspan x="0" y="0" font-family="'Jkaton'" font-size="60">第二关：</tspan><tspan x="-90" y="72" font-family="'Jkaton'" font-size="60">制作温度警报器</tspan></text>
</g>
<g id="图层_1">
	<rect y="6.222" fill="#F5BB1C" stroke="#000000" stroke-miterlimit="10" width="2525" height="1769.778"/>
	<rect y="-202" fill="#F49D16" stroke="#000000" stroke-miterlimit="10" width="2525" height="208.222"/>
	<line fill="#FFFFFF" stroke="#000000" stroke-miterlimit="10" x1="0" y1="2484" x2="2525" y2="2484"/>
	<line fill="none" stroke="#BEBDBD" stroke-width="10" stroke-miterlimit="10" x1="0" y1="2484" x2="2525" y2="2484"/>
	<rect y="1274.889" fill="#FFFFFF" stroke="#000000" stroke-miterlimit="10" width="2525" height="1209.111"/>
</g>
<g id="图层_2">
	
		<text transform="matrix(1 0 0 1 159.5552 2685.667)" fill="#413F3F" font-family="'MF-SuBai(Noncommercial)-Regular'" font-size="120">通关路线图</text>
	
		<text transform="matrix(1 0 0 1 441.1094 261.7788)" fill="#FFFFFF" font-family="'MF-SuBai(Noncommercial)-Regular'" font-size="150">制作《温度计》通关手册</text>
</g>
<g id="图层_4">
	
		<text transform="matrix(1 0 0 1 159.5552 1481.5547)" fill="#3A3736" font-family="'MF-SuBai(Noncommercial)-Regular'" font-size="120">通关所需道具</text>
	
		<image overflow="visible" width="629" height="503" xlink:href="../../旧版本2019-4-1/图片素材/主控板.png"  transform="matrix(1.2319 0 0 1.2319 359 1638.5557)">
	</image>
	<text transform="matrix(1 0 0 1 359 2397.1113)"><tspan x="0" y="0" font-family="'DFPHaiBaoW12'" font-size="100">micro:bit</tspan><tspan x="467.694" y="0" font-family="'Jkaton'" font-size="100">主控板</tspan></text>
	<g>
		<defs>
			<rect id="SVGID_1_" x="1377.663" y="1496.517" width="838.638" height="838.638"/>
		</defs>
		<clipPath id="SVGID_2_">
			<use xlink:href="#SVGID_1_"  overflow="visible"/>
		</clipPath>
		<path clip-path="url(#SVGID_2_)" fill="#2D2D2B" d="M1882.771,2137.3c-95.127,0-140.258-45.224-150.01-83.968
			c-8.965-35.618,8.304-70.021,45.055-89.769c31.438-16.888,77.24-23.383,125.727-30.247
			c63.756-9.021,136.016-19.258,147.685-55.783c10.12-31.71,8.104-56.43-6.173-75.594c-42.951-57.614-188.688-54.798-250.922-53.598
			c-8.697,0.17-16.271,0.311-22.404,0.311v-31.726c5.965,0,13.329-0.14,21.79-0.308c78.369-1.509,224.276-4.342,276.973,66.357
			c20.542,27.568,24.229,62.633,10.952,104.207c-17.717,55.492-96.889,66.712-173.451,77.548
			c-43.608,6.173-88.701,12.562-115.16,26.784c-23.666,12.713-34.625,32.924-29.3,54.075c7.513,29.86,47.293,59.984,119.239,59.984
			V2137.3z"/>
		<rect x="1564.882" y="1660.051" clip-path="url(#SVGID_2_)" fill="#2A2B2B" width="152.617" height="143.891"/>
		<rect x="1763.284" y="1701.703" clip-path="url(#SVGID_2_)" fill="#2A2B2B" width="26.162" height="58.692"/>
		<polyline clip-path="url(#SVGID_2_)" fill="#2A2B2B" points="1717.499,1660.051 1763.284,1701.703 1763.284,1760.396 
			1717.499,1803.941 		"/>
		<rect x="1434.076" y="1678.969" clip-path="url(#SVGID_2_)" fill="#B8B9A2" width="130.806" height="106.055"/>
		<rect x="1451.521" y="1698.963" clip-path="url(#SVGID_2_)" fill="#575857" width="14.171" height="22.951"/>
		<rect x="1451.521" y="1741.71" clip-path="url(#SVGID_2_)" fill="#575857" width="14.171" height="22.949"/>
		<rect x="1928.14" y="2072.08" clip-path="url(#SVGID_2_)" fill="#2A2B2B" width="105.871" height="99.837"/>
		<rect x="1878.229" y="2102.296" clip-path="url(#SVGID_2_)" fill="#2A2B2B" width="18.147" height="40.714"/>
		<polyline clip-path="url(#SVGID_2_)" fill="#2A2B2B" points="1928.14,2171.917 1896.377,2143.01 1896.377,2102.296 
			1928.14,2072.08 		"/>
		<rect x="2034.011" y="2085.209" clip-path="url(#SVGID_2_)" fill="#B8B9A2" width="90.746" height="73.563"/>
		<rect x="2102.822" y="2128.986" clip-path="url(#SVGID_2_)" fill="#575857" width="9.83" height="15.917"/>
		<rect x="2102.822" y="2099.342" clip-path="url(#SVGID_2_)" fill="#575857" width="9.83" height="15.915"/>
	</g>
	<text transform="matrix(1 0 0 1 1581.8174 2397.1113)" font-family="'Jkaton'" font-size="100">数据传输线</text>
</g>
<g id="图层_5">
	
		<text transform="matrix(1 0 0 1 159.5552 543.834)" fill="#3A3736" font-family="'MF-SuBai(Noncommercial)-Regular'" font-size="120">通关要求</text>
	<text transform="matrix(1 0 0 1 234 748.0557)"><tspan x="0" y="0" font-family="'Jkaton'" font-size="120">1. 理解</tspan><tspan x="345" y="0" font-family="'DFPHaiBaoW12'" font-size="120">micro:bit</tspan><tspan x="906.233" y="0" font-family="'Jkaton'" font-size="120">感知温度的原理</tspan></text>
	<text transform="matrix(1 0 0 1 234 946.3887)" font-family="'Jkaton'" font-size="120">2. 能使用“温度”变量来编写程序 </text>
	<text transform="matrix(1 0 0 1 234 1128.9443)" font-family="'Jkaton'" font-size="120">3. 能使用“条件语句”来编写程序</text>
</g>
<g id="图层_3">
	<g opacity="0.5">
		<g>
			<defs>
				<rect id="SVGID_3_" x="856.891" y="-128.786" width="235.922" height="86.556"/>
			</defs>
			<clipPath id="SVGID_4_">
				<use xlink:href="#SVGID_3_"  overflow="visible"/>
			</clipPath>
			<g clip-path="url(#SVGID_4_)">
				<defs>
					<rect id="SVGID_5_" x="856.891" y="-128.786" width="235.922" height="86.556"/>
				</defs>
				<clipPath id="SVGID_6_">
					<use xlink:href="#SVGID_5_"  overflow="visible"/>
				</clipPath>
				<g transform="matrix(1 0 0 1 1.104876e-006 -2.209174e-006)" clip-path="url(#SVGID_6_)">
					
						<image overflow="visible" width="308" height="113" xlink:href="2FB2104D.png"  transform="matrix(0.766 0 0 0.766 856.8906 -128.7861)">
					</image>
				</g>
			</g>
		</g>
	</g>
	<path fill="#FFFFFF" d="M921.931-60.339h-16.015v-23.104c0-3.091-0.846-4.638-2.538-4.638c-1.81,0-2.713,1.576-2.713,4.726v23.016
		h-15.928v-23.104c0-1.867-0.205-3.106-0.612-3.719c-0.409-0.613-1.081-0.919-2.013-0.919c-1.75,0-2.626,1.576-2.626,4.726v23.016
		h-16.015v-26.342c0-4.782,1.604-8.852,4.813-12.208c3.209-3.354,7.118-5.032,11.728-5.032c4.667,0,8.927,2.012,12.777,6.038
		c4.2-4.026,8.371-6.038,12.514-6.038c5.133,0,9.189,1.663,12.164,4.988c2.976,3.326,4.463,8.022,4.463,14.089V-60.339z"/>
	<path fill="#FFFFFF" d="M947.31-60.339h-16.016v-42.619h16.016V-60.339z M931.732-114.248c0-2.158,0.744-3.98,2.231-5.469
		c1.487-1.489,3.311-2.232,5.47-2.232c2.157,0,3.981,0.744,5.469,2.232c1.488,1.488,2.231,3.311,2.231,5.469
		c0,2.16-0.744,3.982-2.231,5.47c-1.487,1.488-3.312,2.232-5.469,2.232c-2.159,0-3.982-0.744-5.47-2.232
		C932.476-110.266,931.732-112.088,931.732-114.248"/>
	<path fill="#FFFFFF" d="M998.766-80.38c-0.467,6.186-2.844,11.232-7.132,15.14c-4.289,3.91-9.292,5.864-15.009,5.864
		c-6.069,0-11.275-2.188-15.621-6.563c-4.347-4.376-6.52-9.627-6.52-15.753c0-6.125,2.173-11.361,6.52-15.708
		c4.346-4.346,9.552-6.521,15.621-6.521c5.193,0,9.83,1.634,13.915,4.902c4.083,3.268,6.68,7.613,7.789,13.039l-16.452,0.526
		c-1.284-1.808-3.034-2.714-5.251-2.714c-1.75,0-3.253,0.643-4.507,1.925c-1.256,1.284-1.881,2.801-1.881,4.55
		c0,1.751,0.625,3.283,1.881,4.595c1.254,1.312,2.757,1.969,4.507,1.969c1.4,0,2.669-0.407,3.807-1.226
		c1.137-0.816,1.91-1.953,2.319-3.414L998.766-80.38z"/>
	<path fill="#FFFFFF" d="M1029.046-103.395v17.152c-1.168-0.7-2.247-1.05-3.239-1.05c-1.284,0-2.29,0.584-3.019,1.751
		c-0.731,1.167-1.094,2.83-1.094,4.987v20.216h-16.015v-23.278c0-6.242,1.647-11.187,4.944-14.833
		c3.295-3.645,7.746-5.47,13.346-5.47C1025.602-103.921,1027.295-103.746,1029.046-103.395"/>
	<path fill="#FFFFFF" d="M1031.32-81.605c0-6.066,2.201-11.302,6.607-15.708c4.404-4.404,9.64-6.607,15.709-6.607
		c6.067,0,11.302,2.203,15.708,6.607c4.403,4.406,6.607,9.642,6.607,15.708c0,6.069-2.188,11.29-6.563,15.665
		c-4.376,4.376-9.626,6.563-15.752,6.563s-11.377-2.188-15.752-6.563C1033.508-70.315,1031.32-75.536,1031.32-81.605
		 M1047.161-81.605c0,1.751,0.626,3.253,1.881,4.507c1.254,1.254,2.785,1.881,4.595,1.881c1.808,0,3.338-0.626,4.594-1.881
		c1.253-1.254,1.881-2.756,1.881-4.507c0-1.807-0.628-3.34-1.881-4.595c-1.256-1.253-2.787-1.881-4.594-1.881
		c-1.81,0-3.341,0.627-4.595,1.881C1047.787-84.945,1047.161-83.412,1047.161-81.605"/>
	<g opacity="0.5">
		<g>
			<defs>
				<rect id="SVGID_7_" x="1093.718" y="-128.44" width="63.577" height="91.152"/>
			</defs>
			<clipPath id="SVGID_8_">
				<use xlink:href="#SVGID_7_"  overflow="visible"/>
			</clipPath>
			<g clip-path="url(#SVGID_8_)">
				<defs>
					<rect id="SVGID_9_" x="1093.718" y="-128.44" width="63.576" height="91.152"/>
				</defs>
				<clipPath id="SVGID_10_">
					<use xlink:href="#SVGID_9_"  overflow="visible"/>
				</clipPath>
				<g transform="matrix(1 0 0 1 -1.853943e-005 3.588630e-006)" clip-path="url(#SVGID_10_)">
					
						<image overflow="visible" width="83" height="119" xlink:href="2FB2104F.png"  transform="matrix(0.766 0 0 0.766 1093.7183 -128.4399)">
					</image>
				</g>
			</g>
		</g>
	</g>
	<path fill="none" stroke="#FFFFFF" stroke-width="10" stroke-linecap="square" stroke-miterlimit="10" d="M1135.979-102.641
		c0-8.357-7.179-15.131-16.034-15.131c-8.855,0-16.034,6.774-16.034,15.131h0.06v29.121h-0.06c0,8.357,7.179,15.131,16.034,15.131
		c8.855,0,16.034-6.774,16.034-15.131h0.06v-29.419"/>
	<g opacity="0.5">
		<g>
			<defs>
				<rect id="SVGID_11_" x="1108.272" y="-113.886" width="32.938" height="32.937"/>
			</defs>
			<clipPath id="SVGID_12_">
				<use xlink:href="#SVGID_11_"  overflow="visible"/>
			</clipPath>
			<g clip-path="url(#SVGID_12_)">
				<defs>
					<rect id="SVGID_13_" x="1108.271" y="-113.886" width="32.938" height="32.937"/>
				</defs>
				<clipPath id="SVGID_14_">
					<use xlink:href="#SVGID_13_"  overflow="visible"/>
				</clipPath>
				<g transform="matrix(1 0 0 1 1.416298e-005 -1.385791e-006)" clip-path="url(#SVGID_14_)">
					
						<image overflow="visible" width="43" height="43" xlink:href="2FB2104C.png"  transform="matrix(0.766 0 0 0.766 1108.2715 -113.8862)">
					</image>
				</g>
			</g>
		</g>
	</g>
	<path fill="#FFFFFF" d="M1124.305-102.949c0,2.588-2.098,4.686-4.686,4.686c-2.587,0-4.685-2.098-4.685-4.686
		c0-2.587,2.098-4.686,4.685-4.686C1122.208-107.635,1124.305-105.537,1124.305-102.949"/>
	<g opacity="0.5">
		<g>
			<defs>
				<rect id="SVGID_15_" x="1109.038" y="-84.779" width="32.938" height="33.703"/>
			</defs>
			<clipPath id="SVGID_16_">
				<use xlink:href="#SVGID_15_"  overflow="visible"/>
			</clipPath>
			<g clip-path="url(#SVGID_16_)">
				<defs>
					<rect id="SVGID_17_" x="1109.038" y="-84.779" width="32.938" height="33.703"/>
				</defs>
				<clipPath id="SVGID_18_">
					<use xlink:href="#SVGID_17_"  overflow="visible"/>
				</clipPath>
				<g transform="matrix(1 0 0 1 5.196835e-005 3.533260e-007)" clip-path="url(#SVGID_18_)">
					
						<image overflow="visible" width="43" height="44" xlink:href="2FB2104B.png"  transform="matrix(0.766 0 0 0.766 1109.0376 -84.7788)">
					</image>
				</g>
			</g>
		</g>
	</g>
	<path fill="#FFFFFF" d="M1125.017-73.212c0,2.587-2.099,4.685-4.686,4.685s-4.685-2.098-4.685-4.685s2.098-4.686,4.685-4.686
		S1125.017-75.8,1125.017-73.212"/>
	<g opacity="0.5">
		<g>
			<defs>
				<rect id="SVGID_19_" x="1151.794" y="-130.092" width="136.344" height="94.982"/>
			</defs>
			<clipPath id="SVGID_20_">
				<use xlink:href="#SVGID_19_"  overflow="visible"/>
			</clipPath>
			<g clip-path="url(#SVGID_20_)">
				<defs>
					<rect id="SVGID_21_" x="1151.794" y="-130.092" width="136.344" height="94.982"/>
				</defs>
				<clipPath id="SVGID_22_">
					<use xlink:href="#SVGID_21_"  overflow="visible"/>
				</clipPath>
				<g transform="matrix(1 0 0 1 2.365596e-006 -4.557251e-006)" clip-path="url(#SVGID_22_)">
					
						<image overflow="visible" width="178" height="124" xlink:href="2FB21055.png"  transform="matrix(0.766 0 0 0.766 1151.7944 -130.0918)">
					</image>
				</g>
			</g>
		</g>
	</g>
	<path fill="#FFFFFF" d="M1176.885-120.097v40.058c0,6.46,2.331,9.689,6.994,9.689c1.997,0,3.679-0.681,5.044-2.047
		c1.363-1.364,2.048-3.013,2.048-4.944c0-1.999-0.616-3.646-1.848-4.945c-1.234-1.298-2.747-1.949-4.545-1.949
		c-1.666,0-3.296,0.567-4.895,1.699v-20.179c2.063-0.2,3.696-0.3,4.895-0.3c6.793,0,12.652,2.481,17.582,7.443
		c4.928,4.961,7.393,10.905,7.393,17.831c0,7.061-2.497,13.053-7.493,17.981c-4.994,4.93-11.122,7.393-18.38,7.393
		c-7.193,0-13.17-2.513-17.931-7.542c-4.763-5.028-7.143-11.539-7.143-19.531v-40.657H1176.885z"/>
	<path fill="#FFFFFF" d="M1235.823-53.466h-18.28v-48.65h18.28V-53.466z M1218.042-115.003c0-2.462,0.848-4.544,2.548-6.243
		c1.699-1.699,3.779-2.549,6.245-2.549c2.462,0,4.544,0.85,6.242,2.549c1.699,1.699,2.548,3.78,2.548,6.243
		c0,2.466-0.85,4.545-2.548,6.244c-1.698,1.699-3.78,2.548-6.242,2.548c-2.465,0-4.546-0.849-6.245-2.548
		C1218.89-110.458,1218.042-112.538,1218.042-115.003"/>
	<path fill="#FFFFFF" d="M1262.797-120.097v19.079h8.191v19.28h-8.191c0,3.864,0.6,6.529,1.798,7.993
		c1.199,1.465,3.429,2.196,6.692,2.196v19.181c-8.391,0-14.952-2.381-19.679-7.143c-4.73-4.761-7.094-11.503-7.094-20.229v-40.358
		H1262.797z"/>
	<g opacity="0.5">
		<g>
			<defs>
				<rect id="SVGID_23_" x="1309.909" y="-130.265" width="359.123" height="94.036"/>
			</defs>
			<clipPath id="SVGID_24_">
				<use xlink:href="#SVGID_23_"  overflow="visible"/>
			</clipPath>
			<g clip-path="url(#SVGID_24_)">
				<defs>
					<rect id="SVGID_25_" x="1309.909" y="-130.265" width="359.124" height="94.036"/>
				</defs>
				<clipPath id="SVGID_26_">
					<use xlink:href="#SVGID_25_"  overflow="visible"/>
				</clipPath>
				<g transform="matrix(1 0 0 1 1.920614e-005 2.732959e-007)" clip-path="url(#SVGID_26_)">
					
						<image overflow="visible" width="844" height="221" xlink:href="2FB21057.png"  transform="matrix(0.4255 0 0 0.4255 1309.9092 -130.2651)">
					</image>
				</g>
			</g>
		</g>
	</g>
	<path fill="#FFFFFF" d="M1320.305-69.465l12.02,4.154c-2.535,5.421-4.715,10.841-6.54,16.261l-12.108-4.154
		C1316.15-59.39,1318.36-64.81,1320.305-69.465 M1317.829-122.934c13.491,0,27.132,0.619,40.919,1.856
		c-0.296-1.708-0.473-3.151-0.529-4.33l12.46-1.326c0.354,2.181,0.884,4.538,1.591,7.07c1.355,0.177,2.651,0.324,3.89,0.441
		l6.628-6.893c4.477,2.534,8.277,5.775,11.4,9.721l-7.601,7.6c-1.002-1.06-2.092-2.09-3.27-3.093l-0.884,5.125
		c-2.121-0.235-4.214-0.442-6.274-0.619c0.824,2.358,1.679,4.626,2.563,6.805c1.296-1.414,2.532-2.769,3.712-4.065l8.572,8.219
		c-2.181,2.534-4.33,5.068-6.452,7.601c2.415,4.124,5.272,8.514,8.573,13.167l-9.104,4.772c4.537,3.418,8.365,7.572,11.49,12.461
		l-8.573,8.308c-3.595-4.419-7.866-8.896-12.814-13.434l5.921-6.451c-1.768-2.238-3.445-4.654-5.037-7.247
		c-1.591,1.944-3.152,3.86-4.684,5.745l-6.629-5.922c-0.119,1.297-0.414,2.298-0.884,3.005c-1.003,1.59-2.71,2.77-5.126,3.535
		c-2.416,0.884-6.04,1.356-10.87,1.414h-2.386c-1.475,0-2.771-0.058-3.889-0.177l10.074,2.298c-2.298,2.77-3.447,5.068-3.447,6.894
		c0,0.589,0.235,1.061,0.708,1.414c0.471,0.414,1.296,0.619,2.474,0.619c1.945,0,4.891-0.354,8.838-1.061
		c-1.65-1.237-3.328-2.503-5.037-3.801l7.247-7.6c5.891,3.182,10.84,7.218,14.847,12.108l-7.6,7.601
		c-1.591-1.533-3.3-3.093-5.125-4.685l1.325,7.07c-6.363,1.355-11.666,2.062-15.909,2.121c-5.243,0-9.102-0.796-11.576-2.386
		c-2.534-1.65-3.977-3.86-4.331-6.628c0-5.714,1.237-10.634,3.712-14.759c-1.649-0.471-2.916-1.149-3.8-2.033
		c-2.417-2.179-3.654-4.978-3.712-8.395c0-5.42,1.503-10.37,4.507-14.848l5.921,1.326c2.299-0.648,4.597-0.972,6.894-0.972
		c2.003,0,4.448,0.119,7.335,0.354c2.593,0.413,4.685,1.268,6.275,2.563c2.238,1.179,3.447,4.507,3.623,9.986
		c1.709-2.238,3.416-4.359,5.127-6.362c-2.711-6.421-5.127-13.081-7.248-19.974c-10.723-0.941-20.71-1.648-29.959-2.121
		c-2.004,13.139-3.152,26.838-3.446,41.096l-12.815-1.326c0.177-14.022,1.266-27.455,3.27-40.3
		c-1.002-0.058-1.975-0.088-2.916-0.088L1317.829-122.934z M1334.445-108.086c9.189,0.53,18.057,1.325,26.602,2.386l-0.707,9.279
		c-9.605-1.001-18.708-1.914-27.31-2.739L1334.445-108.086z M1345.492-85.638c-1.592,0.059-3.153,0.5-4.685,1.326
		c-0.118,0.589-0.177,1.179-0.177,1.768c0,1.236,0.412,2.12,1.238,2.65c1,0.53,2.65,0.795,4.948,0.795
		c2.356,0,3.888-0.234,4.596-0.707c0.589-0.294,0.913-1.09,0.973-2.387c-0.12-1.767-0.768-2.828-1.944-3.181
		C1348.791-85.55,1347.141-85.638,1345.492-85.638"/>
	<path fill="#FFFFFF" d="M1412.835-123.287l12.726,4.507c-0.825,1.827-1.59,3.623-2.297,5.391
		c6.245,0.413,12.313,0.914,18.206,1.502l-1.415,14.494c-1.944-0.177-3.831-0.323-5.655-0.442c-0.943,3.124-1.887,6.157-2.828,9.102
		c2.121-0.058,4.154-0.087,6.098-0.087l1.326,13.875c-3.948,0-7.777,0.119-11.489,0.353c-0.53,1.828-1.031,3.624-1.503,5.391
		c4.537,1.003,9.338,1.503,14.405,1.503l-1.413,13.787c-6.246,0-11.726-0.677-16.438-2.032c-0.707,2.886-1.413,5.744-2.121,8.571
		l-13.875-3.093c1.884-7.777,3.8-15.229,5.744-22.36c-2.356,0.413-4.596,0.855-6.717,1.327l-1.413-13.875
		c4.123-0.825,8.188-1.502,12.195-2.033c1.178-4.065,2.356-7.954,3.535-11.666c-0.708-0.058-1.385-0.117-2.032-0.176
		c-1.062,2.947-2.063,5.863-3.005,8.749l-12.815-4.507C1406.118-105.788,1409.712-115.214,1412.835-123.287 M1448.362-115.686
		l6.718,1.59c1.943-0.647,4.065-1.178,6.362-1.59c5.892,0,9.722,0.53,11.489,1.59c2.828,1.002,5.126,3.389,6.894,7.159
		c2.121,3.535,3.239,10.636,3.357,21.299c0,10.723-1.179,18.47-3.535,23.242c-3.653,7.013-9.25,10.518-16.791,10.518
		c-7.954,0-13.817-2.592-17.587-7.777c-3.478-5.303-5.215-13.05-5.215-23.243C1440.055-94.211,1442.824-105.139,1448.362-115.686
		 M1461.442-64.958c3.063,0,5.155-1.471,6.274-4.418c1.119-3.122,1.68-7.747,1.68-13.875c0-10.664-0.648-16.378-1.944-17.145
		c-0.884-1.119-1.975-1.737-3.271-1.856c-1.355-0.235-2.474-0.353-3.358-0.353c-1.532,0.412-2.886,0.914-4.064,1.501
		c-1.944,5.775-2.916,11.372-2.916,16.792c0,7.424,0.529,12.402,1.59,14.935C1456.551-66.43,1458.555-64.958,1461.442-64.958"/>
	<path fill="#FFFFFF" d="M1570.587-104.021l1.326,13.875h-5.568c0.059,1.062,0.09,2.092,0.09,3.094
		c0,5.951-1.769,10.693-5.303,14.228c-3.595,3.655-9.899,5.48-18.913,5.48h-4.154c-7.953,0-13.58-1.09-16.879-3.27
		c-3.89-2.709-5.833-6.922-5.833-12.638c0-1.885,0.088-3.769,0.266-5.656c-1.475,0.06-2.917,0.119-4.332,0.176
		c-0.295,4.242-0.441,8.484-0.441,12.727c0,5.422,1.118,9.074,3.358,10.959c2.179,2.121,6.363,3.182,12.55,3.182
		c7.895,0,16.644-1.149,26.248-3.447l3.094,14.847c-9.135,2.062-18.708,3.093-28.724,3.093h-4.596
		c-8.367,0-14.878-1.797-19.531-5.39c-5.303-4.3-7.953-11.371-7.953-21.211c0-4.595,0.146-9.249,0.441-13.962
		c-0.942,0.059-1.887,0.119-2.828,0.176l-1.414-13.787c1.886-0.118,3.74-0.235,5.567-0.354c0.647-5.066,1.443-10.252,2.387-15.555
		l15.555,3.447c-0.884,3.712-1.622,7.483-2.21,11.313c1.825-0.118,3.623-0.206,5.392-0.266c1.472-5.419,3.504-11.047,6.098-16.88
		l15.554,3.446c-2.416,4.361-4.33,8.662-5.744,12.904c5.008-0.177,10.016-0.294,15.024-0.354
		c-1.297-5.715-3.241-11.401-5.833-17.057l15.554-3.447c2.71,6.658,4.684,13.433,5.922,20.327H1570.587z M1531.083-89.527
		c-0.059,0.59-0.119,1.18-0.177,1.768c0,2.474,0.589,4.213,1.768,5.215c1.414,0.883,4.389,1.325,8.926,1.325
		c3.477,0,5.979-0.736,7.513-2.208c1.178-0.884,1.768-2.681,1.768-5.391v-1.149C1544.28-89.85,1537.681-89.703,1531.083-89.527"/>
	<path fill="#FFFFFF" d="M1587.821-121.608l7.07,1.679c9.897-2.474,19.736-3.712,29.518-3.712c8.542,0,14.406,0.59,17.587,1.768
		c5.891,1.533,10.193,4.478,12.903,8.837c2.946,3.536,4.419,10.106,4.419,19.709v2.475c0,5.892-1.738,10.9-5.214,15.023
		c-0.707,0.943-1.563,1.768-2.563,2.475c2.886,0.826,5.597,1.65,8.132,2.475l-3.801,12.461c-4.125-1.119-8.043-2.149-11.755-3.094
		c0.766,4.361,1.561,8.838,2.386,13.434l-14.141,1.414c-1.06-5.186-1.974-10.37-2.739-15.554l8.396-0.795
		c-3.889-0.942-7.512-1.826-10.87-2.651l0.529-1.768c-1.12,0.06-2.209,0.088-3.27,0.088h-10.075c-5.362,0-10.135-0.382-14.317-1.149
		l1.945,3.182c-0.354,0.236-0.649,0.413-0.885,0.53l5.392-1.59c0.766,5.068,2.269,10.371,4.507,15.908l-13.786,4.507
		c-1.768-4.418-3.093-8.954-3.978-13.609c-2.121,1.414-4.272,2.828-6.451,4.242l-7.247-11.4c2.944-2.122,5.861-4.036,8.749-5.745
		c-5.598-3.652-8.396-8.984-8.396-15.996C1579.867-98.011,1582.519-109.059,1587.821-121.608 M1623.791-110.207
		c-0.767,2.887-1.475,5.804-2.122,8.749c3.063,0.296,6.039,0.619,8.927,0.972l-1.325,12.372c-3.301-0.352-6.572-0.647-9.811-0.883
		c-0.354,2.004-0.648,4.037-0.884,6.099l-14.494-3.093c0.177-1.414,0.354-2.74,0.531-3.977c-3.301-0.178-6.571-0.294-9.811-0.354
		c0.471,3.418,2.15,5.775,5.037,7.07c3.417,1.591,10.458,2.387,21.122,2.387c5.304,0,9.869-0.324,13.698-0.973
		c3.006-0.411,5.421-1.62,7.249-3.623c1.471-1.178,2.326-3.564,2.562-7.158c0-7.955-1.738-13.08-5.214-15.377
		C1637.136-109.412,1631.979-110.148,1623.791-110.207 M1606.822-102.519c0.471-2.298,0.941-4.477,1.414-6.54
		c-3.712,0.59-7.335,1.414-10.871,2.475c-0.472,1.356-0.854,2.593-1.149,3.711C1599.752-102.813,1603.286-102.695,1606.822-102.519"
		/>
</g>
</svg>
