<svg id="图层_4" data-name="图层 4" xmlns="http://www.w3.org/2000/svg" viewBox="0 0 213.51 213.62"><defs><style>.cls-1{fill:#d9f9f6;}.cls-2{fill:#ff8f8e;}.cls-3{fill:#fec96b;}</style></defs><title>温度计btn</title><path class="cls-1" d="M683.93,429.08a21.73,21.73,0,0,1,21.67,21.68v98.45a45.33,45.33,0,1,1-43.35,0V450.76A21.74,21.74,0,0,1,683.93,429.08Z" transform="translate(-537.86 -424.91)"/><path class="cls-2" d="M683.93,613.66A24.64,24.64,0,1,0,659.3,589,24.68,24.68,0,0,0,683.93,613.66Z" transform="translate(-537.86 -424.91)"/><path class="cls-3" d="M594.61,524.78a27.17,27.17,0,1,0-27.17-27.17A27.22,27.22,0,0,0,594.61,524.78Z" transform="translate(-537.86 -424.91)"/><path d="M709.78,546.81v-96a25.85,25.85,0,0,0-51.7,0v96a49.63,49.63,0,0,0-20.3,24.3,4.17,4.17,0,1,0,7.78,3,41.28,41.28,0,0,1,18.69-21.25,4.18,4.18,0,0,0,2.17-3.67V450.76a17.51,17.51,0,1,1,35,0v98.45a4.18,4.18,0,0,0,2.18,3.67,41.16,41.16,0,1,1-58.05,51,4.17,4.17,0,0,0-7.78,3,49.5,49.5,0,1,0,72-60.14Z" transform="translate(-537.86 -424.91)"/><path d="M683.93,461.36a4.17,4.17,0,0,0-4.17,4.18v95a28.8,28.8,0,1,0,8.34,0v-95A4.18,4.18,0,0,0,683.93,461.36ZM704.39,589a20.46,20.46,0,1,1-20.46-20.46A20.49,20.49,0,0,1,704.39,589Z" transform="translate(-537.86 -424.91)"/><path d="M725.53,472.88H747.2a4.17,4.17,0,0,0,0-8.34H725.53a4.17,4.17,0,1,0,0,8.34Z" transform="translate(-537.86 -424.91)"/><path d="M747.2,483.81H725.53a4.17,4.17,0,1,0,0,8.34H747.2a4.17,4.17,0,0,0,0-8.34Z" transform="translate(-537.86 -424.91)"/><path d="M747.2,503.08H725.53a4.17,4.17,0,1,0,0,8.34H747.2a4.17,4.17,0,0,0,0-8.34Z" transform="translate(-537.86 -424.91)"/><path d="M747.2,522.35H725.53a4.17,4.17,0,1,0,0,8.34H747.2a4.17,4.17,0,1,0,0-8.34Z" transform="translate(-537.86 -424.91)"/><path d="M594.61,466.27a31.44,31.44,0,0,0-25.42,13,4.17,4.17,0,0,0,6.76,4.88,23,23,0,1,1,0,26.89,4.17,4.17,0,1,0-6.76,4.88,31.34,31.34,0,1,0,25.42-49.67Z" transform="translate(-537.86 -424.91)"/><path d="M594.61,459.09a4.18,4.18,0,0,0,4.18-4.18V445a4.18,4.18,0,0,0-8.35,0v9.87A4.18,4.18,0,0,0,594.61,459.09Z" transform="translate(-537.86 -424.91)"/><path d="M561.47,470.37a4.17,4.17,0,1,0,5.9-5.9l-7-7a4.17,4.17,0,0,0-5.9,5.9Z" transform="translate(-537.86 -424.91)"/><path d="M633.14,497.61a4.18,4.18,0,0,0,4.17,4.18h9.88a4.18,4.18,0,0,0,0-8.35h-9.88A4.17,4.17,0,0,0,633.14,497.61Z" transform="translate(-537.86 -424.91)"/><path d="M624.81,471.59a4.18,4.18,0,0,0,3-1.22l7-7a4.17,4.17,0,0,0-5.9-5.9l-7,7a4.17,4.17,0,0,0,2.95,7.12Z" transform="translate(-537.86 -424.91)"/><path d="M556.08,497.61a4.17,4.17,0,0,0-4.17-4.17H542a4.18,4.18,0,1,0,0,8.35h9.87A4.17,4.17,0,0,0,556.08,497.61Z" transform="translate(-537.86 -424.91)"/><path d="M594.61,536.14a4.18,4.18,0,0,0-4.17,4.18v9.87a4.18,4.18,0,0,0,8.35,0v-9.87A4.18,4.18,0,0,0,594.61,536.14Z" transform="translate(-537.86 -424.91)"/><path d="M634.74,531.84l-7-7a4.17,4.17,0,1,0-5.9,5.9l7,7a4.17,4.17,0,0,0,5.9-5.9Z" transform="translate(-537.86 -424.91)"/><path d="M561.47,524.86l-7,7a4.17,4.17,0,0,0,0,5.9,4.18,4.18,0,0,0,5.9,0l7-7a4.17,4.17,0,1,0-5.9-5.9Z" transform="translate(-537.86 -424.91)"/><path d="M642.78,589a4.18,4.18,0,1,0-4.18,4.17A4.18,4.18,0,0,0,642.78,589Z" transform="translate(-537.86 -424.91)"/><path d="M563.27,497.61a4.18,4.18,0,1,0,4.17-4.17A4.19,4.19,0,0,0,563.27,497.61Z" transform="translate(-537.86 -424.91)"/></svg>