<svg id="图层_1" data-name="图层 1" xmlns="http://www.w3.org/2000/svg" viewBox="0 0 315.41 377.49"><defs><style>.cls-1{fill:#556080;}.cls-2{fill:#424a60;}.cls-3{fill:#2a303d;}.cls-4,.cls-6{fill:#fff;}.cls-5{fill:#dd352e;}.cls-6{font-size:34.16px;font-family:DFPHaiBaoW12, DFPHaiBaoW12-GB;letter-spacing:0.2em;}.cls-7{fill:#57565c;}.cls-8{fill:#c6c5ca;}.cls-9{fill:#4fb363;}.cls-10{fill:#60d978;}.cls-11{fill:#898890;}.cls-12{fill:#545c66;}.cls-13{fill:#656d78;}</style></defs><title>3</title><rect class="cls-1" x="47.24" y="86.08" width="220.67" height="132.9"/><rect class="cls-2" x="47.24" y="196.34" width="220.67" height="22.64"/><path class="cls-3" d="M1054.67,562.55H893.88c-3,0-5.36-1.12-5.36-2.51s2.39-2.5,5.36-2.5h160.79c3,0,5.36,1.12,5.36,2.5S1057.63,562.55,1054.67,562.55Z" transform="translate(-803.13 -351.79)"/><path class="cls-4" d="M866,563.83c-1,0-1.85-.49-1.85-1.1v-6.56c0-.6.82-1.09,1.85-1.09s1.85.49,1.85,1.09v6.56C867.89,563.34,867.06,563.83,866,563.83Z" transform="translate(-803.13 -351.79)"/><path class="cls-4" d="M873.44,563.83c-1,0-1.85-.49-1.85-1.1v-6.56c0-.6.82-1.09,1.85-1.09s1.85.49,1.85,1.09v6.56C875.29,563.34,874.46,563.83,873.44,563.83Z" transform="translate(-803.13 -351.79)"/><path class="cls-5" d="M911.32,557.54H890.1c-2.35,0-4.24,1.12-4.24,2.5s1.89,2.51,4.24,2.51h21.22Z" transform="translate(-803.13 -351.79)"/><path class="cls-4" d="M914.18,566.81c-1.58,0-2.86-.76-2.86-1.69V555c0-.94,1.28-1.69,2.86-1.69S917,554,917,555v10.15C917,566.05,915.76,566.81,914.18,566.81Z" transform="translate(-803.13 -351.79)"/><text class="cls-6" transform="translate(78.88 157.23)">点击观看</text><path class="cls-7" d="M839,403.86h14.34V586.09H839Z" transform="translate(-803.13 -351.79)"/><path class="cls-7" d="M1068.36,403.86h14.34V586.09h-14.34Z" transform="translate(-803.13 -351.79)"/><path class="cls-8" d="M803.13,586.09h315.41V729.28H803.13Z" transform="translate(-803.13 -351.79)"/><path class="cls-9" d="M1111.37,396.89v13.48c0,10.78-9.63,19.52-21.5,19.52s-21.51-8.74-21.51-19.52V390.84h43Z" transform="translate(-803.13 -351.79)"/><path class="cls-9" d="M1068.36,390.84v19.53c0,10.78-9.63,19.52-21.51,19.52s-21.5-8.74-21.5-19.52V390.84Z" transform="translate(-803.13 -351.79)"/><path class="cls-9" d="M1025.35,390.84v19.53c0,10.78-9.63,19.52-21.51,19.52s-21.5-8.74-21.5-19.52V390.84Z" transform="translate(-803.13 -351.79)"/><path class="cls-9" d="M982.34,390.84v19.53c0,10.78-9.63,19.52-21.51,19.52s-21.5-8.74-21.5-19.52V390.84Z" transform="translate(-803.13 -351.79)"/><path class="cls-9" d="M939.33,390.84v19.53c0,10.78-9.63,19.52-21.51,19.52s-21.5-8.74-21.5-19.52V390.84Z" transform="translate(-803.13 -351.79)"/><path class="cls-9" d="M896.32,390.84v19.53c0,10.78-9.63,19.52-21.51,19.52s-21.5-8.74-21.5-19.52V390.84Z" transform="translate(-803.13 -351.79)"/><path class="cls-9" d="M853.31,390.84v19.53c0,10.78-9.63,19.52-21.51,19.52s-21.51-8.74-21.51-19.52V390.84Z" transform="translate(-803.13 -351.79)"/><path class="cls-10" d="M1089.87,371.32v19.52c0,10.78-9.63,19.53-21.51,19.53s-21.51-8.75-21.51-19.53V371.32Z" transform="translate(-803.13 -351.79)"/><path class="cls-10" d="M1046.85,371.32v19.52c0,10.78-9.62,19.53-21.5,19.53s-21.51-8.75-21.51-19.53V371.32Z" transform="translate(-803.13 -351.79)"/><path class="cls-10" d="M1003.84,371.32v19.52c0,10.78-9.63,19.53-21.5,19.53s-21.51-8.75-21.51-19.53V371.32Z" transform="translate(-803.13 -351.79)"/><path class="cls-10" d="M960.83,371.32v19.52c0,10.78-9.63,19.53-21.5,19.53s-21.51-8.75-21.51-19.53V371.32Z" transform="translate(-803.13 -351.79)"/><path class="cls-10" d="M917.82,371.32v19.52c0,10.78-9.63,19.53-21.5,19.53s-21.51-8.75-21.51-19.53V371.32Z" transform="translate(-803.13 -351.79)"/><path class="cls-10" d="M874.81,371.32v19.52c0,10.78-9.63,19.53-21.5,19.53s-21.51-8.75-21.51-19.53V371.32Z" transform="translate(-803.13 -351.79)"/><path class="cls-10" d="M810.29,371.32H831.8v19.52c0,10.78-9.63,19.53-21.51,19.53S810.29,371.32,810.29,371.32Z" transform="translate(-803.13 -351.79)"/><path class="cls-10" d="M1111.37,371.32h-21.5v19.52c0,10.78,9.62,19.53,21.5,19.53S1111.37,371.32,1111.37,371.32Z" transform="translate(-803.13 -351.79)"/><path class="cls-10" d="M1111.37,357.84v13.48c0,10.78-9.63,19.52-21.5,19.52s-21.51-8.74-21.51-19.52V351.79h43Z" transform="translate(-803.13 -351.79)"/><path class="cls-10" d="M1068.36,351.79v19.53c0,10.78-9.63,19.52-21.51,19.52s-21.5-8.74-21.5-19.52V351.79Z" transform="translate(-803.13 -351.79)"/><path class="cls-10" d="M1025.35,351.79v19.53c0,10.78-9.63,19.52-21.51,19.52s-21.5-8.74-21.5-19.52V351.79Z" transform="translate(-803.13 -351.79)"/><path class="cls-10" d="M982.34,351.79v19.53c0,10.78-9.63,19.52-21.51,19.52s-21.5-8.74-21.5-19.52V351.79Z" transform="translate(-803.13 -351.79)"/><path class="cls-10" d="M939.33,351.79v19.53c0,10.78-9.63,19.52-21.51,19.52s-21.5-8.74-21.5-19.52V351.79Z" transform="translate(-803.13 -351.79)"/><path class="cls-10" d="M896.32,351.79v19.53c0,10.78-9.63,19.52-21.51,19.52s-21.5-8.74-21.5-19.52V351.79Z" transform="translate(-803.13 -351.79)"/><path class="cls-10" d="M853.31,351.79v19.53c0,10.78-9.63,19.52-21.51,19.52s-21.51-8.74-21.51-19.52V351.79Z" transform="translate(-803.13 -351.79)"/><path class="cls-11" d="M803.13,586.09h315.41v26H803.13Z" transform="translate(-803.13 -351.79)"/><path class="cls-12" d="M867.45,659.62h14.72v66.74H867.45Z" transform="translate(-803.13 -351.79)"/><path class="cls-13" d="M893.22,674.71c0,1.67-1.66,3-3.68,3H860.08c-2,0-3.68-1.36-3.68-3v-6.07c0-1.67,1.66-3,3.68-3h29.46c2,0,3.68,1.37,3.68,3Z" transform="translate(-803.13 -351.79)"/><path class="cls-9" d="M915.31,668.73c0,1.67-1.66,3-3.68,3H838c-2,0-3.68-1.37-3.68-3v-18.2c0-1.67,1.66-3,3.68-3h73.64c2,0,3.68,1.37,3.68,3Z" transform="translate(-803.13 -351.79)"/><path class="cls-12" d="M1031.47,659.62h14.73v66.74h-14.73Z" transform="translate(-803.13 -351.79)"/><path class="cls-13" d="M1057.25,674.71c0,1.67-1.66,3-3.68,3h-29.46c-2,0-3.68-1.36-3.68-3v-6.07c0-1.67,1.66-3,3.68-3h29.46c2,0,3.68,1.37,3.68,3Z" transform="translate(-803.13 -351.79)"/><path class="cls-9" d="M1079.34,668.73c0,1.67-1.66,3-3.68,3H1002c-2,0-3.68-1.37-3.68-3v-18.2c0-1.67,1.65-3,3.68-3h73.64c2,0,3.68,1.37,3.68,3Z" transform="translate(-803.13 -351.79)"/></svg>