<svg id="图层_1" data-name="图层 1" xmlns="http://www.w3.org/2000/svg" viewBox="0 0 338.74 385.23"><defs><style>.cls-1{fill:#ffd2a6;}.cls-2{fill:#d66b00;}.cls-3{fill:#656d78;}.cls-4{fill:#545c66;}.cls-5{fill:#556080;}.cls-6{fill:#424a60;}.cls-7{fill:#2a303d;}.cls-10,.cls-8{fill:#fff;}.cls-9{fill:#dd352e;}.cls-10{font-size:34.16px;font-family:DFPHaiBaoW12, DFPHaiBaoW12-GB;letter-spacing:0.2em;}.cls-11{fill:#ed5564;}.cls-12{fill:#e6e9ed;}.cls-13{fill:#da4453;}</style></defs><title>4</title><path class="cls-1" d="M836.12,602H1086.5v127.4H836.12Z" transform="translate(-791.94 -347.17)"/><path class="cls-2" d="M961.31,347.17,791.94,456.37h338.74Z" transform="translate(-791.94 -347.17)"/><path class="cls-2" d="M1104.9,605c0,1.66-1.66,3-3.68,3H821.4c-2,0-3.68-1.37-3.68-3V592.87c0-1.67,1.66-3,3.68-3h279.82c2,0,3.68,1.37,3.68,3Z" transform="translate(-791.94 -347.17)"/><path class="cls-3" d="M1101.33,732.4h-280c-2,0-3.68-1.36-3.68-3s1.65-3,3.68-3h280c2,0,3.68,1.36,3.68,3S1103.36,732.4,1101.33,732.4Z" transform="translate(-791.94 -347.17)"/><path class="cls-4" d="M1009.17,662.63h14.73v66.74h-14.73Z" transform="translate(-791.94 -347.17)"/><path class="cls-4" d="M898.72,662.63h14.72v66.74H898.72Z" transform="translate(-791.94 -347.17)"/><path class="cls-3" d="M924.49,677.72c0,1.67-1.66,3-3.68,3H891.35c-2,0-3.68-1.36-3.68-3v-6.07c0-1.67,1.66-3,3.68-3h29.46c2,0,3.68,1.37,3.68,3Z" transform="translate(-791.94 -347.17)"/><path class="cls-2" d="M946.58,671.75c0,1.66-1.66,3-3.68,3H869.26c-2,0-3.68-1.37-3.68-3V653.54c0-1.67,1.66-3,3.68-3H942.9c2,0,3.68,1.36,3.68,3Z" transform="translate(-791.94 -347.17)"/><path class="cls-3" d="M1035,677.72c0,1.67-1.66,3-3.68,3h-29.46c-2,0-3.68-1.36-3.68-3v-6.07c0-1.67,1.66-3,3.68-3h29.46c2,0,3.68,1.37,3.68,3Z" transform="translate(-791.94 -347.17)"/><path class="cls-2" d="M1057,671.75c0,1.66-1.66,3-3.68,3H979.72c-2,0-3.68-1.37-3.68-3V653.54c0-1.67,1.66-3,3.68-3h73.64c2,0,3.68,1.36,3.68,3Z" transform="translate(-791.94 -347.17)"/><rect class="cls-5" x="59.16" y="109.2" width="220.67" height="132.9"/><rect class="cls-6" x="59.16" y="219.46" width="220.67" height="22.64"/><path class="cls-7" d="M1055.4,581.05H894.61c-3,0-5.36-1.12-5.36-2.51s2.39-2.51,5.36-2.51H1055.4c3,0,5.36,1.12,5.36,2.51S1058.37,581.05,1055.4,581.05Z" transform="translate(-791.94 -347.17)"/><path class="cls-8" d="M866.77,582.32c-1,0-1.85-.49-1.85-1.09v-6.56c0-.6.82-1.09,1.85-1.09s1.85.49,1.85,1.09v6.56C868.62,581.83,867.79,582.32,866.77,582.32Z" transform="translate(-791.94 -347.17)"/><path class="cls-8" d="M874.17,582.32c-1,0-1.85-.49-1.85-1.09v-6.56c0-.6.82-1.09,1.85-1.09s1.85.49,1.85,1.09v6.56C876,581.83,875.19,582.32,874.17,582.32Z" transform="translate(-791.94 -347.17)"/><path class="cls-9" d="M912.05,576H890.83c-2.35,0-4.24,1.12-4.24,2.51s1.89,2.51,4.24,2.51h21.22Z" transform="translate(-791.94 -347.17)"/><path class="cls-8" d="M914.91,585.31c-1.58,0-2.86-.76-2.86-1.69V573.47c0-.94,1.28-1.7,2.86-1.7s2.86.76,2.86,1.7v10.15C917.77,584.55,916.49,585.31,914.91,585.31Z" transform="translate(-791.94 -347.17)"/><text class="cls-10" transform="translate(90.8 180.35)">点击观看</text><path class="cls-1" d="M1071.89,455.83h14.73v134h-14.73Z" transform="translate(-791.94 -347.17)"/><path class="cls-1" d="M836.25,455.83H851v134H836.25Z" transform="translate(-791.94 -347.17)"/><path class="cls-11" d="M1084.81,587.08a4.09,4.09,0,0,1-4.07,4.07H1056.3a4.1,4.1,0,0,1-4.08-4.07v-48.9a4.09,4.09,0,0,1,4.08-4.07h24.44a4.08,4.08,0,0,1,4.07,4.07Z" transform="translate(-791.94 -347.17)"/><path class="cls-12" d="M1052.22,526h32.59v16.29h-32.59Z" transform="translate(-791.94 -347.17)"/><path class="cls-3" d="M1060.36,591.12a4,4,0,0,1-1.17-.17,4,4,0,0,1-2.73-5.06l24.44-81.47a4.07,4.07,0,0,1,7.8,2.34l-24.44,81.46A4.08,4.08,0,0,1,1060.36,591.12Z" transform="translate(-791.94 -347.17)"/><path class="cls-13" d="M1069.55,542.26l-13.08,43.62a4,4,0,0,0,2.73,5.06,3.66,3.66,0,0,0,1.17.18,4.09,4.09,0,0,0,3.9-2.9l13.79-46Z" transform="translate(-791.94 -347.17)"/></svg>