<?xml version="1.0" encoding="utf-8"?>
<!-- Generator: Adobe Illustrator 16.0.0, SVG Export Plug-In . SVG Version: 6.00 Build 0)  -->
<!DOCTYPE svg PUBLIC "-//W3C//DTD SVG 1.1//EN" "http://www.w3.org/Graphics/SVG/1.1/DTD/svg11.dtd">
<svg version="1.1" xmlns="http://www.w3.org/2000/svg" xmlns:xlink="http://www.w3.org/1999/xlink" x="0px" y="0px" width="1536px"
	 height="2385px" viewBox="0 0 1536 2385" enable-background="new 0 0 1536 2385" xml:space="preserve">
<g id="图层_3">
	<rect x="1" y="1590" fill="#E6E8C5" width="1536" height="795"/>
</g>
<g id="图层_2">
	<rect x="1" y="795" fill="#E6E8C5" width="1536" height="795"/>
</g>
<g id="图层_1">
	<rect fill="#EAB527" stroke="#000000" stroke-miterlimit="10" width="1536" height="795"/>
</g>
<g id="图层_4">
	
		<text transform="matrix(1 0 0 1 61.6255 910.104)" fill="#514F4E" font-family="'MF-SuBai(Noncommercial)-Regular'" font-size="60">【内容结构图】</text>
	<g opacity="0.5">
		<g>
			<defs>
				<rect id="SVGID_1_" x="372.713" y="70.446" width="235.922" height="86.556"/>
			</defs>
			<clipPath id="SVGID_2_">
				<use xlink:href="#SVGID_1_"  overflow="visible"/>
			</clipPath>
			<g clip-path="url(#SVGID_2_)">
				<defs>
					<rect id="SVGID_3_" x="372.713" y="70.446" width="235.922" height="86.556"/>
				</defs>
				<clipPath id="SVGID_4_">
					<use xlink:href="#SVGID_3_"  overflow="visible"/>
				</clipPath>
				<g transform="matrix(1 0 0 1 1.107686e-005 1.434690e-006)" clip-path="url(#SVGID_4_)">
					
						<image overflow="visible" width="308" height="113" xlink:href="9C059261.png"  transform="matrix(0.766 0 0 0.766 372.7134 70.4463)">
					</image>
				</g>
			</g>
		</g>
	</g>
	<path fill="#FFFFFF" d="M437.754,138.894h-16.015V115.79c0-3.091-0.846-4.638-2.538-4.638c-1.81,0-2.713,1.576-2.713,4.726v23.016
		h-15.928V115.79c0-1.867-0.205-3.106-0.612-3.719c-0.409-0.613-1.081-0.919-2.013-0.919c-1.75,0-2.626,1.576-2.626,4.726v23.016
		h-16.015v-26.342c0-4.782,1.604-8.852,4.813-12.208c3.209-3.354,7.118-5.032,11.728-5.032c4.667,0,8.927,2.012,12.777,6.038
		c4.2-4.026,8.371-6.038,12.514-6.038c5.133,0,9.189,1.663,12.164,4.988c2.976,3.326,4.463,8.022,4.463,14.089V138.894z"/>
	<path fill="#FFFFFF" d="M463.132,138.893h-16.016V96.274h16.016V138.893z M447.555,84.985c0-2.158,0.744-3.98,2.231-5.469
		c1.487-1.489,3.311-2.232,5.47-2.232c2.157,0,3.981,0.744,5.469,2.232c1.488,1.488,2.231,3.311,2.231,5.469
		c0,2.16-0.744,3.982-2.231,5.47c-1.487,1.488-3.312,2.232-5.469,2.232c-2.159,0-3.982-0.744-5.47-2.232
		C448.299,88.967,447.555,87.145,447.555,84.985"/>
	<path fill="#FFFFFF" d="M514.589,118.853c-0.467,6.186-2.844,11.232-7.132,15.14c-4.289,3.91-9.292,5.864-15.009,5.864
		c-6.069,0-11.275-2.188-15.621-6.563c-4.347-4.376-6.52-9.627-6.52-15.753c0-6.125,2.173-11.361,6.52-15.708
		c4.346-4.346,9.552-6.521,15.621-6.521c5.193,0,9.83,1.634,13.915,4.902c4.083,3.268,6.68,7.613,7.789,13.039l-16.452,0.526
		c-1.284-1.808-3.034-2.714-5.251-2.714c-1.75,0-3.253,0.643-4.507,1.925c-1.256,1.284-1.881,2.801-1.881,4.55
		c0,1.751,0.625,3.283,1.881,4.595c1.254,1.312,2.757,1.969,4.507,1.969c1.4,0,2.669-0.407,3.807-1.226
		c1.137-0.816,1.91-1.953,2.319-3.414L514.589,118.853z"/>
	<path fill="#FFFFFF" d="M544.869,95.837v17.152c-1.168-0.7-2.247-1.05-3.239-1.05c-1.284,0-2.29,0.584-3.019,1.751
		c-0.731,1.167-1.094,2.83-1.094,4.987v20.216h-16.015v-23.278c0-6.242,1.647-11.187,4.944-14.833
		c3.295-3.645,7.746-5.47,13.346-5.47C541.424,95.312,543.118,95.486,544.869,95.837"/>
	<path fill="#FFFFFF" d="M547.143,117.627c0-6.066,2.201-11.302,6.607-15.708c4.404-4.404,9.64-6.607,15.709-6.607
		c6.067,0,11.302,2.203,15.708,6.607c4.403,4.406,6.607,9.642,6.607,15.708c0,6.069-2.188,11.29-6.563,15.665
		c-4.376,4.376-9.626,6.563-15.752,6.563s-11.377-2.188-15.752-6.563C549.331,128.917,547.143,123.696,547.143,117.627
		 M562.983,117.627c0,1.751,0.626,3.253,1.881,4.507c1.254,1.254,2.785,1.881,4.595,1.881c1.808,0,3.338-0.626,4.594-1.881
		c1.253-1.254,1.881-2.756,1.881-4.507c0-1.807-0.628-3.34-1.881-4.595c-1.256-1.253-2.787-1.881-4.594-1.881
		c-1.81,0-3.341,0.627-4.595,1.881C563.609,114.288,562.983,115.82,562.983,117.627"/>
	<g opacity="0.5">
		<g>
			<defs>
				<rect id="SVGID_5_" x="609.541" y="70.792" width="63.577" height="91.152"/>
			</defs>
			<clipPath id="SVGID_6_">
				<use xlink:href="#SVGID_5_"  overflow="visible"/>
			</clipPath>
			<g clip-path="url(#SVGID_6_)">
				<defs>
					<rect id="SVGID_7_" x="609.541" y="70.792" width="63.576" height="91.152"/>
				</defs>
				<clipPath id="SVGID_8_">
					<use xlink:href="#SVGID_7_"  overflow="visible"/>
				</clipPath>
				<g transform="matrix(1 0 0 1 1.480847e-005 1.388515e-006)" clip-path="url(#SVGID_8_)">
					
						<image overflow="visible" width="83" height="119" xlink:href="9C059263.png"  transform="matrix(0.766 0 0 0.766 609.541 70.7925)">
					</image>
				</g>
			</g>
		</g>
	</g>
	<path fill="none" stroke="#FFFFFF" stroke-width="10" stroke-linecap="square" stroke-miterlimit="10" d="M651.802,96.591
		c0-8.357-7.179-15.131-16.034-15.131c-8.855,0-16.034,6.774-16.034,15.131h0.06v29.121h-0.06c0,8.357,7.179,15.131,16.034,15.131
		c8.855,0,16.034-6.774,16.034-15.131h0.06V96.293"/>
	<g opacity="0.5">
		<g>
			<defs>
				<rect id="SVGID_9_" x="624.095" y="85.346" width="32.938" height="32.937"/>
			</defs>
			<clipPath id="SVGID_10_">
				<use xlink:href="#SVGID_9_"  overflow="visible"/>
			</clipPath>
			<g clip-path="url(#SVGID_10_)">
				<defs>
					<rect id="SVGID_11_" x="624.094" y="85.346" width="32.938" height="32.937"/>
				</defs>
				<clipPath id="SVGID_12_">
					<use xlink:href="#SVGID_11_"  overflow="visible"/>
				</clipPath>
				<g transform="matrix(1 0 0 1 7.590461e-007 2.258073e-006)" clip-path="url(#SVGID_12_)">
					
						<image overflow="visible" width="43" height="43" xlink:href="9C059266.png"  transform="matrix(0.766 0 0 0.766 624.0942 85.3462)">
					</image>
				</g>
			</g>
		</g>
	</g>
	<path fill="#FFFFFF" d="M640.128,96.283c0,2.588-2.098,4.686-4.686,4.686c-2.587,0-4.685-2.098-4.685-4.686
		c0-2.587,2.098-4.686,4.685-4.686C638.03,91.598,640.128,93.696,640.128,96.283"/>
	<g opacity="0.5">
		<g>
			<defs>
				<rect id="SVGID_13_" x="624.861" y="114.454" width="32.938" height="33.703"/>
			</defs>
			<clipPath id="SVGID_14_">
				<use xlink:href="#SVGID_13_"  overflow="visible"/>
			</clipPath>
			<g clip-path="url(#SVGID_14_)">
				<defs>
					<rect id="SVGID_15_" x="624.86" y="114.454" width="32.938" height="33.703"/>
				</defs>
				<clipPath id="SVGID_16_">
					<use xlink:href="#SVGID_15_"  overflow="visible"/>
				</clipPath>
				<g transform="matrix(1 0 0 1 -8.187410e-006 3.997190e-006)" clip-path="url(#SVGID_16_)">
					
						<image overflow="visible" width="43" height="44" xlink:href="9C059267.png"  transform="matrix(0.766 0 0 0.766 624.8604 114.4536)">
					</image>
				</g>
			</g>
		</g>
	</g>
	<path fill="#FFFFFF" d="M640.839,126.02c0,2.587-2.099,4.685-4.686,4.685s-4.685-2.098-4.685-4.685s2.098-4.686,4.685-4.686
		S640.839,123.433,640.839,126.02"/>
	<g opacity="0.5">
		<g>
			<defs>
				<rect id="SVGID_17_" x="667.617" y="69.141" width="136.344" height="94.982"/>
			</defs>
			<clipPath id="SVGID_18_">
				<use xlink:href="#SVGID_17_"  overflow="visible"/>
			</clipPath>
			<g clip-path="url(#SVGID_18_)">
				<defs>
					<rect id="SVGID_19_" x="667.617" y="69.141" width="136.344" height="94.982"/>
				</defs>
				<clipPath id="SVGID_20_">
					<use xlink:href="#SVGID_19_"  overflow="visible"/>
				</clipPath>
				<g transform="matrix(1 0 0 1 -1.103834e-005 -9.133873e-007)" clip-path="url(#SVGID_20_)">
					
						<image overflow="visible" width="178" height="124" xlink:href="9C059262.png"  transform="matrix(0.766 0 0 0.766 667.6172 69.1406)">
					</image>
				</g>
			</g>
		</g>
	</g>
	<path fill="#FFFFFF" d="M692.708,79.136v40.058c0,6.46,2.331,9.689,6.994,9.689c1.997,0,3.679-0.681,5.044-2.047
		c1.363-1.364,2.048-3.013,2.048-4.944c0-1.999-0.616-3.646-1.849-4.945c-1.233-1.298-2.746-1.949-4.545-1.949
		c-1.666,0-3.297,0.567-4.895,1.699V96.517c2.063-0.2,3.695-0.3,4.895-0.3c6.793,0,12.652,2.481,17.582,7.443
		c4.928,4.961,7.393,10.905,7.393,17.831c0,7.061-2.497,13.053-7.493,17.981c-4.994,4.93-11.122,7.393-18.38,7.393
		c-7.193,0-13.171-2.513-17.932-7.542c-4.763-5.028-7.143-11.539-7.143-19.531V79.136H692.708z"/>
	<path fill="#FFFFFF" d="M751.646,145.766h-18.28v-48.65h18.28V145.766z M733.865,84.229c0-2.462,0.848-4.544,2.548-6.243
		c1.698-1.699,3.779-2.549,6.245-2.549c2.462,0,4.544,0.85,6.242,2.549c1.698,1.699,2.548,3.78,2.548,6.243
		c0,2.466-0.85,4.545-2.548,6.244c-1.698,1.699-3.78,2.548-6.242,2.548c-2.466,0-4.547-0.849-6.245-2.548
		C734.712,88.774,733.865,86.695,733.865,84.229"/>
	<path fill="#FFFFFF" d="M778.619,79.136v19.079h8.191v19.28h-8.191c0,3.864,0.6,6.529,1.799,7.993
		c1.199,1.465,3.428,2.196,6.691,2.196v19.181c-8.391,0-14.951-2.381-19.678-7.143c-4.731-4.761-7.094-11.503-7.094-20.229V79.136
		H778.619z"/>
	<g opacity="0.5">
		<g>
			<defs>
				<rect id="SVGID_21_" x="825.732" y="68.967" width="359.123" height="94.036"/>
			</defs>
			<clipPath id="SVGID_22_">
				<use xlink:href="#SVGID_21_"  overflow="visible"/>
			</clipPath>
			<g clip-path="url(#SVGID_22_)">
				<defs>
					<rect id="SVGID_23_" x="825.732" y="68.967" width="359.123" height="94.036"/>
				</defs>
				<clipPath id="SVGID_24_">
					<use xlink:href="#SVGID_23_"  overflow="visible"/>
				</clipPath>
				<g transform="matrix(1 0 0 1 2.636572e-005 4.523836e-006)" clip-path="url(#SVGID_24_)">
					
						<image overflow="visible" width="844" height="221" xlink:href="9C05926D.png"  transform="matrix(0.4255 0 0 0.4255 825.7324 68.9673)">
					</image>
				</g>
			</g>
		</g>
	</g>
	<path fill="#FFFFFF" d="M836.127,129.767l12.02,4.154c-2.535,5.421-4.715,10.841-6.539,16.261l-12.109-4.154
		C831.973,139.842,834.184,134.422,836.127,129.767 M833.652,76.299c13.49,0,27.131,0.619,40.918,1.856
		c-0.295-1.708-0.473-3.151-0.529-4.33l12.461-1.326c0.354,2.181,0.883,4.538,1.59,7.07c1.355,0.177,2.652,0.324,3.891,0.441
		l6.627-6.893c4.477,2.534,8.277,5.775,11.4,9.721l-7.6,7.6c-1.002-1.06-2.092-2.09-3.27-3.093l-0.885,5.125
		c-2.121-0.235-4.213-0.442-6.273-0.619c0.824,2.358,1.678,4.626,2.563,6.805c1.295-1.414,2.531-2.769,3.711-4.065l8.572,8.219
		c-2.18,2.534-4.33,5.068-6.451,7.601c2.414,4.124,5.271,8.514,8.572,13.167l-9.104,4.772c4.537,3.418,8.365,7.572,11.49,12.461
		l-8.572,8.308c-3.596-4.419-7.867-8.896-12.814-13.434l5.92-6.451c-1.768-2.238-3.445-4.654-5.037-7.247
		c-1.59,1.944-3.152,3.86-4.684,5.745l-6.629-5.922c-0.119,1.297-0.414,2.298-0.883,3.005c-1.004,1.59-2.711,2.77-5.127,3.535
		c-2.416,0.884-6.039,1.356-10.869,1.414h-2.387c-1.475,0-2.77-0.058-3.889-0.177l10.074,2.298c-2.297,2.77-3.447,5.068-3.447,6.894
		c0,0.589,0.236,1.061,0.709,1.414c0.471,0.414,1.295,0.619,2.473,0.619c1.945,0,4.891-0.354,8.838-1.061
		c-1.65-1.237-3.328-2.503-5.037-3.801l7.248-7.6c5.891,3.182,10.84,7.218,14.846,12.108l-7.6,7.601
		c-1.59-1.533-3.299-3.093-5.125-4.685l1.326,7.07c-6.363,1.355-11.666,2.062-15.91,2.121c-5.242,0-9.102-0.796-11.576-2.386
		c-2.533-1.65-3.977-3.86-4.33-6.628c0-5.714,1.236-10.634,3.711-14.759c-1.648-0.471-2.916-1.149-3.799-2.033
		c-2.418-2.179-3.654-4.978-3.713-8.395c0-5.42,1.504-10.37,4.508-14.848l5.92,1.326c2.299-0.648,4.598-0.972,6.895-0.972
		c2.002,0,4.447,0.119,7.334,0.354c2.594,0.413,4.686,1.268,6.275,2.563c2.238,1.179,3.447,4.507,3.623,9.986
		c1.709-2.238,3.416-4.359,5.127-6.362c-2.711-6.421-5.127-13.081-7.248-19.974c-10.723-0.941-20.709-1.648-29.959-2.121
		c-2.004,13.139-3.152,26.838-3.445,41.096l-12.816-1.326c0.178-14.022,1.266-27.455,3.27-40.3
		c-1.002-0.058-1.975-0.088-2.916-0.088L833.652,76.299z M850.268,91.146c9.189,0.53,18.057,1.325,26.602,2.386l-0.707,9.279
		c-9.605-1.001-18.707-1.914-27.309-2.739L850.268,91.146z M861.314,113.595c-1.592,0.059-3.152,0.5-4.684,1.326
		c-0.119,0.589-0.178,1.179-0.178,1.768c0,1.236,0.412,2.12,1.238,2.65c1,0.53,2.65,0.795,4.949,0.795
		c2.355,0,3.887-0.234,4.596-0.707c0.588-0.294,0.912-1.09,0.973-2.387c-0.121-1.767-0.768-2.828-1.945-3.181
		C864.613,113.682,862.963,113.595,861.314,113.595"/>
	<path fill="#FFFFFF" d="M928.658,75.946l12.725,4.507c-0.824,1.827-1.59,3.623-2.297,5.391c6.246,0.413,12.314,0.914,18.207,1.502
		l-1.416,14.494c-1.943-0.177-3.83-0.323-5.654-0.442c-0.943,3.124-1.887,6.157-2.828,9.102c2.121-0.058,4.154-0.087,6.098-0.087
		l1.326,13.875c-3.949,0-7.777,0.119-11.49,0.353c-0.529,1.828-1.031,3.624-1.502,5.391c4.537,1.003,9.338,1.503,14.404,1.503
		l-1.412,13.787c-6.246,0-11.727-0.677-16.439-2.032c-0.707,2.886-1.412,5.744-2.121,8.571l-13.875-3.093
		c1.885-7.777,3.801-15.229,5.744-22.36c-2.355,0.413-4.596,0.855-6.717,1.327l-1.412-13.875c4.123-0.825,8.188-1.502,12.195-2.033
		c1.178-4.065,2.355-7.954,3.535-11.666c-0.709-0.058-1.385-0.117-2.033-0.176c-1.061,2.947-2.063,5.863-3.004,8.749l-12.816-4.507
		C921.941,93.444,925.535,84.019,928.658,75.946 M964.186,83.546l6.717,1.59c1.943-0.647,4.066-1.178,6.363-1.59
		c5.891,0,9.721,0.53,11.488,1.59c2.828,1.002,5.127,3.389,6.895,7.159c2.121,3.535,3.238,10.636,3.357,21.299
		c0,10.723-1.18,18.47-3.535,23.242c-3.654,7.013-9.25,10.518-16.791,10.518c-7.955,0-13.818-2.592-17.588-7.777
		c-3.477-5.303-5.215-13.05-5.215-23.243C955.877,105.021,958.646,94.093,964.186,83.546 M977.266,134.274
		c3.063,0,5.154-1.471,6.273-4.418c1.119-3.122,1.68-7.747,1.68-13.875c0-10.664-0.648-16.378-1.943-17.145
		c-0.885-1.119-1.975-1.737-3.271-1.856c-1.355-0.235-2.473-0.353-3.357-0.353c-1.533,0.412-2.887,0.914-4.064,1.501
		c-1.945,5.775-2.916,11.372-2.916,16.792c0,7.424,0.529,12.402,1.59,14.935C972.373,132.803,974.377,134.274,977.266,134.274"/>
	<path fill="#FFFFFF" d="M1086.41,95.212l1.326,13.875h-5.568c0.059,1.062,0.09,2.092,0.09,3.094c0,5.951-1.77,10.693-5.303,14.228
		c-3.596,3.655-9.9,5.48-18.914,5.48h-4.154c-7.953,0-13.58-1.09-16.879-3.27c-3.889-2.709-5.832-6.922-5.832-12.638
		c0-1.885,0.088-3.769,0.266-5.656c-1.475,0.06-2.918,0.119-4.332,0.176c-0.295,4.242-0.441,8.484-0.441,12.727
		c0,5.422,1.117,9.074,3.357,10.959c2.18,2.121,6.363,3.182,12.551,3.182c7.895,0,16.643-1.149,26.248-3.447l3.094,14.847
		c-9.135,2.062-18.709,3.093-28.725,3.093h-4.596c-8.367,0-14.877-1.797-19.531-5.39c-5.303-4.3-7.953-11.371-7.953-21.211
		c0-4.595,0.146-9.249,0.441-13.962c-0.941,0.059-1.887,0.119-2.828,0.176l-1.414-13.787c1.887-0.118,3.74-0.235,5.568-0.354
		c0.646-5.066,1.443-10.252,2.387-15.555l15.555,3.447c-0.885,3.712-1.623,7.483-2.211,11.313c1.826-0.118,3.623-0.206,5.393-0.266
		c1.471-5.419,3.504-11.047,6.098-16.88l15.553,3.446c-2.416,4.361-4.33,8.662-5.744,12.904c5.008-0.177,10.016-0.294,15.025-0.354
		c-1.297-5.715-3.242-11.401-5.834-17.057l15.555-3.447c2.709,6.658,4.684,13.433,5.922,20.327H1086.41z M1046.906,109.705
		c-0.059,0.59-0.119,1.18-0.178,1.768c0,2.474,0.59,4.213,1.768,5.215c1.414,0.883,4.389,1.325,8.926,1.325
		c3.477,0,5.98-0.736,7.514-2.208c1.178-0.884,1.768-2.681,1.768-5.391v-1.149C1060.104,109.382,1053.504,109.529,1046.906,109.705"
		/>
	<path fill="#FFFFFF" d="M1103.645,77.625l7.07,1.679c9.896-2.474,19.736-3.712,29.518-3.712c8.541,0,14.406,0.59,17.586,1.768
		c5.891,1.533,10.193,4.478,12.904,8.837c2.945,3.536,4.418,10.106,4.418,19.709v2.475c0,5.892-1.738,10.9-5.213,15.023
		c-0.707,0.943-1.563,1.768-2.564,2.475c2.887,0.826,5.598,1.65,8.133,2.475l-3.801,12.461c-4.125-1.119-8.043-2.149-11.756-3.094
		c0.766,4.361,1.561,8.838,2.387,13.434l-14.141,1.414c-1.061-5.186-1.975-10.37-2.74-15.554l8.396-0.795
		c-3.889-0.942-7.512-1.826-10.869-2.651l0.529-1.768c-1.121,0.06-2.209,0.088-3.27,0.088h-10.076
		c-5.361,0-10.135-0.382-14.316-1.149l1.945,3.182c-0.355,0.236-0.65,0.413-0.885,0.53l5.391-1.59
		c0.766,5.068,2.27,10.371,4.508,15.908l-13.787,4.507c-1.768-4.418-3.092-8.954-3.977-13.609c-2.121,1.414-4.273,2.828-6.451,4.242
		l-7.248-11.4c2.945-2.122,5.861-4.036,8.75-5.745c-5.598-3.652-8.396-8.984-8.396-15.996
		C1095.689,101.221,1098.342,90.174,1103.645,77.625 M1139.613,89.026c-0.766,2.887-1.475,5.804-2.121,8.749
		c3.063,0.296,6.039,0.619,8.926,0.972l-1.324,12.372c-3.301-0.352-6.572-0.647-9.811-0.883c-0.354,2.004-0.648,4.037-0.885,6.099
		l-14.494-3.093c0.178-1.414,0.354-2.74,0.531-3.977c-3.301-0.178-6.57-0.294-9.811-0.354c0.471,3.418,2.15,5.775,5.037,7.07
		c3.418,1.591,10.459,2.387,21.123,2.387c5.303,0,9.869-0.324,13.697-0.973c3.006-0.411,5.422-1.62,7.25-3.623
		c1.471-1.178,2.326-3.564,2.561-7.158c0-7.955-1.738-13.08-5.213-15.377C1152.959,89.821,1147.801,89.084,1139.613,89.026
		 M1122.645,96.714c0.471-2.298,0.941-4.477,1.414-6.54c-3.711,0.59-7.334,1.414-10.871,2.475c-0.471,1.356-0.854,2.593-1.148,3.711
		C1115.574,96.42,1119.109,96.538,1122.645,96.714"/>
	<g>
		
			<text transform="matrix(1 0 0 1 85.6245 517.8853)" fill="#373838" font-family="'MF-SuBai(Noncommercial)-Regular'" font-size="48">[使用对象]：小学3-4年级学生</text>
	</g>
	<g>
		
			<text transform="matrix(1 0 0 1 85.6245 319.6436)" fill="#373838" font-family="'MF-SuBai(Noncommercial)-Regular'" font-size="48">[网站类型]：自主学习型</text>
	</g>
	<g>
		
			<text transform="matrix(1 0 0 1 85.6245 617.0059)" fill="#373838" font-family="'MF-SuBai(Noncommercial)-Regular'" font-size="48">[运行环境]：Windows XP/7/8/10系统</text>
	</g>
	<g>
		
			<text transform="matrix(1 0 0 1 85.6245 418.7642)" fill="#373838" font-family="'MF-SuBai(Noncommercial)-Regular'" font-size="48">[所属科目]：信息技术</text>
	</g>
	<g>
		
			<text transform="matrix(1 0 0 1 85.6245 716.127)" fill="#373838" font-family="'MF-SuBai(Noncommercial)-Regular'" font-size="48">[开发团队]：华南师范大学</text>
	</g>
	
		<image overflow="visible" width="629" height="503" xlink:href="../../旧版本2019-4-1/图片素材/主控板.png"  transform="matrix(0.6893 0 0 0.6893 999.0059 390.4229)">
	</image>
	<g>
		
			<text transform="matrix(1 0 0 1 911.3359 319.6436)" fill="#373838" font-family="'MF-SuBai(Noncommercial)-Regular'" font-size="48">[配套硬件]：micro:bit套件</text>
	</g>
</g>
<g id="图层_5">
	
		<image overflow="visible" width="950" height="1235" xlink:href="知识框架.png"  transform="matrix(1.1622 0 0 1.1622 216.9736 942.981)">
	</image>
</g>
</svg>
