<svg id="图层_3" data-name="图层 3" xmlns="http://www.w3.org/2000/svg" xmlns:xlink="http://www.w3.org/1999/xlink" viewBox="0 0 563.45 328.95"><defs><style>.cls-1,.cls-4{fill:#fff;}.cls-2{fill:#fd715c;}.cls-3{fill:#bc554a;}.cls-4{font-size:34.16px;font-family:DFPHaiBaoW12, DFPHaiBaoW12-GB;letter-spacing:0.2em;}.cls-5{fill:#4fb363;}.cls-6{fill:#89522d;}.cls-7{fill:#6e4224;}.cls-8{fill:url(#未命名的渐变_24);}.cls-9{fill:#a96737;}.cls-10{fill:#60d978;}.cls-11{fill:#6e4325;}.cls-12{fill:#62dd7a;}.cls-13{fill:#61dc79;}.cls-14{fill:#61da79;}.cls-15{fill:#63da7b;}.cls-16{fill:#63dd7c;}.cls-17{fill:#64dc7c;}.cls-18{fill:#724729;}</style><linearGradient id="未命名的渐变_24" x1="788.24" y1="673.59" x2="788.24" y2="642.51" gradientUnits="userSpaceOnUse"><stop offset="0" stop-color="#fcdac8"/><stop offset="1" stop-color="#fcb282"/></linearGradient></defs><title>2</title><path class="cls-1" d="M1125.53,412h91.37s.16-20.57-20.88-16.3c0,0-9.42-11.86-17.9-11.07a23.07,23.07,0,0,0-16.64,11.71s-16.33-4.12-22.13,8.07C1139.35,404.39,1128.2,405.81,1125.53,412Z" transform="translate(-661.17 -344.64)"/><path class="cls-2" d="M854.92,359.27V667.6h308.33V359.27Zm251.57,307.6H911.68V459.07h194.81Z" transform="translate(-661.17 -344.64)"/><rect class="cls-3" x="250.52" y="114.43" width="61.37" height="207.8"/><rect class="cls-3" x="502.08" y="14.63" width="61.37" height="308.33"/><text class="cls-4" transform="translate(294.22 53.63)">第一关<tspan x="-40.99" y="40.99">制作温度计</tspan></text><path class="cls-5" d="M821.9,430.47c11.4-1.15,22.74-2.76,34.3-1.45,25.51,2.9,47.31,13.37,65.72,31.15,2.08,2,2.33,3.25-.67,4.55-4.09,1.77-8,3.88-12,5.85-3.27.94-6.14-.3-9-1.66-12.9-6.12-26.1-11.61-38.66-18.43-3.68-1.45-1.82,1.28-1.53,2.24,2.14,7,4.4,14,6.63,21.06-.11,3-1.85,1.61-3.08,1.05-9.25-4.18-17.86-9.51-26.46-14.82-2-1.21-3.93-2.49-5.89-3.75l-6.92-4.06c2.47,6.57,4.56,12.11,6.82,18.09-6.5.25-12.33-1.5-18.27-2-4.87-1.69-8.05-5.58-11.66-8.9s-7.4-6.26-10.88-9.66c-4.9-4.79-6.75-4.45-10.93,1.29-3.32,4.75-6,9.9-9.37,14.64-1.22,1.74-2.28,3.61-4.34,4.54-2.1,3.47-4.26,6.91-6.29,10.42-1.92,3.31-3.7,6.71-6,11-2.91-8-5.46-14.93-8-21.9-2.52-1.14-1.45,1.17-1.56,1.84-1,6.19-2.62,12.22-4.07,18.29a12.16,12.16,0,0,1-3.43,6.63c-11.35,6.08-11.33,6.08-15.76-5.79-1.9-5.08-3.84-10.16-5.89-15.19-.17-.42-.83-3.63-2.09-.37a96,96,0,0,1-10.44,22.34c-9,6.63-17.83,3.57-26.77-.33-3.37-1.48-1.59-3.27-.79-5,9.77-21.33,26-35.65,47.7-44.09,13.94-5.42,28.47-7.68,43.46-9-6.26-1.84-12.49-3.79-18.79-5.47-3.42-.91-4.43-2.2-2.62-5.66,2.52-4.83,4.61-9.89,6.68-14.93.58-1.41,2.42-2.87.68-4.7-10.88.61-21.66.36-32-3.6-1.14-1.38-1.18-3-1.2-4.71-1.35-2.69,0-4.44,2.08-5.93,5.23-3.77,10.6-7.28,15-8.78-5.12,2.54-12.23,4.95-19.22,7.68A20.58,20.58,0,0,1,703.25,394a124.25,124.25,0,0,1-27-7.31,6,6,0,0,1-3.8-4c-3.36-9.56-6.94-19-10.63-28.47-1.11-2.83-1-4.41,2.44-4.81,23.9-2.78,47.56-2.65,70.44,6.06C762,365.9,779.58,385.68,789,413.1c.87,2.56,1.67,5.14,2.8,8.63,2.2-8,4-15.16,6.14-22.23A124.32,124.32,0,0,1,806,378.83c5.69-11.35,12.86-21.5,23.95-28.2,11.58-7,23.93-7.27,36.73-3.86,3,.79,2.79,2.11,2,4.12-2.1,5-4.27,10-6.41,15-7,5-15.79,5.05-23.11,8.78,4.12.06,8.45-.12,12.77.07,2.25.11,4.82-.21,5.9,2.65.58,6.46-2.9,11.61-6,16.64-2.25,3.69-6.36,1.41-9.71,1.11-5.18-1.09-10.32-2.44-15.6-2.94-2.35.41-2.32,2.51-2.62,4.1-1.31,6.9-3.27,13.68-4.19,20.66-4.18,8.43-13,12.13-18.18,18.42C807.81,434.25,814.12,429.43,821.9,430.47Z" transform="translate(-661.17 -344.64)"/><path class="cls-6" d="M765.66,470.18q6.4-9.92,12.79-19.83c1.4,7.87,9.83,9.38,13.62,15.09.47,4.84,3.43,8.7,5.13,13.05,0,14.28,2.48,28.34,4,42.47,2.66,23.79,5.77,47.54,9.08,71.26,2.37,17,5.37,33.83,8.08,50.75-2.9,4.53-4.42,10.24-10.39,12.17-8.22.07-16.2-3.06-24.51-1.71-3.26.53-6.58,1.38-9.75-.44-3.3-7.11-1.86-14.49-1-21.77.31-2.6,2.85-3.52,5.33-3.82,2.91-.36,5.84-.1,8.76-.3-1.44.11-2.88,0-4.32,0-9-.08-10.46-1.79-9.67-10.91.66-7.81.15-15.64.29-23.45.17-9.46,2.56-12,11.87-12.62-9.33-.25-10.41-1.47-10.74-10.51-.26-7.08,1.25-14,1.38-21,.1-5.47,3.92-6.63,8.49-6.59-6.42-.15-7.69-1-7.34-7.2.66-11.69,1.75-23.36,3.39-35,.48-3.37,1.95-5.93,6-6.19-1.49-.91-3.8-1.39-3.77-3.16.09-6-4.35-7.57-8.5-9.6a6.78,6.78,0,0,1-1.31-1.16C771.47,475.68,771.53,470.78,765.66,470.18Z" transform="translate(-661.17 -344.64)"/><path class="cls-7" d="M772.59,479.72c3.37.85,6.74,1.69,10.11,2.56a1.64,1.64,0,0,1,1.29,2.23c-3,7.86,2.53,7.81,7.58,8.25a2.7,2.7,0,0,1,1,.44c.14.08.2.29.29.44,0,1.07-.8,1.22-1.56,1.28-8.85.76-9.17.71-10.31,9.72-1.22,9.64-1.61,19.38-2.66,29-.6,5.57,1.21,8,7,7.2,1.66-.23,3.53-.49,5.47.84-1.94,2.55-4.63,1.21-6.84,1.41-4.43.39-7.22,1.61-6.86,7.08.5,7.58-1.59,15.09-1.17,22.75.23,4,1.61,5.81,5.62,5.45,3.57-.32,6.91.59,10.8,2-2.87,2.56-5.86,1.4-8.5,1.5-7,.26-8.75,2.08-9,9.2-.36,9.74,1,19.51-.92,29.24-.59,3,1.13,5.2,4.77,5.11,3.91-.1,7.83,0,11.74.05,1.14,0,2.5.36,2.3,1.94-.15,1.12-1.29,1.42-2.28,1.44-3.52.06-7.06.25-10.56,0-4.49-.31-6.48,1.29-6.25,6,.29,5.86.08,11.74.08,17.61a4.38,4.38,0,0,1-2.42,2.36c-7.58,3.6-9.94,2.19-9.91-6a36.62,36.62,0,0,1,.19-6.37c.23-34.76,1.18-69.51,3.9-104.18C767.06,518.71,768.7,499.07,772.59,479.72Z" transform="translate(-661.17 -344.64)"/><path class="cls-8" d="M761.61,642.51a22.2,22.2,0,0,1,.29,2.28c.24,11.94.24,11.94,11.85,7.71,11.78-1.85,23.46-.73,35.11,1.19,2,.47,3.14,1.66,4,3.66,4.17,9.31,10.28,11,18.45,5.29a9.48,9.48,0,0,1,4.72-2.14c2.55-.06,4.9.42,6.62,2.52,4.63,3,10.13,3.9,15,6.28,1.1.54,3,.58,2.8,2.47-.28,2.24-2.25,1.67-3.71,1.79-1,.07-2,0-2.93,0H723c-.79,0-1.57,0-2.35,0-1.71-.08-4.14.54-4.64-1.47-.58-2.31,2.17-2.47,3.59-3,11.37-4,22.67-8.4,34.29-11.57,5.58-1.52,8-3.56,7.24-9.3C760.92,646.4,760.56,644.34,761.61,642.51Z" transform="translate(-661.17 -344.64)"/><path class="cls-9" d="M836.05,661.51c-1.86.3-2.95,1.72-4.26,2.87-7.36,6.44-18.32,3-20.36-6.48a6.49,6.49,0,0,0-2.57-4.21c4-2.87,4.8-8.54,9.55-10.72,7.58-1,14,.43,17.64,8.08C838.5,654.54,837.51,658,836.05,661.51Z" transform="translate(-661.17 -344.64)"/><path class="cls-10" d="M861.54,450.48c7.37.75,13.26,5.28,19.83,8,9.31,3.9,18.14,9,27.83,12.05-3.88,2.17-7.91,4.12-11.61,6.57-4,2.65-7,2.34-10.45-1.18C878.77,467.32,870.09,459,861.54,450.48Z" transform="translate(-661.17 -344.64)"/><path class="cls-11" d="M797.2,478.49c-4.72-3-6.23-7.44-5.79-12.77,3.32-2.69,7.41-4.23,10.6-7.1l10.83,9.65Q810.79,482.21,797.2,478.49Z" transform="translate(-661.17 -344.64)"/><path class="cls-12" d="M719.61,404.61a282.23,282.23,0,0,1,32,3.6q-12.64,4.95-25.29,9.92c-2.41.95-3.91.91-4.51-2.25C721.13,412.12,719.42,408.56,719.61,404.61Z" transform="translate(-661.17 -344.64)"/><path class="cls-13" d="M858.13,377.44a7.09,7.09,0,0,0-.91.12c-4.54-2.54-9.45-.75-14.17-1.17-3.15-.27-6.35-.05-9.62-.8a145.17,145.17,0,0,1,28.75-9.67Z" transform="translate(-661.17 -344.64)"/><path class="cls-14" d="M703.25,394c9,.39,16.34-4.78,24.53-7.09,3.27-.92,6.43-2.23,10.07-2.39-5.21,3.34-10.45,6.63-15.61,10-1.91,1.26-4.16,2.41-3.83,5.33-2-3.66-6-2.82-9.13-4C707.29,395.06,704.88,395.78,703.25,394Z" transform="translate(-661.17 -344.64)"/><path class="cls-15" d="M831.21,456.26c11.06,4.62,21,11.25,31.54,16.93,1.26.68,2.27,2.48,3.89.59,1.05,1.43.45,2.3-1.08,2-5.45-.94-11.09-.95-15.71-5C843.93,465.62,836.76,462,831.21,456.26Z" transform="translate(-661.17 -344.64)"/><path class="cls-16" d="M736.27,496.44q3.45-13.1,6.92-26.17c.35-1.33.68-3.11,2.14-.59-2,4.87-1.14,10-.62,14.87C745.44,491.44,743,495.25,736.27,496.44Z" transform="translate(-661.17 -344.64)"/><path class="cls-17" d="M702.09,497.43c1.58-8.34,6.73-15,10.44-22.34-1,5.83-2.06,11.65-3,17.49C708.78,496.93,705.16,496.72,702.09,497.43Z" transform="translate(-661.17 -344.64)"/><path class="cls-18" d="M836.05,661.51V651.05c7.55,1.19,9.61,4.89,6.63,12Z" transform="translate(-661.17 -344.64)"/><path class="cls-9" d="M802,458.62c-1.61,5.24-6.08,6.21-10.6,7.1-2.95-1.67-5-4.37-8.66-5.45-4.14-1.22-4.17-6-4.3-9.92,4-7.48,6.28-7.85,12.57-2Q796.53,453.46,802,458.62Z" transform="translate(-661.17 -344.64)"/><path class="cls-16" d="M825.38,390.27c-1.45,6.43,2,11.94,3.39,17.84-2.55,4.15-6.31,7-10.27,9.64,0-9.49,3.8-18.29,5-27.57C823.59,389.46,824.75,389.63,825.38,390.27Z" transform="translate(-661.17 -344.64)"/></svg>