<svg id="图层_3" data-name="图层 3" xmlns="http://www.w3.org/2000/svg" xmlns:xlink="http://www.w3.org/1999/xlink" viewBox="0 0 607.51 479.72"><defs><style>.cls-1{fill:#f95428;}.cls-2{fill:#666;}.cls-3{font-size:18px;fill:#fff;font-family:MicrosoftYaHei-Bold, Microsoft YaHei;font-weight:700;letter-spacing:0.1em;}.cls-4{fill:#b19046;}.cls-5{fill:#cc4b4c;}.cls-6{fill:#ecf0f1;}.cls-7{fill:#fcdac8;}.cls-8{fill:#2c2f38;}.cls-9{fill:#e6e7e8;}.cls-10{fill:#8cc152;}.cls-11{fill:#a0d468;}.cls-12{fill:url(#未命名的渐变_24);}.cls-13{fill:#e6e6e6;}.cls-14{fill:#ccc;}.cls-15{fill:url(#未命名的渐变_24-2);}.cls-16{fill:url(#未命名的渐变_24-3);}</style><linearGradient id="未命名的渐变_24" x1="782.22" y1="718.67" x2="782.22" y2="706.22" gradientUnits="userSpaceOnUse"><stop offset="0" stop-color="#fcdac8"/><stop offset="1" stop-color="#fcb282"/></linearGradient><linearGradient id="未命名的渐变_24-2" x1="1130.54" y1="695.38" x2="1130.54" y2="677.67" xlink:href="#未命名的渐变_24"/><linearGradient id="未命名的渐变_24-3" x1="693.85" y1="732.3" x2="693.85" y2="715.48" xlink:href="#未命名的渐变_24"/></defs><title>19</title><path class="cls-1" d="M1067.78,442V369.9c-24.69,0-44.7-11.67-44.7-26.07H852.36c0,14.4-20,26.07-44.7,26.07V442c24.69,0,44.7,11.67,44.7,26.07h170.72C1023.08,453.71,1043.09,442,1067.78,442Z" transform="translate(-639.26 -269.06)"/><path class="cls-2" d="M898.72,369.4a4.59,4.59,0,0,1-4.59-4.58V273.64a4.59,4.59,0,0,1,9.18,0v91.18A4.59,4.59,0,0,1,898.72,369.4Z" transform="translate(-639.26 -269.06)"/><path class="cls-2" d="M976.85,369.4a4.58,4.58,0,0,1-4.58-4.58V273.64a4.59,4.59,0,0,1,9.17,0v91.18A4.58,4.58,0,0,1,976.85,369.4Z" transform="translate(-639.26 -269.06)"/><text class="cls-3" transform="translate(186.85 134.6)">太棒了！你闯过了第二关！<tspan x="19.8" y="21.6">你拥有了温度警示器！</tspan></text><g id="Page-1"><g id="_014---Finish-Line" data-name="014---Finish-Line"><path id="Shape" class="cls-4" d="M855.69,725.34a3.91,3.91,0,0,1-3.86-3.33c-1.37-9.12-6-40.3-11-74.71L834,600.91a3.9,3.9,0,0,1,7.72-1.14l6.83,46.4c5.08,34.39,9.65,65.56,11,74.68a3.88,3.88,0,0,1-.71,2.9,3.93,3.93,0,0,1-2.57,1.55A3.69,3.69,0,0,1,855.69,725.34Z" transform="translate(-639.26 -269.06)"/><path id="Shape-2" data-name="Shape" class="cls-4" d="M1019.75,725.34a3.9,3.9,0,0,1-.59,0,3.92,3.92,0,0,1-3.28-4.45c1.36-8.92,5.79-39.14,10.74-72.86l7.08-48.22a3.9,3.9,0,0,1,7.72,1.14l-7.07,48.21c-4.95,33.74-9.38,64-10.73,72.9A3.91,3.91,0,0,1,1019.75,725.34Z" transform="translate(-639.26 -269.06)"/><path id="Shape-3" data-name="Shape" class="cls-5" d="M1051,536.08c-.27,1.76-.62,4.22-1.09,7.31q-4.33,28.47-8.63,57a4.65,4.65,0,0,1-5.24,3.87,687.11,687.11,0,0,0-196.56,0,4.64,4.64,0,0,1-5.23-3.87c-2.89-19-5.78-38.12-8.67-57.15-.08-.43-.12-.9-.2-1.33-.12-.78-.23-1.6-.35-2.38,0-.35-.12-.7-.16-1.05v-.12c-.11-.86-.23-1.6-.35-2.23a4.69,4.69,0,0,1,3.95-5.31,761.66,761.66,0,0,1,218.59,0A4.68,4.68,0,0,1,1051,536.08Z" transform="translate(-639.26 -269.06)"/><path id="Shape-4" data-name="Shape" class="cls-5" d="M825.34,541.86c-.12-.82-.23-1.64-.35-2.38" transform="translate(-639.26 -269.06)"/><path id="Shape-5" data-name="Shape" class="cls-6" d="M860.82,586.67a3.92,3.92,0,0,1-3.88-3.48l-3.54-32.28a8.3,8.3,0,0,1,1.83-6.15,9.17,9.17,0,0,1,6.19-3.31c3.39-.35,6.77-.68,10.16-1a3.91,3.91,0,0,1,.69,7.79q-5,.45-10,1a1.33,1.33,0,0,0-.91.45.52.52,0,0,0-.14.39l3.54,32.3a3.91,3.91,0,0,1-3.46,4.3Z" transform="translate(-639.26 -269.06)"/><path id="Shape-6" data-name="Shape" class="cls-6" d="M863.72,567.7a3.9,3.9,0,0,1-.4-7.79c3.3-.33,6.6-.65,9.9-.94a3.91,3.91,0,1,1,.69,7.78q-4.9.43-9.79.93A1.82,1.82,0,0,1,863.72,567.7Z" transform="translate(-639.26 -269.06)"/><path id="Shape-7" data-name="Shape" class="cls-6" d="M889.61,584.12a3.91,3.91,0,0,1-3.9-3.64l-2.52-37a3.91,3.91,0,0,1,7.81-.54L893.53,580a3.9,3.9,0,0,1-3.63,4.16Z" transform="translate(-639.26 -269.06)"/><path id="Shape-8" data-name="Shape" class="cls-6" d="M947.35,582.54h-.05a3.91,3.91,0,0,1-3.86-4l.51-37.11a4,4,0,0,1,4-3.85,3.92,3.92,0,0,1,2.75,1.19,3.87,3.87,0,0,1,1.1,2.77l-.51,37.11A3.9,3.9,0,0,1,947.35,582.54Z" transform="translate(-639.26 -269.06)"/><path id="Shape-9" data-name="Shape" class="cls-6" d="M908.85,583.07a3.91,3.91,0,0,1-3.91-3.75l-1.52-37.11a3.91,3.91,0,0,1,7.26-2.17c4.53,7.55,9,15.23,13.28,22.93l-.3-21.42a3.91,3.91,0,0,1,3.85-4h.06a3.91,3.91,0,0,1,3.91,3.85l.5,37.11a3.91,3.91,0,0,1-7.35,1.9c-4.11-7.68-8.39-15.37-12.78-23l.88,21.51A3.91,3.91,0,0,1,909,583Z" transform="translate(-639.26 -269.06)"/><path id="Shape-10" data-name="Shape" class="cls-6" d="M972.3,564.74h-.2a14,14,0,0,1-9.48-4.24,12.63,12.63,0,0,1,.82-18.8,14.08,14.08,0,0,1,9.93-3.32A13.89,13.89,0,0,1,985.3,546a3.91,3.91,0,0,1-3.79,5.62,3.88,3.88,0,0,1-3.24-2.18,6.2,6.2,0,0,0-5.29-3.21,6.42,6.42,0,0,0-4.49,1.47,4.91,4.91,0,0,0-1.87,3.62,5,5,0,0,0,1.57,3.75,6.34,6.34,0,0,0,4.3,1.92,3.91,3.91,0,0,1-.19,7.81Z" transform="translate(-639.26 -269.06)"/><path id="Shape-11" data-name="Shape" class="cls-6" d="M971.9,583.29h-.68a13.64,13.64,0,0,1-11.59-7.42,3.9,3.9,0,0,1,7-3.51,5.93,5.93,0,0,0,5,3.12,5.71,5.71,0,0,0,4.17-1.41,5.15,5.15,0,0,0,1.93-3.67,5,5,0,0,0-1.31-3.67,6.16,6.16,0,0,0-4.28-2,3.91,3.91,0,1,1,.39-7.81,14,14,0,0,1,9.73,4.59A12.79,12.79,0,0,1,980.86,580,13.49,13.49,0,0,1,971.9,583.29Z" transform="translate(-639.26 -269.06)"/><path id="Shape-12" data-name="Shape" class="cls-6" d="M995.44,584.84h-.32a3.92,3.92,0,0,1-3.58-4.21l3-37a3.89,3.89,0,0,1,2.21-3.27,3.91,3.91,0,0,1,5.57,3.91l-3,37A3.91,3.91,0,0,1,995.44,584.84Z" transform="translate(-639.26 -269.06)"/><path id="Shape-13" data-name="Shape" class="cls-6" d="M1014.62,586.67l-.43,0a3.9,3.9,0,0,1-3.45-4.3l4-36.91a3.91,3.91,0,0,1,7.77.85l-4,36.91A3.91,3.91,0,0,1,1014.62,586.67Z" transform="translate(-639.26 -269.06)"/><path id="Shape-14" data-name="Shape" class="cls-6" d="M1016.65,568.23a3.11,3.11,0,0,1-.43,0c-6.52-.71-13.11-1.34-19.58-1.87a3.91,3.91,0,0,1,.63-7.79c6.55.54,13.21,1.17,19.8,1.9a3.91,3.91,0,0,1-.42,7.79Z" transform="translate(-639.26 -269.06)"/><path id="Shape-15" data-name="Shape" class="cls-7" d="M1047.1,748.78H828.35a3.91,3.91,0,0,1-2.66-6.76L850,721.43l18.43-15.62L884.75,692a8,8,0,0,1,5-1.84h95.86a7.93,7.93,0,0,1,5,1.84L1007,705.81l18.44,15.62L1049.75,742a3.91,3.91,0,0,1-2.65,6.76Z" transform="translate(-639.26 -269.06)"/><path id="Shape-16" data-name="Shape" class="cls-8" d="M907.72,690.18l-10.39,15.63H868.46L884.75,692a8,8,0,0,1,5-1.84Z" transform="translate(-639.26 -269.06)"/><path id="Shape-17" data-name="Shape" class="cls-8" d="M1007,705.81H978.11l-10.39-15.63h17.93a7.93,7.93,0,0,1,5,1.84Z" transform="translate(-639.26 -269.06)"/><polygon id="Shape-18" data-name="Shape" class="cls-9" points="386.15 452.38 349.24 452.38 338.85 436.75 367.72 436.75 386.15 452.38"/><polygon id="Shape-19" data-name="Shape" class="cls-9" points="258.07 436.75 247.68 452.38 210.77 452.38 229.2 436.75 258.07 436.75"/><polygon id="Shape-20" data-name="Shape" class="cls-9" points="289.24 421.13 286.04 436.75 258.07 436.75 268.46 421.13 289.24 421.13"/><polygon id="Shape-21" data-name="Shape" class="cls-9" points="338.85 436.75 310.88 436.75 307.68 421.13 328.46 421.13 338.85 436.75"/><polygon id="Shape-22" data-name="Shape" class="cls-8" points="286.04 436.75 282.83 452.38 247.68 452.38 258.07 436.75 286.04 436.75"/><polygon id="Shape-23" data-name="Shape" class="cls-8" points="310.88 436.75 286.04 436.75 289.24 421.13 307.68 421.13 310.88 436.75"/><polygon id="Shape-24" data-name="Shape" class="cls-9" points="314.08 452.38 282.83 452.38 286.04 436.75 310.88 436.75 314.08 452.38"/><polygon id="Shape-25" data-name="Shape" class="cls-8" points="349.24 452.38 314.08 452.38 310.88 436.75 338.85 436.75 349.24 452.38"/></g></g><path class="cls-10" d="M807,583.43c-4.56,0-8.25,4.52-8.25,10.11V634c0,5.59-3.69,10.12-8.25,10.12h-8.25c-4.56,0-8.24,4.52-8.24,10.11s3.68,10.12,8.24,10.12h8.25c13.65,0,24.75-13.62,24.75-30.35V593.54C815.22,588,811.54,583.43,807,583.43Z" transform="translate(-639.26 -269.06)"/><path class="cls-10" d="M790.47,634c0-5.59-3.68-10.11-8.25-10.11H774c-4.56,0-8.25-4.53-8.25-10.12V593.54c0-5.59-3.69-10.11-8.25-10.11s-8.25,4.52-8.25,10.11v20.23c0,16.73,11.1,30.35,24.75,30.35h8.24C786.79,644.12,790.47,639.6,790.47,634Z" transform="translate(-639.26 -269.06)"/><path class="cls-11" d="M782.22,714.92c-4.56,0-8.24-4.52-8.24-10.11V573.31c0-5.59,3.68-10.11,8.24-10.11s8.25,4.52,8.25,10.11v131.5C790.47,710.4,786.79,714.92,782.22,714.92Z" transform="translate(-639.26 -269.06)"/><path class="cls-12" d="M751.29,718.67s11.41-11.34,16.37-12.19,11.91,5.88,15.75,5.92,7.19-7.69,10.06-5.92l19.69,12.19Z" transform="translate(-639.26 -269.06)"/><path class="cls-13" d="M675.51,725.2l4.68-19,13.66-3.34,9.94-17.09,34.63-9.14L760.72,693,771,713V725.2Z" transform="translate(-639.26 -269.06)"/><path class="cls-13" d="M771,713V725.2H725.86V680l12.56-3.32L760.73,693Z" transform="translate(-639.26 -269.06)"/><path class="cls-14" d="M703.79,685.77v30.84l-9.94-13.75Z" transform="translate(-639.26 -269.06)"/><path class="cls-14" d="M738.42,676.63,753.51,704l7.21-11Z" transform="translate(-639.26 -269.06)"/><path class="cls-14" d="M680.19,706.2l7.34,19h-12Z" transform="translate(-639.26 -269.06)"/><path class="cls-14" d="M771,713,759,725.2h12Z" transform="translate(-639.26 -269.06)"/><path class="cls-10" d="M1165.73,503.08c-6.49,0-11.73,6.43-11.73,14.38V575c0,7.94-5.26,14.38-11.73,14.38h-11.73c-6.49,0-11.73,6.44-11.73,14.39s5.24,14.38,11.73,14.38h11.73c19.4,0,35.19-19.36,35.19-43.15V517.46C1177.46,509.51,1172.22,503.08,1165.73,503.08Z" transform="translate(-639.26 -269.06)"/><path class="cls-10" d="M1142.27,575c0-8-5.24-14.38-11.73-14.38h-11.73c-6.47,0-11.73-6.44-11.73-14.38V517.46c0-8-5.24-14.38-11.73-14.38s-11.73,6.43-11.73,14.38v28.77c0,23.78,15.79,43.14,35.19,43.14h11.73C1137,589.37,1142.27,583,1142.27,575Z" transform="translate(-639.26 -269.06)"/><path class="cls-11" d="M1130.54,690.05c-6.49,0-11.73-6.43-11.73-14.38v-187c0-7.95,5.24-14.39,11.73-14.39s11.73,6.44,11.73,14.39v187C1142.27,683.62,1137,690.05,1130.54,690.05Z" transform="translate(-639.26 -269.06)"/><path class="cls-15" d="M1086.56,695.38s16.22-16.13,23.27-17.33,16.93,8.35,22.39,8.41,10.23-10.94,14.31-8.41l28,17.33Z" transform="translate(-639.26 -269.06)"/><path class="cls-13" d="M1118.81,717.17l6.27-31.72,18.3-5.58,13.33-28.52,46.4-15.26L1233,663.41l13.77,33.36v20.4Z" transform="translate(-639.26 -269.06)"/><path class="cls-13" d="M1246.78,696.77v20.4h-60.5V641.62l16.83-5.53L1233,663.41Z" transform="translate(-639.26 -269.06)"/><path class="cls-14" d="M1156.71,651.35v51.48l-13.33-23Z" transform="translate(-639.26 -269.06)"/><path class="cls-14" d="M1203.11,636.09l20.21,45.62,9.68-18.3Z" transform="translate(-639.26 -269.06)"/><path class="cls-14" d="M1125.08,685.45l9.84,31.72h-16.11Z" transform="translate(-639.26 -269.06)"/><path class="cls-14" d="M1246.77,696.77l-16.07,20.4h16.07Z" transform="translate(-639.26 -269.06)"/><path class="cls-10" d="M734.79,549.68a13.64,13.64,0,0,0-13.65,13.66V618a13.66,13.66,0,0,1-13.65,13.66H693.85a13.66,13.66,0,0,0,0,27.32h13.64a41,41,0,0,0,40.94-41V563.34A13.64,13.64,0,0,0,734.79,549.68Z" transform="translate(-639.26 -269.06)"/><path class="cls-10" d="M707.49,618a13.63,13.63,0,0,0-13.64-13.65H680.2a13.66,13.66,0,0,1-13.65-13.66V563.34a13.65,13.65,0,1,0-27.29,0v27.32a41,41,0,0,0,40.94,41h13.65A13.63,13.63,0,0,0,707.49,618Z" transform="translate(-639.26 -269.06)"/><path class="cls-11" d="M693.85,727.24a13.64,13.64,0,0,1-13.65-13.66V536a13.65,13.65,0,1,1,27.29,0V713.58A13.63,13.63,0,0,1,693.85,727.24Z" transform="translate(-639.26 -269.06)"/><path class="cls-16" d="M642.68,732.3s18.86-15.32,27.07-16.46,19.7,7.93,26,8,11.9-10.39,16.64-8L745,732.3Z" transform="translate(-639.26 -269.06)"/></svg>