<svg id="图层_3" data-name="图层 3" xmlns="http://www.w3.org/2000/svg" viewBox="0 0 269.53 426.14"><defs><style>.cls-1{fill:#fcdac8;}.cls-2{fill:#b39a7c;}.cls-3{fill:#ed5564;}.cls-4,.cls-7{fill:#fff;}.cls-5{fill:#f95428;}.cls-6{fill:#666;}.cls-7{font-size:18px;font-family:MicrosoftYaHei-Bold, Microsoft YaHei;font-weight:700;letter-spacing:0.1em;}.cls-8{fill:#0fa4bc;}.cls-9{fill:#40bac6;}.cls-10{fill:#4ed1d1;}</style></defs><title>11</title><path class="cls-1" d="M948.16,719.77c-4.13,0-12.34,2.41-21.51,2.1-7-.24-14.47-2.67-21.29-3.47C895.8,717.27,887,717,884.28,714s22.54-13.23,17.91-16.87,6.44-9.29,6.44-14.64c0-13,.36-13,.36-26s-1.65-13-1.65-26,2.2-13,2.2-26-1-13-1-26.05c0-7.09,3.44-13,6.83-18.74s7.12-11.72,13.1-15.09c5.75-3.25,12.58-5.94,19.7-5.94a41.87,41.87,0,0,1,20.09,5.24c6,3.37,10.83,9,14.3,14.84,3.39,5.71,3.52,12.6,3.52,19.69,0,13,2.41,13,2.41,26s-1.09,13-1.09,26,.44,13,.44,26,.8,13,.8,26.05c0,8.64,15.94,16.91,11.07,23.34-3.1,4.1,22.83,7.38,18.35,10-2.22,1.3-11.86,1.42-23.22,2.27-7.5.57-15.81.57-23.35.92C960.31,719.51,950.88,719.77,948.16,719.77Z" transform="translate(-808.4 -295.75)"/><path class="cls-2" d="M969.79,571.1h-16a2.78,2.78,0,1,1,0-5.56h16a2.78,2.78,0,1,1,0,5.56Z" transform="translate(-808.4 -295.75)"/><path class="cls-2" d="M969.79,660h-16a2.78,2.78,0,1,1,0-5.56h16a2.78,2.78,0,1,1,0,5.56Z" transform="translate(-808.4 -295.75)"/><path class="cls-2" d="M969.79,645.17h-16a2.78,2.78,0,1,1,0-5.55h16a2.78,2.78,0,1,1,0,5.55Z" transform="translate(-808.4 -295.75)"/><path class="cls-2" d="M969.79,630.36h-16a2.78,2.78,0,1,1,0-5.56h16a2.78,2.78,0,1,1,0,5.56Z" transform="translate(-808.4 -295.75)"/><path class="cls-2" d="M969.79,615.54h-16a2.78,2.78,0,1,1,0-5.55h16a2.78,2.78,0,1,1,0,5.55Z" transform="translate(-808.4 -295.75)"/><path class="cls-2" d="M969.79,600.73h-16a2.78,2.78,0,1,1,0-5.56h16a2.78,2.78,0,1,1,0,5.56Z" transform="translate(-808.4 -295.75)"/><path class="cls-2" d="M969.79,585.91h-16a2.78,2.78,0,1,1,0-5.55h16a2.78,2.78,0,1,1,0,5.55Z" transform="translate(-808.4 -295.75)"/><path class="cls-2" d="M942.5,571.1h-16a2.78,2.78,0,1,1,0-5.56h16a2.78,2.78,0,1,1,0,5.56Z" transform="translate(-808.4 -295.75)"/><path class="cls-2" d="M942.5,660h-16a2.78,2.78,0,1,1,0-5.56h16a2.78,2.78,0,1,1,0,5.56Z" transform="translate(-808.4 -295.75)"/><path class="cls-2" d="M942.5,637.77h-16a2.78,2.78,0,1,1,0-5.56h16a2.78,2.78,0,1,1,0,5.56Z" transform="translate(-808.4 -295.75)"/><path class="cls-2" d="M942.5,615.54h-16a2.78,2.78,0,1,1,0-5.55h16a2.78,2.78,0,1,1,0,5.55Z" transform="translate(-808.4 -295.75)"/><path class="cls-2" d="M942.5,593.32h-16a2.78,2.78,0,1,1,0-5.56h16a2.78,2.78,0,1,1,0,5.56Z" transform="translate(-808.4 -295.75)"/><path class="cls-3" d="M963.42,683.68a15.27,15.27,0,1,1-20.92-13.94V561.44a5.66,5.66,0,0,1,11.31,0v108.3A15,15,0,0,1,963.42,683.68Z" transform="translate(-808.4 -295.75)"/><path class="cls-4" d="M953.81,561.44V621.1H942.5V561.44a5.66,5.66,0,0,1,11.31,0Z" transform="translate(-808.4 -295.75)"/><path class="cls-5" d="M1077.93,468.74V396.59c-24.69,0-44.7-11.67-44.7-26.07H862.51c0,14.4-20,26.07-44.69,26.07v72.15c24.68,0,44.69,11.67,44.69,26.06h170.72C1033.23,480.41,1053.24,468.74,1077.93,468.74Z" transform="translate(-808.4 -295.75)"/><path class="cls-6" d="M908.87,396.1a4.6,4.6,0,0,1-4.59-4.59V300.34a4.59,4.59,0,0,1,9.18,0v91.17A4.6,4.6,0,0,1,908.87,396.1Z" transform="translate(-808.4 -295.75)"/><path class="cls-6" d="M987,396.1a4.59,4.59,0,0,1-4.58-4.59V300.34a4.59,4.59,0,1,1,9.17,0v91.17A4.59,4.59,0,0,1,987,396.1Z" transform="translate(-808.4 -295.75)"/><text class="cls-7" transform="translate(47.67 127.93)">恭喜你闯过了第一关！<tspan x="-9.9" y="21.6">帮麦克获得一支温度计！</tspan></text><polygon class="cls-8" points="56.36 404.53 53.1 405.61 38.88 362.15 42.14 361.07 56.36 404.53"/><polyline class="cls-9" points="45.3 331.12 44.65 338.67 39.18 342.28 43.91 343.21 43.55 349.55 39.74 349.74 43.2 354.05 39.44 364.59"/><path class="cls-9" d="M847.39,659.81s-14.65-19.19,6.31-32.94" transform="translate(-808.4 -295.75)"/><path class="cls-9" d="M847.72,655.58s5.91-18.71,24.69-11l-5.29,3.06-4.92-2,1.57,3.61-4.35,2.68-1.89-2.46-1.25,4.31-8.71,2.35" transform="translate(-808.4 -295.75)"/><path class="cls-9" d="M850.12,657.43s-12.1-17.39-29-3.31l6.45,1.43,4.43-3.67-.46,4.24,5.35,1.35,1.16-3.16,2.67,4.05,9.75-.41" transform="translate(-808.4 -295.75)"/><polygon class="cls-8" points="49.28 405.84 46.4 407.71 24.86 374.01 27.75 372.14 49.28 405.84"/><path class="cls-10" d="M836.12,670.62s-5.22-22.27-27.72-15l5.88,4,5.89-1.89L818,661.83l4.82,3.51,2.41-2.7,1.07,5.12,9.91,3.51" transform="translate(-808.4 -295.75)"/><path class="cls-10" d="M833.54,671.94s2.59-22.74,25.78-18.17l-5.37,4.7-6.07-1.18,2.6,3.77-4.38,4.05-2.71-2.39-.46,5.22-9.43,4.66" transform="translate(-808.4 -295.75)"/><path class="cls-10" d="M835.93,670.55s-22.29-4.36-24.95,19.31l6.06-3.75.71-6.19,2.79,3.64,5.15-3-1.45-3.32,5.08,1.12,7.25-7.66" transform="translate(-808.4 -295.75)"/><path class="cls-1" d="M819.25,718h52.89V699.77S842.1,694.1,819.25,718Z" transform="translate(-808.4 -295.75)"/><polygon class="cls-8" points="68.14 404.06 71.39 405.14 85.61 361.68 82.35 360.6 68.14 404.06"/><polyline class="cls-9" points="79.19 330.65 79.84 338.2 85.31 341.81 80.59 342.75 80.95 349.08 84.75 349.27 81.29 353.58 85.05 364.12"/><path class="cls-9" d="M893.9,659.34s14.65-19.19-6.31-32.94" transform="translate(-808.4 -295.75)"/><path class="cls-9" d="M893.58,655.11s-5.91-18.71-24.69-11l5.29,3.06,4.92-2-1.57,3.61,4.35,2.68,1.89-2.47,1.24,4.32,8.71,2.35" transform="translate(-808.4 -295.75)"/><path class="cls-9" d="M891.18,657s12.1-17.39,29-3.31l-6.44,1.43-4.44-3.67.47,4.23L904.42,657l-1.15-3.16-2.68,4-9.74-.41" transform="translate(-808.4 -295.75)"/><polygon class="cls-8" points="75.22 405.37 78.1 407.24 99.63 373.54 96.75 371.67 75.22 405.37"/><path class="cls-10" d="M905.18,670.15s5.22-22.27,27.71-15l-5.87,4-5.89-1.89,2.14,4.05-4.82,3.51-2.41-2.7L915,667.29l-9.91,3.51" transform="translate(-808.4 -295.75)"/><path class="cls-10" d="M907.75,671.47S905.17,648.73,882,653.3l5.36,4.7,6.07-1.18-2.6,3.76,4.38,4.06,2.71-2.39.46,5.22,9.43,4.66" transform="translate(-808.4 -295.75)"/><path class="cls-10" d="M905.36,670.08s22.29-4.36,24.95,19.31l-6.06-3.75-.71-6.19-2.78,3.63-5.16-3,1.45-3.33L912,677.9l-7.24-7.66" transform="translate(-808.4 -295.75)"/><path class="cls-1" d="M922.05,717.52H869.16V699.3S899.2,693.63,922.05,717.52Z" transform="translate(-808.4 -295.75)"/></svg>