<svg id="图层_3" data-name="图层 3" xmlns="http://www.w3.org/2000/svg" viewBox="0 0 465.93 433"><defs><style>.cls-1{fill:#e6e6e6;}.cls-2{fill:#ccc;}.cls-3{fill:#a5cdff;}.cls-4{fill:#cd916e;}.cls-5{fill:#ffe1a0;}.cls-6{fill:#f7d291;}.cls-7{fill:#f0c382;}.cls-8{fill:#f5b97d;}.cls-9{fill:#d29b6e;}.cls-10{fill:#fcdac8;}.cls-11{fill:#2f84ea;}.cls-12{fill:#ed5a2d;}.cls-13{fill:#212121;stroke:#212121;stroke-miterlimit:10;stroke-width:6px;}.cls-14{font-size:22.77px;fill:#fff;font-family:MicrosoftYaHei-Bold, Microsoft YaHei;font-weight:700;letter-spacing:0.2em;}.cls-15{fill:#4fb363;}.cls-16{fill:#60d978;}</style></defs><title>18</title><path class="cls-1" d="M1175.66,714.93,1172.13,699l-10.3-2.79L1154.34,682l-26.11-7.64L1111.42,688l-7.75,16.7v10.22Z" transform="translate(-709.72 -291.9)"/><path class="cls-1" d="M1103.67,704.71v10.22h34V677.09l-9.48-2.77L1111.42,688Z" transform="translate(-709.72 -291.9)"/><path class="cls-2" d="M1154.34,682v25.79l7.49-11.5Z" transform="translate(-709.72 -291.9)"/><path class="cls-2" d="M1128.23,674.32l-11.36,22.85-5.45-9.16Z" transform="translate(-709.72 -291.9)"/><path class="cls-2" d="M1172.13,699l-5.53,15.89h9.06Z" transform="translate(-709.72 -291.9)"/><path class="cls-2" d="M1103.67,704.71l9,10.22h-9Z" transform="translate(-709.72 -291.9)"/><path class="cls-3" d="M959.47,406.15v38.09l28.35-14.18a5.44,5.44,0,0,0,0-9.73Z" transform="translate(-709.72 -291.9)"/><path class="cls-4" d="M959.47,406.15a5.44,5.44,0,0,0-5.44,5.44V466h10.88V411.59A5.45,5.45,0,0,0,959.47,406.15Z" transform="translate(-709.72 -291.9)"/><path class="cls-5" d="M998.81,513.53A10.88,10.88,0,0,0,988,504.09H930.91a10.88,10.88,0,0,0-10.79,9.44L910.5,585.7v27.21h97.93V585.7Z" transform="translate(-709.72 -291.9)"/><path class="cls-6" d="M930.91,504.09a10.88,10.88,0,0,0-10.79,9.44L910.5,585.7v27.21h23.25l13.58-99.38a10.88,10.88,0,0,1,10.78-9.44Z" transform="translate(-709.72 -291.9)"/><path class="cls-7" d="M1013.88,602V591.14a5.45,5.45,0,0,0-5.45-5.44H997.55a5.45,5.45,0,0,0-5.44,5.44V602a5.44,5.44,0,0,1-5.44,5.44H975.79a5.44,5.44,0,0,1-5.44-5.44V591.14a5.45,5.45,0,0,0-5.44-5.44H954a5.45,5.45,0,0,0-5.45,5.44V602a5.44,5.44,0,0,1-5.44,5.44H932.26a5.45,5.45,0,0,1-5.44-5.44V591.14a5.44,5.44,0,0,0-5.44-5.44H910.5a5.44,5.44,0,0,0-5.44,5.44V602a5.45,5.45,0,0,1-5.44,5.44h-5.44V710.84h130.58V607.47h-5.44A5.44,5.44,0,0,1,1013.88,602Z" transform="translate(-709.72 -291.9)"/><path class="cls-3" d="M1062.84,482.33v38.08l28.36-14.17a5.45,5.45,0,0,0,0-9.74Z" transform="translate(-709.72 -291.9)"/><path class="cls-4" d="M1062.84,482.33a5.44,5.44,0,0,0-5.44,5.44v54.41h10.88V487.77A5.43,5.43,0,0,0,1062.84,482.33Z" transform="translate(-709.72 -291.9)"/><path class="cls-5" d="M1107.27,601a10.89,10.89,0,0,0-10.84-9.9h-67.18a10.89,10.89,0,0,0-10.83,9.9l-10,109.8h108.82Z" transform="translate(-709.72 -291.9)"/><path class="cls-6" d="M1056.46,591.14h-27.21a10.89,10.89,0,0,0-10.83,9.9l-10,109.8h27.21l10-109.8A10.89,10.89,0,0,1,1056.46,591.14Z" transform="translate(-709.72 -291.9)"/><path class="cls-5" d="M1090.12,546.44a10.88,10.88,0,0,0-10.82-9.7h-32.91a10.88,10.88,0,0,0-10.82,9.7l-4.88,44.7H1095Z" transform="translate(-709.72 -291.9)"/><circle class="cls-8" cx="353.12" cy="337.33" r="10.88"/><path class="cls-6" d="M1093.81,580.26H1064.1a10.88,10.88,0,0,1-10.82-12.06l3.43-31.46h-10.32a10.88,10.88,0,0,0-10.82,9.7l-4.88,44.7H1095Z" transform="translate(-709.72 -291.9)"/><path class="cls-3" d="M856.09,482.33v38.08l28.35-14.17a5.45,5.45,0,0,0,0-9.74Z" transform="translate(-709.72 -291.9)"/><path class="cls-4" d="M856.09,482.33a5.43,5.43,0,0,0-5.44,5.44v54.41h10.88V487.77A5.43,5.43,0,0,0,856.09,482.33Z" transform="translate(-709.72 -291.9)"/><path class="cls-5" d="M900.52,601a10.89,10.89,0,0,0-10.84-9.9H822.5a10.89,10.89,0,0,0-10.84,9.9l-10,109.8H910.5Z" transform="translate(-709.72 -291.9)"/><path class="cls-6" d="M849.7,591.14H822.5a10.89,10.89,0,0,0-10.84,9.9l-10,109.8h27.2l10-109.8A10.89,10.89,0,0,1,849.7,591.14Z" transform="translate(-709.72 -291.9)"/><path class="cls-5" d="M883.36,546.44a10.87,10.87,0,0,0-10.81-9.7H839.63a10.87,10.87,0,0,0-10.81,9.7l-4.88,44.7h64.3Z" transform="translate(-709.72 -291.9)"/><path class="cls-5" d="M982.42,470.09a10.88,10.88,0,0,0-10.8-9.53H947.31a10.88,10.88,0,0,0-10.8,9.53l-4.25,34h54.41Z" transform="translate(-709.72 -291.9)"/><path class="cls-9" d="M959.47,645.55a21.77,21.77,0,0,0-21.77,21.77v43.52h43.53V667.32A21.77,21.77,0,0,0,959.47,645.55Z" transform="translate(-709.72 -291.9)"/><circle class="cls-8" cx="146.37" cy="337.33" r="10.88"/><circle class="cls-8" cx="249.74" cy="250.28" r="10.88"/><path class="cls-10" d="M1128.14,716.29H790.8a5.45,5.45,0,0,1,0-10.89h337.34a5.45,5.45,0,0,1,0,10.89Z" transform="translate(-709.72 -291.9)"/><path class="cls-6" d="M887.05,580.26H857.34a10.88,10.88,0,0,1-10.82-12.06L850,536.74H839.63a10.87,10.87,0,0,0-10.81,9.7l-4.88,44.7h64.3Z" transform="translate(-709.72 -291.9)"/><path class="cls-6" d="M952.83,481l2.56-20.42h-8.08a10.88,10.88,0,0,0-10.8,9.53l-4.25,34h54.41l-1.36-10.88H963.63A10.89,10.89,0,0,1,952.83,481Z" transform="translate(-709.72 -291.9)"/><path class="cls-4" d="M959.47,645.55a21.77,21.77,0,0,0-21.77,21.77v16.32a21.77,21.77,0,0,1,43.53,0V667.32A21.77,21.77,0,0,0,959.47,645.55Z" transform="translate(-709.72 -291.9)"/><rect class="cls-11" x="99.74" y="32.19" width="297.27" height="70.21"/><rect class="cls-12" x="91.34" y="23.85" width="297.27" height="70.21"/><line class="cls-13" x1="142.47" x2="142.47" y2="44.36"/><circle class="cls-13" cx="142.47" cy="42.04" r="5.66"/><line class="cls-13" x1="339.82" x2="339.82" y2="44.36"/><circle class="cls-13" cx="339.82" cy="42.04" r="5.66"/><text class="cls-14" transform="translate(134.4 71.49) rotate(-0.08)">第三站：答题闯关</text><path class="cls-15" d="M745.72,724.8s7.84-15-11.25-43.83c0,0,18.6,7.21,26.42,27.18,0,0,3.42-27.18-13.21-52.15,0,0,11.25,2.77,20.06,16.64,0,0,16.64-45.5,40.61-54.38,0,0-29.85,54.38-17.12,106.52H745.72Z" transform="translate(-709.72 -291.9)"/><path class="cls-16" d="M791.38,724.8s20.06-41.06-12.23-101c0,0,34.25,7.21,40.61,83.22,0,0,8.81-22.75-5.39-68.8,0,0,18.6,9.43,25,33.29,0,0,7.83-35.51,36.69-53.26,0,0-22,39.4-19.08,77.68,0,0,7.34-18.87,24.95-28.85,0,0-12.72,20.52-11.25,43.83,0,0-2-14.43,23-29.41,0,0-13.21,27.18-9.79,43.27H791.38Z" transform="translate(-709.72 -291.9)"/><path class="cls-1" d="M816.9,724.86l-5.25-23.65L796.32,697l-11.17-21.27-38.86-11.38-25,20.38-11.55,24.88v15.21Z" transform="translate(-709.72 -291.9)"/><path class="cls-1" d="M709.72,709.65v15.21h50.67V668.52l-14.1-4.13-25,20.38Z" transform="translate(-709.72 -291.9)"/><path class="cls-2" d="M785.15,675.77v38.4L796.32,697Z" transform="translate(-709.72 -291.9)"/><path class="cls-2" d="M746.29,664.39l-16.92,34-8.1-13.65Z" transform="translate(-709.72 -291.9)"/><path class="cls-2" d="M811.65,701.21l-8.24,23.65H816.9Z" transform="translate(-709.72 -291.9)"/><path class="cls-2" d="M709.72,709.65l13.47,15.21H709.72Z" transform="translate(-709.72 -291.9)"/><path class="cls-1" d="M852.89,724.89,849.36,709l-10.29-2.8-7.5-14.28-26.1-7.65L788.66,698l-7.75,16.71v10.21Z" transform="translate(-709.72 -291.9)"/><path class="cls-1" d="M780.9,714.68v10.21h34V687.06l-9.47-2.78L788.66,698Z" transform="translate(-709.72 -291.9)"/><path class="cls-2" d="M831.57,691.93v25.78l7.5-11.5Z" transform="translate(-709.72 -291.9)"/><path class="cls-2" d="M805.47,684.28,794.1,707.13,788.66,698Z" transform="translate(-709.72 -291.9)"/><path class="cls-2" d="M849.36,709l-5.53,15.88h9.06Z" transform="translate(-709.72 -291.9)"/><path class="cls-2" d="M780.91,714.68l9,10.21h-9Z" transform="translate(-709.72 -291.9)"/></svg>