<svg id="图层_3" data-name="图层 3" xmlns="http://www.w3.org/2000/svg" xmlns:xlink="http://www.w3.org/1999/xlink" viewBox="0 0 973.8 379.8"><defs><style>.cls-1{fill:#e6e6e6;}.cls-2{fill:#ccc;}.cls-3{fill:#0fa4bc;}.cls-4{fill:#40bac6;}.cls-5{fill:#4ed1d1;}.cls-6{fill:#fcdac8;}.cls-7{fill:#ff7f5c;}.cls-8{fill:#fe8a6c;}.cls-11,.cls-13,.cls-15,.cls-9{fill:none;stroke:#f94730;stroke-miterlimit:10;}.cls-9{stroke-width:0.5px;}.cls-10{fill:#fe957d;}.cls-12{fill:#fda08d;}.cls-13{stroke-width:1.5px;}.cls-14{fill:#fcab9d;}.cls-15{stroke-width:2px;}.cls-16{fill:url(#未命名的渐变_22);}.cls-17{font-size:24px;fill:#212121;font-family:MicrosoftYaHei-Bold, Microsoft YaHei;font-weight:700;letter-spacing:0.2em;}</style><linearGradient id="未命名的渐变_22" x1="937.89" y1="697.17" x2="937.89" y2="627.91" gradientUnits="userSpaceOnUse"><stop offset="0" stop-color="#fcdac8"/><stop offset="0.74" stop-color="#fcb282"/></linearGradient></defs><title>1</title><path class="cls-1" d="M963.69,650.38l21-92.31,61.45-16.24,44.75-83,155.79-44.4L1347,493.94,1393.3,591v59.37Z" transform="translate(-455.47 -317.37)"/><path class="cls-1" d="M1393.31,591v59.36H1190.19V430.53l56.53-16.11,100.33,79.51Z" transform="translate(-455.47 -317.37)"/><path class="cls-2" d="M1090.93,458.82V608.65l-44.75-66.82Z" transform="translate(-455.47 -317.37)"/><path class="cls-2" d="M1246.72,414.42l67.85,132.77L1347,493.94Z" transform="translate(-455.47 -317.37)"/><path class="cls-2" d="M984.73,558.07l33,92.31H963.69Z" transform="translate(-455.47 -317.37)"/><path class="cls-2" d="M1393.3,591l-54,59.37h54Z" transform="translate(-455.47 -317.37)"/><path class="cls-1" d="M481.67,660l28.09-134,82.07-23.58,59.76-120.54,208.06-64.48,134,115.47,61.78,141V660Z" transform="translate(-455.47 -317.37)"/><path class="cls-1" d="M1055.41,573.79V660H784.15V340.77l75.5-23.4,134,115.46Z" transform="translate(-455.47 -317.37)"/><path class="cls-2" d="M651.59,381.85V599.41l-59.76-97Z" transform="translate(-455.47 -317.37)"/><path class="cls-2" d="M859.65,317.37l90.6,192.8,43.37-77.33Z" transform="translate(-455.47 -317.37)"/><path class="cls-2" d="M509.76,526l44.12,134H481.67Z" transform="translate(-455.47 -317.37)"/><path class="cls-2" d="M1055.4,573.79,983.33,660h72.07Z" transform="translate(-455.47 -317.37)"/><polygon class="cls-3" points="853.98 312.99 848.25 314.9 823.25 238.47 828.98 236.56 853.98 312.99"/><polyline class="cls-4" points="834.54 183.9 833.4 197.18 823.78 203.54 832.09 205.17 831.46 216.31 824.76 216.65 830.85 224.23 824.24 242.76"/><path class="cls-4" d="M1278.92,559.2s-25.76-33.75,11.09-57.92" transform="translate(-455.47 -317.37)"/><path class="cls-4" d="M1279.49,551.77s10.4-32.9,43.42-19.34l-9.3,5.38-8.65-3.52,2.76,6.34-7.66,4.72-3.31-4.34-2.2,7.59-15.31,4.14" transform="translate(-455.47 -317.37)"/><path class="cls-4" d="M1283.71,555s-21.28-30.59-51-5.82l11.33,2.52,7.8-6.46-.82,7.45,9.42,2.38,2-5.56,4.7,7.12,17.14-.72" transform="translate(-455.47 -317.37)"/><polygon class="cls-3" points="841.53 315.3 836.46 318.59 798.6 259.33 803.67 256.04 841.53 315.3"/><path class="cls-5" d="M1259.09,578.22s-9.18-39.16-48.74-26.35l10.33,7.08,10.37-3.32-3.77,7.12,8.48,6.17,4.23-4.75,1.89,9,17.43,6.17" transform="translate(-455.47 -317.37)"/><path class="cls-5" d="M1254.57,580.53s4.54-40,45.32-31.95l-9.44,8.26-10.67-2.07,4.57,6.62-7.7,7.14-4.76-4.21-.82,9.18-16.58,8.19" transform="translate(-455.47 -317.37)"/><path class="cls-5" d="M1258.76,578.09s-39.19-7.66-43.87,33.95l10.65-6.58,1.26-10.89,4.89,6.39,9.07-5.25-2.55-5.85,8.93,2,12.75-13.47" transform="translate(-455.47 -317.37)"/><path class="cls-6" d="M1229.42,661.51h93v-32S1269.6,619.51,1229.42,661.51Z" transform="translate(-455.47 -317.37)"/><polygon class="cls-3" points="874.7 312.17 880.42 314.07 905.43 237.64 899.7 235.74 874.7 312.17"/><polyline class="cls-4" points="894.14 183.08 895.28 196.35 904.9 202.71 896.59 204.35 897.22 215.48 903.92 215.82 897.83 223.4 904.44 241.94"/><path class="cls-4" d="M1360.71,558.37s25.76-33.75-11.1-57.92" transform="translate(-455.47 -317.37)"/><path class="cls-4" d="M1360.13,550.94s-10.39-32.9-43.41-19.33L1326,537l8.65-3.53-2.76,6.34,7.65,4.72,3.32-4.34,2.2,7.6,15.31,4.13" transform="translate(-455.47 -317.37)"/><path class="cls-4" d="M1355.91,554.19s21.29-30.59,51-5.82l-11.33,2.52-7.8-6.46.82,7.45-9.42,2.38-2-5.56-4.7,7.12-17.13-.72" transform="translate(-455.47 -317.37)"/><polygon class="cls-3" points="887.15 314.47 892.22 317.76 930.08 258.5 925.01 255.21 887.15 314.47"/><path class="cls-5" d="M1380.53,577.39s9.19-39.16,48.75-26.34l-10.34,7.07-10.36-3.32,3.77,7.12-8.48,6.17-4.24-4.74-1.88,9-17.43,6.17" transform="translate(-455.47 -317.37)"/><path class="cls-5" d="M1385.06,579.7s-4.54-40-45.32-32l9.43,8.26,10.68-2.07-4.57,6.62,7.69,7.14,4.77-4.21.81,9.18,16.59,8.19" transform="translate(-455.47 -317.37)"/><path class="cls-5" d="M1380.87,577.27s39.19-7.67,43.87,33.94l-10.66-6.58-1.25-10.89-4.89,6.39-9.07-5.25,2.55-5.84-8.93,2-12.75-13.47" transform="translate(-455.47 -317.37)"/><path class="cls-6" d="M1410.2,660.69h-93v-32S1370,618.68,1410.2,660.69Z" transform="translate(-455.47 -317.37)"/><polygon class="cls-3" points="99.11 331.44 93.38 333.34 68.38 256.91 74.11 255.01 99.11 331.44"/><polyline class="cls-4" points="79.66 202.35 78.53 215.63 68.9 221.98 77.22 223.62 76.58 234.75 69.88 235.09 75.97 242.67 69.36 261.21"/><path class="cls-4" d="M524,577.64s-25.76-33.75,11.1-57.92" transform="translate(-455.47 -317.37)"/><path class="cls-4" d="M524.62,570.22S535,537.31,568,550.88l-9.31,5.38-8.65-3.53,2.76,6.34-7.65,4.73-3.32-4.34-2.2,7.59-15.31,4.13" transform="translate(-455.47 -317.37)"/><path class="cls-4" d="M528.84,573.46s-21.28-30.58-51-5.82l11.33,2.52,7.8-6.45-.81,7.44,9.41,2.38,2-5.56,4.7,7.13,17.13-.72" transform="translate(-455.47 -317.37)"/><polygon class="cls-3" points="86.66 333.74 81.59 337.04 43.72 277.77 48.8 274.48 86.66 333.74"/><path class="cls-5" d="M504.22,596.66S495,557.5,455.47,570.32l10.34,7.08,10.36-3.33-3.77,7.12,8.48,6.18,4.24-4.75,1.88,9,17.43,6.17" transform="translate(-455.47 -317.37)"/><path class="cls-5" d="M499.69,599S504.23,559,545,567l-9.44,8.25-10.68-2.07,4.57,6.63L521.78,587,517,582.76l-.81,9.18-16.59,8.2" transform="translate(-455.47 -317.37)"/><path class="cls-5" d="M503.89,596.54s-39.2-7.67-43.87,34l10.65-6.59L471.92,613l4.89,6.39,9.07-5.26-2.55-5.84,8.93,2L505,596.82" transform="translate(-455.47 -317.37)"/><path class="cls-6" d="M474.55,680h93v-32S514.73,638,474.55,680Z" transform="translate(-455.47 -317.37)"/><polygon class="cls-3" points="119.82 330.61 125.55 332.52 150.55 256.09 144.82 254.18 119.82 330.61"/><polyline class="cls-4" points="139.27 201.52 140.4 214.8 150.03 221.15 141.71 222.79 142.35 233.93 149.05 234.26 142.96 241.84 149.57 260.38"/><path class="cls-4" d="M605.83,576.81s25.77-33.74-11.09-57.91" transform="translate(-455.47 -317.37)"/><path class="cls-4" d="M605.26,569.39s-10.4-32.9-43.42-19.34l9.3,5.38,8.66-3.52L577,558.25l7.66,4.72,3.32-4.34,2.19,7.59,15.31,4.14" transform="translate(-455.47 -317.37)"/><path class="cls-4" d="M601,572.63s21.28-30.58,51-5.82l-11.33,2.53-7.8-6.46.82,7.44-9.41,2.39-2-5.57-4.7,7.13-17.14-.72" transform="translate(-455.47 -317.37)"/><polygon class="cls-3" points="132.27 332.92 137.34 336.21 175.21 276.95 170.13 273.66 132.27 332.92"/><path class="cls-5" d="M625.66,595.83s9.18-39.15,48.74-26.34l-10.33,7.08-10.36-3.32,3.76,7.12L649,586.54l-4.24-4.75-1.89,9L625.45,597" transform="translate(-455.47 -317.37)"/><path class="cls-5" d="M630.19,598.15s-4.55-40-45.33-31.95l9.44,8.26L605,572.39,600.4,579l7.7,7.13,4.76-4.21.82,9.18,16.58,8.2" transform="translate(-455.47 -317.37)"/><path class="cls-5" d="M626,595.71s39.19-7.66,43.87,33.95l-10.65-6.59L658,612.19l-4.89,6.39L644,613.33l2.54-5.85-8.93,2L624.87,596" transform="translate(-455.47 -317.37)"/><path class="cls-6" d="M655.33,679.13h-93v-32S615.15,637.13,655.33,679.13Z" transform="translate(-455.47 -317.37)"/><path class="cls-7" d="M719.07,487.3l15.39-.45-2.93,18.73,3.12,17.68.18,17.68-.91,17.68.05,17.69L731.16,594l4.09,17.68-3.26,8.2L727.87,628,719,634.29l-16.26-1.44.24-17.42,12.11.17,2.73-3.07,1.74-4.21-1.36-17.2,3.5-17.2-.81-17.2-1.23-17.2.11-17.21-2.23-17.16Zm-78.14,3.79,13.62-.94L651.24,504l6.15-2,.14-14.75,15.29.62-.09,14.08,18,2.19,2.65,17L671.8,519,671,536.07l23.79-2.73-.92,17.38-22-.24,0,16,21.87-1.37L693,587.05l1.36,21-5.84,14.19-7.83,4.06-5.16,1.11.1-17.8,1.1-2.28,2,1.17,2.35-4.6-4-20.29-4.84-.77-.65,16.61-.91,16.65L673,633.37,659.72,632l.73-15.94-.24-16.65-.07-17.33-10.63.35,1.24,22.72L649,626.74l-14,2.16,1.43-21.83-1.15-20.49,3.41-18.78L658.07,565l1.58-15.4-26,2.87,1.25-17.87,24.09-.08-.28-14.93-10.49-1.46-2.8,3.77-2.62,2-5.22,2.41-3,.41L636.08,511l.48-2,1-3.28ZM712.49,490l1,17.41-3.28,16.81,3.12,16.81.18,16.82-.91,16.81,0,16.82-2.42,15.65L697,609.66l2.39-18.15,1.43-16.81-3.35-16.81L699,541.08l.28-16.81-.06-16.82-1.58-17.68Z" transform="translate(-455.47 -317.37)"/><path class="cls-7" d="M798.63,487.79l15.42-1.63-4.73,14.36,17,.29,15.58-1.57,14.69.63,1.08,18.61-17,1.72-16.84-3.37-15.23,3.36-3.16,12.55,0,16.23L824,547.89l17.06.71,18.65-2.84L857,565.44l-16,.46L824,567.35l-16.62-.43,1.24,14.19L806.81,596l17.32,1,17.19-2.16,18.49-.2-2.43,19.16-16.06,2.62-17.18.18-16.57-1.19.09,18.21-14.12-1.74-3.7-18.09,2.86-19.25,1.42-19.25L790.77,556l1.51-19.35-7.44-.09,0-19.6,2.38-1.47,5.42-9.08Zm-23.85.15L791,486.31l-7.65,15.55-4.62,16,1.6,19.37-1,19.13,1.39,19.13,1.64,19.13L779,613.74l3.44,20.65L766.79,632l1.14-18.33-1.65-19.28.72-19.28-3.56-19.29L766.93,536l-8.6.35-1.4-18.08,3.58-.55,1-1.29,3.24-2.41,5.69-13.17Z" transform="translate(-455.47 -317.37)"/><path class="cls-7" d="M959.81,617.54l8.57,0-1.56-16.63-2-15.28-3.44-.73L962.65,601ZM883.51,539l11.48.36,2.93,13.38,2.91,3.3.21,2.12,7.49-.11-1.16,18.94-9.91,2.18-9.21-4.66-1.81-6.68,0-9.71ZM895,583.76l11.84.07-.64,16.43.1,17.42L902.88,625l-2,6.84-5.48,2.25-6.68,2.39-7.3-2,1-18.64,3.86,1.43,4.38-1.63-.67-6Zm-11-92.52,11.52.31,2.72,15.24,3.33,3.6,5.94,2.33,1.1,18.72-9.79-.25-6.62,1.08-4.64-5.07-1.3-6.22.25-9Zm96.57,126,.4,15-17.6,1.31L945,635.72l-18.49-2.06-19.57.84.64-17.51,1.57-.41L910.23,601l1-16.14,1.14-15.12,16.21.25,17.17-2.24,17.17,3.06,16-.81L980,584.81l-1,16.13,1.39,16.13ZM911.9,559.07l.44-16.63-1.64-17.55-2.16-17.56,2.17-17.84,17.51-1.35,17.22,1.19,17.22-1.95,18.08,1.55-.67,18.25-1.58,17.42.14,17.41,1.56,7.47-5,5.61-3.52,2.59-6.61,2.18-18-1-18,1.39Zm19.4,25.27-8.36,0,1.56,16.61,2,15.31,3.21.7-1.26-16.07Zm-7.09-79.53,0,13.06,21.18-1.5,19.42-1.87,1-8.19-20.42,1.28Zm-.06,40.11,19.37.23,18.71-1.64,1.07-2,2.21-3,0-4.21-20.11-1.13L926,534.86Zm25.69,39.39-8.79,0,1.55,16.64,2,15.25,3.67.75L947,600.87Z" transform="translate(-455.47 -317.37)"/><path class="cls-7" d="M1086.21,539.46,1066,535.58l-19.69,4-2.46,14.21,20.45-1.46,19.07,1.94,2-3.87-.73-3.84Zm-41-47.11,5.75-2.49,11.61-4.09,4.38,10.34,19.42-1.84,17.28,1.34,2.16,15.6L1085,512.62,1064.76,511l-20.24-1.3-20.62.36,1.23,17.24-3,16.77,4.43,16.77-3.3,16.77,3.16,16.78-2.75,16.78,1.7,9.08-2,9.67L1010.69,636l-4.85-2.46-1-16.79,1.64,1.61,3.86-2.12-2.13-5.08,1-16.76-.77-16.75-.13-16.75,1.69-16.76.54-16.76-1.88-16.76,1.12-17.07,18-1.59Zm9.63,99.91,8.52,10.55L1073,590l-13.49-2.91L1044.19,589l-13.64-1.23L1028.26,573l19.41-1.41,18.82,1.65,18.82,1.3,18.47-.34,1.1,13.36-15.79,10-10.32,14.91,1.17,2,5.9-.31,5.69,3.22,14.1-1.48.36,18.47-20.79.67-7.53-3.39-6.76-2.66-7.61-7.92L1051,629.13l-12.16,6.34-13.22-1.35-.81-16.92,8.53-1.1,5.64.95,6-2.47,3.28-2.6-19.2-18.32ZM1031,569l3.42-16.1-4.29-14.32-.58-1.23-1.84-15.5,6.23,1.21-2.39-9.1,14.72-1.06-.83,8.39,20.62,1.27,21-.25-.56-8.3,13.91,2.7,2.87,3.82,1.42,1.47,3.06,16.55-7-.77,1.94,11.25.33,9-3,8-12.56,1.56-18.48,1-18.54-2.38Z" transform="translate(-455.47 -317.37)"/><path class="cls-7" d="M1197.37,505.15l.37,13,11.43.86,4.12-2.45.74-3.64,2-9.31Zm-19.63-15.26.5,14.47-1.06,14.35-.12,10.18-12.8,7.18L1148,533.13l-17.25,2.21.18-23,1.27-22,14.82-1,15.32-1.19Zm1,98.45.5,14.23-1.07,14.12-.23,10-12.9,7.12-16.65-3-17.56,2.23.17-22.67,1.26-21.61,15.12-1,15.62-1.18Zm-46.65-32.44-.25-15.17,21,1,20.42-1.64-.17-4.85,14.21,2.79.78,2.12,17.1.4,2.25-4.41,13-1.14.76,4.77,8.86.71-2.77,13.35-18.74,3.91-21.59-3.79,11,10.09,5.34,5.89,7.58-2.53,19.75-.7-1.07,17.39-18.9-1.19-13.42-1.29-5.91-1.94-10.71-12.87-5.47,13.58-8.52,1.45-12.53,4L1133,583.19l-1.16-16,21.93-1.14,6.44-.86,5.47-1.39,4.75-7.31-18.89-2.28Zm13-50.36.35,13.38,12.49.87,4.08-2.49.84-3.83,2-9.47Zm.43,98.22.35,13.13,12.88.88,4.21-2.52.88-3.72,2-9.33Zm84-15.1.5,14L1229,616.61l-.18,10-12.9,7-16.15-2.94-17.08,2.22.18-22.39,1.26-21.34,14.77-1,15.27-1.19Zm-.6-98.69.5,14.07-1.07,14-.14,10-12.77,6.92L1199.59,532l-16.78,2.22.18-22.38,1.27-21.35,14.51-1,15-1.19Zm-31.77,113.86.36,13,12,.88,3.51-2,.93-1.52,3.47-2.55-2-6.83Z" transform="translate(-455.47 -317.37)"/><path class="cls-8" d="M721,490.31l15.34-.41-3.76,18.69.66,17.68L735.12,544,737,561.64l-1.38,17.68L735.41,597,734.1,614.7l-1.44,8.1-3,8.11L721,634l-16.89,2.4,2.24-17L717.09,618l5.18-1.69-2.3-4.94.9-17.21.78-17.2-.88-17.2,1.7-17.2-2.85-17.21.2-17.16ZM642.9,494.1l13.6-.88-3.7,14.6,9.57-1.37-1.64-15.05,14.9-1.32-1.09,15.1,19.63.22-.85,16.39L673,520.93l-.11,18.33,21.92-.3,1.57,15.44-23.46-2.27L674.27,569l19.65.95,2.68,20.15L695.7,611l-3.45,15.3-9.55,5.07-4.39-1.23-2.82-17.7,3.25-1.88,1.52.54,3.71-4.24-2.45-21.13-9.31-.85,2.72,17.52L672,619.08l1.14,15.85-12.88,1.21-1-17.06-.84-16.66,1.65-16.28-8.66-.73,1.19,22.76-2.23,21.24-12.12,1.7-1.31-21,3.45-20.49L639.86,570l21.38-.21L661,553.63l-24.44.44.74-15.76,23.19-1.47,1-14.84-11.62-1.79-2.2,4.89-3.09,1.53-5.1,4.64-2.43-1.66,1-15.57,2.52,0-1.65-5.29ZM714.46,493l.9,17.42-4.09,16.81.66,16.81,1.84,16.81,1.92,16.81-1.38,16.82L714,611.57l-12.55-.8,1.22-16.24.34-16.82-.29-16.8-2.59-16.82,2.79-16.81-2.38-16.82,1.08-16.1Z" transform="translate(-455.47 -317.37)"/><path class="cls-9" d="M721,490.31l15.34-.41-3.76,18.69.66,17.68L735.12,544,737,561.64l-1.38,17.68L735.41,597,734.1,614.7l-1.44,8.1-3,8.11L721,634l-16.89,2.4,2.24-17L717.09,618l5.18-1.69-2.3-4.94.9-17.21.78-17.2-.88-17.2,1.7-17.2-2.85-17.21.2-17.16ZM642.9,494.1l13.6-.88-3.7,14.6,9.57-1.37-1.64-15.05,14.9-1.32-1.09,15.1,19.63.22-.85,16.39L673,520.93l-.11,18.33,21.92-.3,1.57,15.44-23.46-2.27L674.27,569l19.65.95,2.68,20.15L695.7,611l-3.45,15.3-9.55,5.07-4.39-1.23-2.82-17.7,3.25-1.88,1.52.54,3.71-4.24-2.45-21.13-9.31-.85,2.72,17.52L672,619.08l1.14,15.85-12.88,1.21-1-17.06-.84-16.66,1.65-16.28-8.66-.73,1.19,22.76-2.23,21.24-12.12,1.7-1.31-21,3.45-20.49L639.86,570l21.38-.21L661,553.63l-24.44.44.74-15.76,23.19-1.47,1-14.84-11.62-1.79-2.2,4.89-3.09,1.53-5.1,4.64-2.43-1.66,1-15.57,2.52,0-1.65-5.29ZM714.46,493l.9,17.42-4.09,16.81.66,16.81,1.84,16.81,1.92,16.81-1.38,16.82L714,611.57l-12.55-.8,1.22-16.24.34-16.82-.29-16.8-2.59-16.82,2.79-16.81-2.38-16.82,1.08-16.1Z" transform="translate(-455.47 -317.37)"/><path class="cls-8" d="M798.09,488.18l16,3.08-1.21,10.58,15.41.07,15.57,1.82,14-.32,2.64,18.9-17.95-3.4-16.84,2.72-15.31,1.49.65,12.64-3.63,16.13L826,549.63l17.06.46,16,1,.34,17.66-16.33.85L826,571l-16.31-.66L811,584.12l-2.65,15.33L826.1,597l17.19.14,16.86,2,1.41,19.68L843.29,618l-17.18.74-17.74-1.4-.44,17.92-14.86,1.54,1.16-20-.64-19.25L796,578.29,793.38,559l1.68-19.68-7.84.07-2.83-19.78,4.77-.55,7.9-9.18Zm-23.31-.28,15.9,3.08-3.13,14.58-4.95,15.56-1.76,19.11-.35,19.12,3.44,19.13L780,597.62l2.72,19.13,1.55,20.58-18.49,0,4-20.63L767,597.4l.47-19.28L769,558.83l-.53-19.64-8.79.44-1.32-18.44,4.16-.93.68-1.14,4.11-1.89,2.21-14.32Z" transform="translate(-455.47 -317.37)"/><path class="cls-9" d="M798.09,488.18l16,3.08-1.21,10.58,15.41.07,15.57,1.82,14-.32,2.64,18.9-17.95-3.4-16.84,2.72-15.31,1.49.65,12.64-3.63,16.13L826,549.63l17.06.46,16,1,.34,17.66-16.33.85L826,571l-16.31-.66L811,584.12l-2.65,15.33L826.1,597l17.19.14,16.86,2,1.41,19.68L843.29,618l-17.18.74-17.74-1.4-.44,17.92-14.86,1.54,1.16-20-.64-19.25L796,578.29,793.38,559l1.68-19.68-7.84.07-2.83-19.78,4.77-.55,7.9-9.18Zm-23.31-.28,15.9,3.08-3.13,14.58-4.95,15.56-1.76,19.11-.35,19.12,3.44,19.13L780,597.62l2.72,19.13,1.55,20.58-18.49,0,4-20.63L767,597.4l.47-19.28L769,558.83l-.53-19.64-8.79.44-1.32-18.44,4.16-.93.68-1.14,4.11-1.89,2.21-14.32Z" transform="translate(-455.47 -317.37)"/><path class="cls-8" d="M964.32,619.59l7,1.34.27-17-3.87-15.63-2.53.31.12,15.22ZM883.1,540.66l13.16,2.42.86,12.95,4.86,3.51,1-.38,8.15,1.64-.11,20-11.62-3-8.4-.94-2.59-6.16.19-9.86Zm11.6,44.65L908,587.44,905.43,603l1.9,17.63-.58,8-3.37,6.78L897.72,639l-7-3.76-6.39,1.94.08-18.33,3.83,1.64,4.93-1.41-1.73-6.4ZM883.64,493l13.17,2.29.69,14.78,6.11,4.34,7.81.77-.14,19.58-10.42,1.4-5.47-4.95-4.94-1.46L888.33,524l.42-9.15ZM985.31,619.93l-3,14.56-16.92-.7-18.49,4-18.49.89-20-.61-.79-18.43,7.61.88L913.17,604l.08-16.14,1.26-15,16.06.79,17.17-3.44,17.17,3.89,17.38-2.63,2.14,16.35L984.26,604l-4.37,16.58ZM912,564l3.37-18.57.12-17.56-4-17.56-.22-19.21,18.91-.67,17.22,0,17.22,4.24,17.4-2,0,17.58-1.76,17.41L979.9,545l2.76,7.55-5.76,5.37L974,562.72l-7,2.64-18-.17-18.09-4.42Zm18.75,24.26L923.94,587l-.26,17,3.87,15.64,2.29-.31L929.73,604Zm-3.28-78-1.76,11.56,21.65.38,19.87-3.8-.41-7.31-19.39.23Zm.06,35.35,18,3.61,18.71.11,1.88-4.19-.56-3.54,1.73-3.54-19.92.13-21.38-4Zm21.78,42.73-7.22-1.39-.28,17,3.86,15.61,2.76-.33L948.28,604Z" transform="translate(-455.47 -317.37)"/><path class="cls-9" d="M964.32,619.59l7,1.34.27-17-3.87-15.63-2.53.31.12,15.22ZM883.1,540.66l13.16,2.42.86,12.95,4.86,3.51,1-.38,8.15,1.64-.11,20-11.62-3-8.4-.94-2.59-6.16.19-9.86Zm11.6,44.65L908,587.44,905.43,603l1.9,17.63-.58,8-3.37,6.78L897.72,639l-7-3.76-6.39,1.94.08-18.33,3.83,1.64,4.93-1.41-1.73-6.4ZM883.64,493l13.17,2.29.69,14.78,6.11,4.34,7.81.77-.14,19.58-10.42,1.4-5.47-4.95-4.94-1.46L888.33,524l.42-9.15ZM985.31,619.93l-3,14.56-16.92-.7-18.49,4-18.49.89-20-.61-.79-18.43,7.61.88L913.17,604l.08-16.14,1.26-15,16.06.79,17.17-3.44,17.17,3.89,17.38-2.63,2.14,16.35L984.26,604l-4.37,16.58ZM912,564l3.37-18.57.12-17.56-4-17.56-.22-19.21,18.91-.67,17.22,0,17.22,4.24,17.4-2,0,17.58-1.76,17.41L979.9,545l2.76,7.55-5.76,5.37L974,562.72l-7,2.64-18-.17-18.09-4.42Zm18.75,24.26L923.94,587l-.26,17,3.87,15.64,2.29-.31L929.73,604Zm-3.28-78-1.76,11.56,21.65.38,19.87-3.8-.41-7.31-19.39.23Zm.06,35.35,18,3.61,18.71.11,1.88-4.19-.56-3.54,1.73-3.54-19.92.13-21.38-4Zm21.78,42.73-7.22-1.39-.28,17,3.86,15.61,2.76-.33L948.28,604Z" transform="translate(-455.47 -317.37)"/><path class="cls-8" d="M1088.38,542,1068,540.19l-20.13,1.8-1.28,13.85,19.71-2.55,19.07,2,1.27-2.2,3.4-3.62Zm-41.05-46.11,5-4.48,11.91-1.87,5,8.39,19.11-2.72,18.66,1.89,1.32,17.8L1087,512.24l-20.24,2.69-20.24-3.8-21.82.46,3.06,18.69.89,16.77,0,16.77.05,16.78-4.24,16.77,2.1,16.78-.36,9-4.2,8-9.27,3.45-6.47,2.39L1010,619.9l-1.58-.42.71-2.46.74-2.87,4.42-16.75-2.8-16.76.47-16.75,1.51-16.76-.46-16.76-1.17-16.76-.84-17.87,18.79,0Zm9.39,99.92,8.29,8.48,10.72-11.53-14.24-1.42-15.33,2.76L1031,592.2l-1.35-16.87,20,2.63,18.82-2.69,18.82,3.8,17.37-.35,2.75,12.12L1094,603.92l-13.26,11.55,3.08-.76,2.86,6.32,6.78-1.48,13.16.13-1.14,14.73-18.35-.72-8,2.6-4.36-6.89-9.31-3.45-10.34,9.4-14.29,3.42L1030,635.2l-2.25-14.55,7.55.13,6.08.71,5.83-3.49,4-3.72L1030,596.36Zm-23.46-24.17,1.49-15.69-1.94-14.55-2.53-.65-2.65-16.42,6.52.63-1.07-8.7,13.56,2.69,1,4.49,20.32,3.73,21.57,0-1.43-10.64,16.13-.81,1,7.86,4.67.62-4.09,16.39-2.33.57-.07,10.94-2.27,8.46-2.76,6-9,5.78-18.48-3.9-18.49,2.72Z" transform="translate(-455.47 -317.37)"/><path class="cls-9" d="M1088.38,542,1068,540.19l-20.13,1.8-1.28,13.85,19.71-2.55,19.07,2,1.27-2.2,3.4-3.62Zm-41.05-46.11,5-4.48,11.91-1.87,5,8.39,19.11-2.72,18.66,1.89,1.32,17.8L1087,512.24l-20.24,2.69-20.24-3.8-21.82.46,3.06,18.69.89,16.77,0,16.77.05,16.78-4.24,16.77,2.1,16.78-.36,9-4.2,8-9.27,3.45-6.47,2.39L1010,619.9l-1.58-.42.71-2.46.74-2.87,4.42-16.75-2.8-16.76.47-16.75,1.51-16.76-.46-16.76-1.17-16.76-.84-17.87,18.79,0Zm9.39,99.92,8.29,8.48,10.72-11.53-14.24-1.42-15.33,2.76L1031,592.2l-1.35-16.87,20,2.63,18.82-2.69,18.82,3.8,17.37-.35,2.75,12.12L1094,603.92l-13.26,11.55,3.08-.76,2.86,6.32,6.78-1.48,13.16.13-1.14,14.73-18.35-.72-8,2.6-4.36-6.89-9.31-3.45-10.34,9.4-14.29,3.42L1030,635.2l-2.25-14.55,7.55.13,6.08.71,5.83-3.49,4-3.72L1030,596.36Zm-23.46-24.17,1.49-15.69-1.94-14.55-2.53-.65-2.65-16.42,6.52.63-1.07-8.7,13.56,2.69,1,4.49,20.32,3.73,21.57,0-1.43-10.64,16.13-.81,1,7.86,4.67.62-4.09,16.39-2.33.57-.07,10.94-2.27,8.46-2.76,6-9,5.78-18.48-3.9-18.49,2.72Z" transform="translate(-455.47 -317.37)"/><path class="cls-8" d="M1198.18,506.6l2.17,14,10.79,1.82,3.68-3.5.83-3,1.6-7.57Zm-19.8-12.27,2.7,13-2.32,14.35,1,10.4-13.57,7.31-16.31-1.4-17.14.25,1.67-22.93-1.79-23,16.28,1.74,15.41-2.75Zm1.07,98.47,2.67,12.79-2.32,14.11.92,10.24-13.66,7.24-16.65-1.4L1133,636l1.67-22.59-1.79-22.64,16.57,1.75,15.7-2.75Zm-44.16-35.45L1133.36,543l21.54,2.05,20.25-2.8-.11-4.41,14.91,1.33.16,4,17.58,1.81,1.16-7.6,13,2.07,1.37,3.33,7.35,1.53,1.29,15.84-21.21-2.71-19.3,2.4,7.49,8.61,6.53,4.49,7.62-3.19,19.9-.34,0,19-20.09.58-12.89-5.63-6-1.26-11.12-10.12-8.62,9-5.56,2.81-12.34,4.3L1136,584.74l-1.59-13.69,21.31-2.11,6.51-.54,7.07-.46,3.21-8.67-19-.39ZM1145.92,507l2.13,14.38,11.86,1.85,3.65-3.56.92-3.16,1.6-7.73Zm.48,98.2,2.07,14.13,12.26,1.88,3.78-3.59,1-3.05,1.61-7.57Zm83.78-12.06,2.68,12.59-2.32,13.92,1,10.24-13.67,7.08-16.15-1.4-17,.26,1.67-22.31-1.79-22.37,16.22,1.76,15.35-2.76Zm-.62-98.7,2.69,12.65-2.32,14,1,10.19-13.53,7-15.85-1.39-16.67.24,1.67-22.3-1.79-22.35,16,1.74,15.09-2.75ZM1198,605.26l2.13,14,11.36,1.84,3.07-3.07,1.06-1,1.89-2.4-.07-7Z" transform="translate(-455.47 -317.37)"/><path class="cls-9" d="M1198.18,506.6l2.17,14,10.79,1.82,3.68-3.5.83-3,1.6-7.57Zm-19.8-12.27,2.7,13-2.32,14.35,1,10.4-13.57,7.31-16.31-1.4-17.14.25,1.67-22.93-1.79-23,16.28,1.74,15.41-2.75Zm1.07,98.47,2.67,12.79-2.32,14.11.92,10.24-13.66,7.24-16.65-1.4L1133,636l1.67-22.59-1.79-22.64,16.57,1.75,15.7-2.75Zm-44.16-35.45L1133.36,543l21.54,2.05,20.25-2.8-.11-4.41,14.91,1.33.16,4,17.58,1.81,1.16-7.6,13,2.07,1.37,3.33,7.35,1.53,1.29,15.84-21.21-2.71-19.3,2.4,7.49,8.61,6.53,4.49,7.62-3.19,19.9-.34,0,19-20.09.58-12.89-5.63-6-1.26-11.12-10.12-8.62,9-5.56,2.81-12.34,4.3L1136,584.74l-1.59-13.69,21.31-2.11,6.51-.54,7.07-.46,3.21-8.67-19-.39ZM1145.92,507l2.13,14.38,11.86,1.85,3.65-3.56.92-3.16,1.6-7.73Zm.48,98.2,2.07,14.13,12.26,1.88,3.78-3.59,1-3.05,1.61-7.57Zm83.78-12.06,2.68,12.59-2.32,13.92,1,10.24-13.67,7.08-16.15-1.4-17,.26,1.67-22.31-1.79-22.37,16.22,1.76,15.35-2.76Zm-.62-98.7,2.69,12.65-2.32,14,1,10.19-13.53,7-15.85-1.39-16.67.24,1.67-22.3-1.79-22.35,16,1.74,15.09-2.75ZM1198,605.26l2.13,14,11.36,1.84,3.07-3.07,1.06-1,1.89-2.4-.07-7Z" transform="translate(-455.47 -317.37)"/><path class="cls-10" d="M724.89,494.77l10.93,0,.28,16.79,1.3,17.69-2,17.68,4.07,17.68-1.82,17.69L738.8,600l-4.15,17.69,3.26,8.35-5.65,8.29L723,641l-16.22-2.1-.06-17.57,12.37-.33,5.41-1.59,1-5,.42-17.2L724.25,580l-.22-17.2,1.57-17.21L723,528.34l-.36-17.25Zm-78.41,4.08,11,.38-2,10.27,6.93-1,1.53-13,14-2.79-1.42,15.39,20.54-.84-2.69,16.4-17.43,2.85-1.67,15.07,23.85-2.78-1.33,17.83-21.78.07.25,15.19,19.46,1.14-.7,20-.42,21-.91,15-9,4.11-3.27-.25-2.58-17.31,1.89-1.15,3.32,1-2-5.55,2.27-21.39L678,589.58l-.08,15.85-1.4,16.66.45,17.3-13.51-1.17-1.81-16.13,2.24-16.65-2.58-15.91-7.27-.86,2.06,22.51-2.87,21.76-13.37,1.42,3.58-21.26.11-20.49L640,571.05l21.39-.87.12-11.26H637.27l2.39-17,23-1.74V525.6L652.06,524l-3,3.86-.93,5.38-6.68-2.83-3.54,2.48-2-16.12,3.64-2.55,5.32-1.59Zm68.07-1.34-.37,16,.57,16.81,1.3,16.81-2,16.81,4.07,16.82-1.82,16.81.77,17.92-12.55-2.53-3.19-15.38,2.88-16.81-3.43-16.81,2.2-16.81-.1-16.82-.42-16.81,1.32-16Z" transform="translate(-455.47 -317.37)"/><path class="cls-11" d="M724.89,494.77l10.93,0,.28,16.79,1.3,17.69-2,17.68,4.07,17.68-1.82,17.69L738.8,600l-4.15,17.69,3.26,8.35-5.65,8.29L723,641l-16.22-2.1-.06-17.57,12.37-.33,5.41-1.59,1-5,.42-17.2L724.25,580l-.22-17.2,1.57-17.21L723,528.34l-.36-17.25Zm-78.41,4.08,11,.38-2,10.27,6.93-1,1.53-13,14-2.79-1.42,15.39,20.54-.84-2.69,16.4-17.43,2.85-1.67,15.07,23.85-2.78-1.33,17.83-21.78.07.25,15.19,19.46,1.14-.7,20-.42,21-.91,15-9,4.11-3.27-.25-2.58-17.31,1.89-1.15,3.32,1-2-5.55,2.27-21.39L678,589.58l-.08,15.85-1.4,16.66.45,17.3-13.51-1.17-1.81-16.13,2.24-16.65-2.58-15.91-7.27-.86,2.06,22.51-2.87,21.76-13.37,1.42,3.58-21.26.11-20.49L640,571.05l21.39-.87.12-11.26H637.27l2.39-17,23-1.74V525.6L652.06,524l-3,3.86-.93,5.38-6.68-2.83-3.54,2.48-2-16.12,3.64-2.55,5.32-1.59Zm68.07-1.34-.37,16,.57,16.81,1.3,16.81-2,16.81,4.07,16.82-1.82,16.81.77,17.92-12.55-2.53-3.19-15.38,2.88-16.81-3.43-16.81,2.2-16.81-.1-16.82-.42-16.81,1.32-16Z" transform="translate(-455.47 -317.37)"/><path class="cls-10" d="M802.71,494l14.27-.68-1.65,11.06,14.93.06,15.58-.95,15.4,1.87-.72,18.24-15.95,1.77-16.84.77-17.83-2.91,2.59,15.58L812,551.84l15.91.5,17.06-.06,15.63,2.18,3.07,19.43L845,571.77,828,570.35l-16.24,3-1.08,13.75-.09,15.11,17.53.07,17.19-1.88,17.39,1.22,1,20.27-18.4-3-17.18.82L811,621l-.07,18.14-16.76,1.37,2-20.65,1.44-19.25-4.1-19.25,2.36-19.26.62-19.45-6.85-.32-2.38-19.49,3.89,1.29L798.36,513Zm-23.88.17,14.92-.93-3.56,15.59-5.1,15.41,1,19-1.89,19.13-1,19.13,2.16,19.13.77,19.14L783.22,638l-15,2-.52-20.26.92-19.28-.06-19.29,2.82-19.28-3.94-18.47-5.06-1.08,1.46-17.58.58-1.56,2.29.71,2.23-3.73,4.73-13.53Z" transform="translate(-455.47 -317.37)"/><path class="cls-11" d="M802.71,494l14.27-.68-1.65,11.06,14.93.06,15.58-.95,15.4,1.87-.72,18.24-15.95,1.77-16.84.77-17.83-2.91,2.59,15.58L812,551.84l15.91.5,17.06-.06,15.63,2.18,3.07,19.43L845,571.77,828,570.35l-16.24,3-1.08,13.75-.09,15.11,17.53.07,17.19-1.88,17.39,1.22,1,20.27-18.4-3-17.18.82L811,621l-.07,18.14-16.76,1.37,2-20.65,1.44-19.25-4.1-19.25,2.36-19.26.62-19.45-6.85-.32-2.38-19.49,3.89,1.29L798.36,513Zm-23.88.17,14.92-.93-3.56,15.59-5.1,15.41,1,19-1.89,19.13-1,19.13,2.16,19.13.77,19.14L783.22,638l-15,2-.52-20.26.92-19.28-.06-19.29,2.82-19.28-3.94-18.47-5.06-1.08,1.46-17.58.58-1.56,2.29.71,2.23-3.73,4.73-13.53Z" transform="translate(-455.47 -317.37)"/><path class="cls-10" d="M967.27,622.23l5.25,1.43.9-16.7-1.69-16.4-8.11-.25,3.46,16.49Zm-83.12-79.05,14.64,2.31.43,13.54,2.9,4.73L905,566l8-2.09-3.32,18.2-8.22.17-9-1.91-2.51-6.42-2.53-9.34Zm11.64,44.58L910.64,590l-3.11,16-.4,17.36-2.08,7.26.14,7.62-6.2.07-6.34,1.36-7,.81.22-18.66,4.35-1.55,3.55.8,2.31-5.17Zm-11.1-92.26,14.69,2.22.22,15.33,6,6.53,4.19-.29,3.3,18.38-10.24-2.35-5.83.19-5.2-2.42-2-6-2.32-8.73ZM988.32,622.83l-3.48,15.3-17.46-1.19-18.49,1.64-18.49-.72-19.89,3,2.83-17.49,2.53-.2L914.44,607l.26-16.13-.48-17.36,18.32,1.43,17.17,1,17.17-2.16,18.37-.29-2.72,17.41L985.65,607l.11,15.68Zm-75.11-55,3.28-19.32.8-17.56-1.64-17.55L916,496.8l16.2-3.13,17.22,3.59,17.22-.95,17.9-1.17v18.07l1,17.41L983.62,548,982,555.16l-.18,7.48-5.6,4.52L969,564.5l-18,3.12-18,.17Zm18.5,23.87-5-1.38-.9,16.68,1.69,16.39,7.9.25-3.46-16.48Zm-1.82-77.48-1.86,9.9,21.27,1,20.88-1.72.33-12.62-21.09,3.39ZM930,547.7l17.46,3.69,18.71.8,3.66-2.8,1.45-4.79-2-3.74-20-3.51-20.77,1Zm20.27,44-5.47-1.47L943.89,607l1.69,16.41,8.33.26-3.46-16.52Z" transform="translate(-455.47 -317.37)"/><path class="cls-11" d="M967.27,622.23l5.25,1.43.9-16.7-1.69-16.4-8.11-.25,3.46,16.49Zm-83.12-79.05,14.64,2.31.43,13.54,2.9,4.73L905,566l8-2.09-3.32,18.2-8.22.17-9-1.91-2.51-6.42-2.53-9.34Zm11.64,44.58L910.64,590l-3.11,16-.4,17.36-2.08,7.26.14,7.62-6.2.07-6.34,1.36-7,.81.22-18.66,4.35-1.55,3.55.8,2.31-5.17Zm-11.1-92.26,14.69,2.22.22,15.33,6,6.53,4.19-.29,3.3,18.38-10.24-2.35-5.83.19-5.2-2.42-2-6-2.32-8.73ZM988.32,622.83l-3.48,15.3-17.46-1.19-18.49,1.64-18.49-.72-19.89,3,2.83-17.49,2.53-.2L914.44,607l.26-16.13-.48-17.36,18.32,1.43,17.17,1,17.17-2.16,18.37-.29-2.72,17.41L985.65,607l.11,15.68Zm-75.11-55,3.28-19.32.8-17.56-1.64-17.55L916,496.8l16.2-3.13,17.22,3.59,17.22-.95,17.9-1.17v18.07l1,17.41L983.62,548,982,555.16l-.18,7.48-5.6,4.52L969,564.5l-18,3.12-18,.17Zm18.5,23.87-5-1.38-.9,16.68,1.69,16.39,7.9.25-3.46-16.48Zm-1.82-77.48-1.86,9.9,21.27,1,20.88-1.72.33-12.62-21.09,3.39ZM930,547.7l17.46,3.69,18.71.8,3.66-2.8,1.45-4.79-2-3.74-20-3.51-20.77,1Zm20.27,44-5.47-1.47L943.89,607l1.69,16.41,8.33.26-3.46-16.52Z" transform="translate(-455.47 -317.37)"/><path class="cls-10" d="M1090.37,545,1070,542l-21.75.63.9,15.49,19.15,1,19.07-1.4,1.17-1.7,3.73-3.57Zm-41.06-46,5.47-3.37,10.49-.3,6.17,4.74,18.88,1,19-1.33,1,18.3-21.43-3-20.24,4-20.24-4-21.74-.26.79,18.59-.71,16.76,3.56,16.78-3.59,16.77,1,16.78,1.45,16.77-.54,9-1.79,9.47-12.21,3.73-3.93-.13-2.11-16.52,1.81-1.71,3.89,1.22-1.86-5.1-.17-16.75.91-16.76-.06-16.75,2.82-16.75-4.09-16.76,2.85-16.76.77-15.24,16.31-2.79Zm9.37,99.92,8.56,9.64,13.24-13.57-17,.37-15.33-1-15.52,1.31-1-17.34,20,2.94,18.82-4,18.82,4,17.45.36.74,11.2-13.93,11.27-10.92,14.28,1,2.49,5.43,1.87,6.41-.88,13.57.51.54,17.61-20.44-1.51-7.24-1.7-7.15-1.6-7.16-4.76L1055,635.13l-12.14,6.07-13.93-.49.6-17.17,7.83-.57,6.22,2,4-6.58,6.41-1.61-18.44-16.39Zm-23.42-24.25L1038,559l-.41-15.43-6.22.49,1-15.91,3.37-.46-.66-8.49,13.5,3,1.48,3.3,20,3.9,21.53.68-.44-8.55,13.54.64,2.43,4.55,1.13,1.5.92,15.76-3,.47-.19,10.68.46,8.92-4.59,6.56-10.42,2.11-18.48,2.17-18.46.76Z" transform="translate(-455.47 -317.37)"/><path class="cls-11" d="M1090.37,545,1070,542l-21.75.63.9,15.49,19.15,1,19.07-1.4,1.17-1.7,3.73-3.57Zm-41.06-46,5.47-3.37,10.49-.3,6.17,4.74,18.88,1,19-1.33,1,18.3-21.43-3-20.24,4-20.24-4-21.74-.26.79,18.59-.71,16.76,3.56,16.78-3.59,16.77,1,16.78,1.45,16.77-.54,9-1.79,9.47-12.21,3.73-3.93-.13-2.11-16.52,1.81-1.71,3.89,1.22-1.86-5.1-.17-16.75.91-16.76-.06-16.75,2.82-16.75-4.09-16.76,2.85-16.76.77-15.24,16.31-2.79Zm9.37,99.92,8.56,9.64,13.24-13.57-17,.37-15.33-1-15.52,1.31-1-17.34,20,2.94,18.82-4,18.82,4,17.45.36.74,11.2-13.93,11.27-10.92,14.28,1,2.49,5.43,1.87,6.41-.88,13.57.51.54,17.61-20.44-1.51-7.24-1.7-7.15-1.6-7.16-4.76L1055,635.13l-12.14,6.07-13.93-.49.6-17.17,7.83-.57,6.22,2,4-6.58,6.41-1.61-18.44-16.39Zm-23.42-24.25L1038,559l-.41-15.43-6.22.49,1-15.91,3.37-.46-.66-8.49,13.5,3,1.48,3.3,20,3.9,21.53.68-.44-8.55,13.54.64,2.43,4.55,1.13,1.5.92,15.76-3,.47-.19,10.68.46,8.92-4.59,6.56-10.42,2.11-18.48,2.17-18.46.76Z" transform="translate(-455.47 -317.37)"/><path class="cls-10" d="M1201.49,511.41,1203,523l10.09.38,4.68.07,3-4.5-.91-9.06Zm-19.61-15.7,2.09,14.67-1.19,14.35-2.76,9.91-11.82,4.65-16.31.13-17.11,1.84,2.88-22.9L1137,497l13.89-.86,15.34,1Zm1,98.45L1185,608.6l-1.19,14.12-2.87,9.71L1169,637l-16.65.13L1135,639l2.87-22.56-.66-21,14.2-.87,15.64,1Zm-47-32-1.11-16.86,22.07.75,20.65,1,.48-3.19,13.42-.13.64,2.55,18,3,1.86-6.08,12.3-1.51-.58,6.53,9.38-1.07.89,16.2-21.28-3-18.66,3.45,7.37,7.15,6.06,5,7.57-.88,17.46.38,2.28,16-20-3.1-13.46-.57-5.93-2-10.65-10.1-6,10.39-7.87,2.6-12.69-.07-22.15,2-.46-17.62,22.16,2.94,6.69-3.87,3.57-3.27,6.38-6.15-18.86.17Zm13.3-50.36,1.49,11.93,11.18.43,4.63,0,3.09-4.7-.92-9.22Zm.43,98.22,1.46,11.65,11.6.47h4.77l3.12-4.57-.94-9.08Zm84-15.55,2.09,14.25-1.19,13.92-2.81,9.71-11.93,4.45-16.15.14-16.93,1.84,2.87-22.28-.65-20.69,13.84-.87,15.29,1Zm-.6-98.68,2.09,14.28-1.2,14-2.78,9.67-11.79,4.42-15.85.13-16.63,1.84,2.87-22.28-.64-20.7,13.58-.86,15,1Zm-31.8,114.31,1.5,11.54,10.68.42,4.08.5,2.85-1.08.71-3.85-1.63-7Z" transform="translate(-455.47 -317.37)"/><path class="cls-11" d="M1201.49,511.41,1203,523l10.09.38,4.68.07,3-4.5-.91-9.06Zm-19.61-15.7,2.09,14.67-1.19,14.35-2.76,9.91-11.82,4.65-16.31.13-17.11,1.84,2.88-22.9L1137,497l13.89-.86,15.34,1Zm1,98.45L1185,608.6l-1.19,14.12-2.87,9.71L1169,637l-16.65.13L1135,639l2.87-22.56-.66-21,14.2-.87,15.64,1Zm-47-32-1.11-16.86,22.07.75,20.65,1,.48-3.19,13.42-.13.64,2.55,18,3,1.86-6.08,12.3-1.51-.58,6.53,9.38-1.07.89,16.2-21.28-3-18.66,3.45,7.37,7.15,6.06,5,7.57-.88,17.46.38,2.28,16-20-3.1-13.46-.57-5.93-2-10.65-10.1-6,10.39-7.87,2.6-12.69-.07-22.15,2-.46-17.62,22.16,2.94,6.69-3.87,3.57-3.27,6.38-6.15-18.86.17Zm13.3-50.36,1.49,11.93,11.18.43,4.63,0,3.09-4.7-.92-9.22Zm.43,98.22,1.46,11.65,11.6.47h4.77l3.12-4.57-.94-9.08Zm84-15.55,2.09,14.25-1.19,13.92-2.81,9.71-11.93,4.45-16.15.14-16.93,1.84,2.87-22.28-.65-20.69,13.84-.87,15.29,1Zm-.6-98.68,2.09,14.28-1.2,14-2.78,9.67-11.79,4.42-15.85.13-16.63,1.84,2.87-22.28-.64-20.7,13.58-.86,15,1Zm-31.8,114.31,1.5,11.54,10.68.42,4.08.5,2.85-1.08.71-3.85-1.63-7Z" transform="translate(-455.47 -317.37)"/><path class="cls-12" d="M726.25,497.31l13.81-1.19,1.15,18.5.16,17.68L738.75,550l1,17.68-2.39,17.69.08,17.69,3.39,17.69L739.41,629l-2.57,10.12-11.9,4.68-16.51-1.72.44-17.68L721,622.75l3.66-.9-.82-4.49,3.18-17.2.06-17.2-1.65-17.2-2.15-17.2,2.05-17.21-1.23-17.23Zm-78.32,4,12.41-1.74-1.44,10.18,3.67.94,2.33-13,13.8-.71L677.19,513l19.7-.13,2.2,17.11-20.47-.75L679,542l22-.06-1,18-22.16-.44L679,574l20,.84,1.6,21.25-3.19,21-2.49,14.48-8.27,5.13-7.37.37,2-18.44,1.45-1.61,1.51.16L683,612.91l1.26-20.72-6-.32-1.57,16.58.13,16.65,2,17.27-12.51-1.92.13-15.34-1.62-16.66.88-17.17-9.25.6,1.65,22.32L655,635.84l-14.06,2.1,3.63-21.83.81-20.49-1.87-20,22.07.65-2-14.54-22.19-3-.54-15,23.37-1.22-.06-13.67-9.3,1.24-2.27,1.48L649,533.78l-5.6,3-5-.64,3.23-16.1.2-2.46,1-3Zm69.21-1.24L719,516.48l.87,16.82.16,16.8-2.62,16.82,1,16.81L716,600.55l.39,15.9-13.3,2.07.64-18L703,583.74l-.14-16.81,1.69-16.81.55-16.81-1.89-16.82,1.07-17.07Z" transform="translate(-455.47 -317.37)"/><path class="cls-13" d="M726.25,497.31l13.81-1.19,1.15,18.5.16,17.68L738.75,550l1,17.68-2.39,17.69.08,17.69,3.39,17.69L739.41,629l-2.57,10.12-11.9,4.68-16.51-1.72.44-17.68L721,622.75l3.66-.9-.82-4.49,3.18-17.2.06-17.2-1.65-17.2-2.15-17.2,2.05-17.21-1.23-17.23Zm-78.32,4,12.41-1.74-1.44,10.18,3.67.94,2.33-13,13.8-.71L677.19,513l19.7-.13,2.2,17.11-20.47-.75L679,542l22-.06-1,18-22.16-.44L679,574l20,.84,1.6,21.25-3.19,21-2.49,14.48-8.27,5.13-7.37.37,2-18.44,1.45-1.61,1.51.16L683,612.91l1.26-20.72-6-.32-1.57,16.58.13,16.65,2,17.27-12.51-1.92.13-15.34-1.62-16.66.88-17.17-9.25.6,1.65,22.32L655,635.84l-14.06,2.1,3.63-21.83.81-20.49-1.87-20,22.07.65-2-14.54-22.19-3-.54-15,23.37-1.22-.06-13.67-9.3,1.24-2.27,1.48L649,533.78l-5.6,3-5-.64,3.23-16.1.2-2.46,1-3Zm69.21-1.24L719,516.48l.87,16.82.16,16.8-2.62,16.82,1,16.81L716,600.55l.39,15.9-13.3,2.07.64-18L703,583.74l-.14-16.81,1.69-16.81.55-16.81-1.89-16.82,1.07-17.07Z" transform="translate(-455.47 -317.37)"/><path class="cls-12" d="M804.8,497.11l14.66-1.37-1.2,10.6,14,.65,15.58-1.06,13.92,3.6,1,17.3L846.54,525l-16.84-.1-18.24.8,2.82,16-1.47,14.5,17.11-.22L847,555.6l16.71.92,1.25,19.73-18,.61-17.06-2.94-16.31,2.4v13.83l-1.16,15.18L830,604.24l17.19-1.19,18.34.76-3,18.41-15.38,3.56-17.18-4.27-17.5,2-1.52,17-13.81,2.07-1.39-19.82,1.64-19.25,1.31-19.25-.23-19.25-1.39-18.94L792.24,545,788,525.62,793.1,527l3.62-12.05Zm-23.9.19,15.43-1.52-2.84,16.44-6,15.06,1.13,19-4.34,19.13,1.32,19.13-1.52,19.14-.1,19.13.73,17.82-14.34,2.27,1.2-20.16-.24-19.28-.45-19.28,1.07-19.29L770.36,546l-7.88.11,2.81-18.47,1.13-1.38,1.6-.14,3-2.95,3.62-14Z" transform="translate(-455.47 -317.37)"/><path class="cls-13" d="M804.8,497.11l14.66-1.37-1.2,10.6,14,.65,15.58-1.06,13.92,3.6,1,17.3L846.54,525l-16.84-.1-18.24.8,2.82,16-1.47,14.5,17.11-.22L847,555.6l16.71.92,1.25,19.73-18,.61-17.06-2.94-16.31,2.4v13.83l-1.16,15.18L830,604.24l17.19-1.19,18.34.76-3,18.41-15.38,3.56-17.18-4.27-17.5,2-1.52,17-13.81,2.07-1.39-19.82,1.64-19.25,1.31-19.25-.23-19.25-1.39-18.94L792.24,545,788,525.62,793.1,527l3.62-12.05Zm-23.9.19,15.43-1.52-2.84,16.44-6,15.06,1.13,19-4.34,19.13,1.32,19.13-1.52,19.14-.1,19.13.73,17.82-14.34,2.27,1.2-20.16-.24-19.28-.45-19.28,1.07-19.29L770.36,546l-7.88.11,2.81-18.47,1.13-1.38,1.6-.14,3-2.95,3.62-14Z" transform="translate(-455.47 -317.37)"/><path class="cls-12" d="M968.65,625.47l2.26-.15L973.13,610l2-17-9.35.39,3.06,16.46Zm-82-79,16.71-.76.06,16-.65,5.84,4.16,1.12,7.79-1.79L911.44,585l-8.07,1-10.15-1.89-1.77-7.1-2.64-9.36Zm11.62,44.62,17.45-.3-4,18.45-4.2,16.91-.3,7.51-.22,7.44h-6.11l-6.3,2.28-8.38.51,1.13-19.19,4.77-2,5.06,2.51.42-6.34Zm-11.08-92.3,16.94-.68-.33,17.74,3.73,8.28,4.42-1.92,2.91,18.38-10.08-2.46-6,1.09-6.2-2.44-1.22-6.57-2.43-8.77ZM989.67,625.92,989.33,644l-20-1.8L950.86,640l-18.49,1.08-19.78,2.66,2.89-17.32,1.63-.39L915,610l1.23-16.14-.41-17.75,18.68,3.74,17.17-1.32L968.85,580l15.51-.56-.48,14.37L987.44,610l-1.5,16.15Zm-74-55.56-1-18.88L917,533.93l2.18-17.56-1.43-16.72,16.38-2.79,17.22,3.59,17.22-1.88,18.89-1.4-.56,19.06L988,533.64l-4.33,17.41.67,7.18L980.92,564l-3.42,2-6.5.83-18,3.57-18-1.51Zm18.65,24.1-2,.14L930,610l-2,16.93,9.14-.37-3.07-16.45Zm-2.7-77.82.19,7.06,19.51,2.11,21.6,1.92-.5-13.78-21,3Zm.08,34.62,17.78-.68,18.71,2.36,4.93.36-.06-5.69-1.72-3.91-20-3.51L930.82,542Zm21.18,43.24-2.5.15L948.12,610l-2,17,9.55-.4-3.06-16.47Z" transform="translate(-455.47 -317.37)"/><path class="cls-13" d="M968.65,625.47l2.26-.15L973.13,610l2-17-9.35.39,3.06,16.46Zm-82-79,16.71-.76.06,16-.65,5.84,4.16,1.12,7.79-1.79L911.44,585l-8.07,1-10.15-1.89-1.77-7.1-2.64-9.36Zm11.62,44.62,17.45-.3-4,18.45-4.2,16.91-.3,7.51-.22,7.44h-6.11l-6.3,2.28-8.38.51,1.13-19.19,4.77-2,5.06,2.51.42-6.34Zm-11.08-92.3,16.94-.68-.33,17.74,3.73,8.28,4.42-1.92,2.91,18.38-10.08-2.46-6,1.09-6.2-2.44-1.22-6.57-2.43-8.77ZM989.67,625.92,989.33,644l-20-1.8L950.86,640l-18.49,1.08-19.78,2.66,2.89-17.32,1.63-.39L915,610l1.23-16.14-.41-17.75,18.68,3.74,17.17-1.32L968.85,580l15.51-.56-.48,14.37L987.44,610l-1.5,16.15Zm-74-55.56-1-18.88L917,533.93l2.18-17.56-1.43-16.72,16.38-2.79,17.22,3.59,17.22-1.88,18.89-1.4-.56,19.06L988,533.64l-4.33,17.41.67,7.18L980.92,564l-3.42,2-6.5.83-18,3.57-18-1.51Zm18.65,24.1-2,.14L930,610l-2,16.93,9.14-.37-3.07-16.45Zm-2.7-77.82.19,7.06,19.51,2.11,21.6,1.92-.5-13.78-21,3Zm.08,34.62,17.78-.68,18.71,2.36,4.93.36-.06-5.69-1.72-3.91-20-3.51L930.82,542Zm21.18,43.24-2.5.15L948.12,610l-2,17,9.55-.4-3.06-16.47Z" transform="translate(-455.47 -317.37)"/><path class="cls-12" d="M1092.61,547.3l-20.68-.92-20.54,1-1.24,15,20.08-3.75,19.07.85,4.44,1.35.2-5.31Zm-41.13-44.66,4.77-5.38,11.72-1,5,8.3,19.27-4,19.86,1.23L1110,518.12l-19.07.18-20.24,3.08-20.24.42-20.29-2.34-2.21,16.85,1.08,16.77,3.14,16.77-3.59,16.77,1.88,16.78,2.09,16.78-1.51,9.07-1.73,9.67-12.69,1.58-4.29,1.89,1.55-16.47-1.49,2.31,4.39-2.6-2.18-5.45,1.5-16.76-.24-16.75-.45-16.75,1.07-16.76-1.67-16.76-.2-16.76,2.46-15.64,16.72-2.28Zm9,99.93,8.4,7.56,11.47-11.57-15-1.83-15.33,4.08-16.43-1.31,2.27-15.37,17.64-.18,18.82-3.07,18.82-.43L1110,582.8l-2,12.3-12.4,12.18-11.23,14,1.08,2.73,5.74,1,6.21-1.56,13.89,1.64.56,18.29-20.78-3.84-7.36.57-5.08-4.63-9.55-6.24-12.54,8.37-11.8,6.41-12.48-1.47-.21-15.73,7.19-.54,5.8.3,4.93-4.38,4.2-1.2-17.32-17.77Zm-22.82-25.52.83-15.09-1.06-14.78-2.65-.59-3.92-16.45,5.69-.19,2.11-4.49,11.9-.53,1.16,4.12,20.18-.52,20.81,2.36,1-5,13-1,2.17,4.85,1.1,1.46,1.82,15.91-2.41.79-1.07,10.17.57,9-6.68,5.4-8.86,3.58-18.48-1.52-18.51-.1Z" transform="translate(-455.47 -317.37)"/><path class="cls-13" d="M1092.61,547.3l-20.68-.92-20.54,1-1.24,15,20.08-3.75,19.07.85,4.44,1.35.2-5.31Zm-41.13-44.66,4.77-5.38,11.72-1,5,8.3,19.27-4,19.86,1.23L1110,518.12l-19.07.18-20.24,3.08-20.24.42-20.29-2.34-2.21,16.85,1.08,16.77,3.14,16.77-3.59,16.77,1.88,16.78,2.09,16.78-1.51,9.07-1.73,9.67-12.69,1.58-4.29,1.89,1.55-16.47-1.49,2.31,4.39-2.6-2.18-5.45,1.5-16.76-.24-16.75-.45-16.75,1.07-16.76-1.67-16.76-.2-16.76,2.46-15.64,16.72-2.28Zm9,99.93,8.4,7.56,11.47-11.57-15-1.83-15.33,4.08-16.43-1.31,2.27-15.37,17.64-.18,18.82-3.07,18.82-.43L1110,582.8l-2,12.3-12.4,12.18-11.23,14,1.08,2.73,5.74,1,6.21-1.56,13.89,1.64.56,18.29-20.78-3.84-7.36.57-5.08-4.63-9.55-6.24-12.54,8.37-11.8,6.41-12.48-1.47-.21-15.73,7.19-.54,5.8.3,4.93-4.38,4.2-1.2-17.32-17.77Zm-22.82-25.52.83-15.09-1.06-14.78-2.65-.59-3.92-16.45,5.69-.19,2.11-4.49,11.9-.53,1.16,4.12,20.18-.52,20.81,2.36,1-5,13-1,2.17,4.85,1.1,1.46,1.82,15.91-2.41.79-1.07,10.17.57,9-6.68,5.4-8.86,3.58-18.48-1.52-18.51-.1Z" transform="translate(-455.47 -317.37)"/><path class="cls-12" d="M1201.71,512.07l2,15.08,11.39.75,4.94-1,3.12-4.89-2.64-6.2Zm-19.86-11.21,2.36,12.54-1,14.35-1.7,9.77-11.36,4.39-16.32,3.69-16.52-1.75.88-22.48-1-22.55,15.67,1.94,15.48-4.07Zm1.08,98.49,2.33,12.27-1,14.11-1.8,9.58L1171,639.66l-16.65,3.69-16.84-1.75.88-22.13-1-22.2,16,1.94,15.77-4.07Zm-43.28-36.52-1.88-13.11,21.07.86,20.75,0,.5-3.26,14.29-3.51-.53,6.25,17.73.9,1.48-6.74,12.45,2,2,2.17,8.53,1.2-2.39,13.83-19.1.25-19,2.7,10.15,4.67,4.41,5.84,6.82,2.81,17.62-1.36,2,16-19.85-3.14-13.77.3-6.55-1.61-9.72-10.72-5.53,10.28-8.68.41-12.31,2.18-20.22-1.09.07-11.55,19.7.18,6.74-4.31,5-2.4,5.2-7.81-19.25.47Zm9.81-50.39,1.94,15.48,12.45.77,4.88-1.09,3.23-5.09-2.62-6.35Zm.48,98.19,1.89,15.26,12.84.78,5-1.13,3.25-5-2.59-6.18Zm83.71-11,2.34,12.08-1,13.92-1.75,9.58-11.48,4.19-16.15,3.7-16.35-1.76.88-21.85-1-21.93,15.61,1.94,15.43-4.07ZM1233,501l2.36,12.14-1,13.95-1.72,9.54-11.34,4.16-15.85,3.69-16-1.75.88-21.85-1-21.93,15.36,1.94,15.17-4.07Zm-31.51,109.78,1.94,15.1,12,.76,4.34-.62,2.94-1.29-2.8-4,1.79-7.67Z" transform="translate(-455.47 -317.37)"/><path class="cls-13" d="M1201.71,512.07l2,15.08,11.39.75,4.94-1,3.12-4.89-2.64-6.2Zm-19.86-11.21,2.36,12.54-1,14.35-1.7,9.77-11.36,4.39-16.32,3.69-16.52-1.75.88-22.48-1-22.55,15.67,1.94,15.48-4.07Zm1.08,98.49,2.33,12.27-1,14.11-1.8,9.58L1171,639.66l-16.65,3.69-16.84-1.75.88-22.13-1-22.2,16,1.94,15.77-4.07Zm-43.28-36.52-1.88-13.11,21.07.86,20.75,0,.5-3.26,14.29-3.51-.53,6.25,17.73.9,1.48-6.74,12.45,2,2,2.17,8.53,1.2-2.39,13.83-19.1.25-19,2.7,10.15,4.67,4.41,5.84,6.82,2.81,17.62-1.36,2,16-19.85-3.14-13.77.3-6.55-1.61-9.72-10.72-5.53,10.28-8.68.41-12.31,2.18-20.22-1.09.07-11.55,19.7.18,6.74-4.31,5-2.4,5.2-7.81-19.25.47Zm9.81-50.39,1.94,15.48,12.45.77,4.88-1.09,3.23-5.09-2.62-6.35Zm.48,98.19,1.89,15.26,12.84.78,5-1.13,3.25-5-2.59-6.18Zm83.71-11,2.34,12.08-1,13.92-1.75,9.58-11.48,4.19-16.15,3.7-16.35-1.76.88-21.85-1-21.93,15.61,1.94,15.43-4.07ZM1233,501l2.36,12.14-1,13.95-1.72,9.54-11.34,4.16-15.85,3.69-16-1.75.88-21.85-1-21.93,15.36,1.94,15.17-4.07Zm-31.51,109.78,1.94,15.1,12,.76,4.34-.62,2.94-1.29-2.8-4,1.79-7.67Z" transform="translate(-455.47 -317.37)"/><path class="cls-14" d="M728,500.19l13.46-.66.43,18.1.62,17.69L740.72,553l.63,17.69,1.47,17.68-2.28,17.69.71,17.69L741,632l-3.5,9.24-10.59,2.22-17,2.14,1.52-17.8L723,629l5.42-3.55-.38-5,.21-17.2L727,586l1.27-17.19-2-17.21-.35-17.2.91-17.22Zm-78.29,4,12.34-1-1.8,10.66,5,.18,1.6-13.38,13.52-.43.8,13,18.4,1.83.45,16.75-19.67.14-.26,14.45,20.86,1.3,1.45,16-23-1.57-.4,17.52,20.62-.43.7,20-.21,20.95-1.54,15.59-10,3.15-6.34,1-.4-18.22,2.78-.72,3.88,1.07-1.8-6,1-21.22h-7.87l-1.53,16.77L682,628.12l-1.7,16.81-13-.58-.94-16.23,2.12-16.66-3.82-15.58-4.94-.54-3.26,21.87.77,21.78-13.75,1.62-.72-21.48,2.37-20.49,1.46-18.84,20.86-.68-1.72-14.49-22.19-3-1.07-15.43,23.07-1.79.32-12.24L657,533.68l-4.11.09-1.71,3.37-5.76-.65-.87,1.84-.24-15.22-.29-2.39L646.7,518Zm69.53-1.22,1,16.57.29,16.81.62,16.81-1.83,16.81.63,16.81,1.47,16.82-2.2,16.57-12.91.44-.23-17,.44-16.81L708.2,570l-2.4-16.81,1.93-16.82.64-16.81-.65-16Z" transform="translate(-455.47 -317.37)"/><path class="cls-15" d="M728,500.19l13.46-.66.43,18.1.62,17.69L740.72,553l.63,17.69,1.47,17.68-2.28,17.69.71,17.69L741,632l-3.5,9.24-10.59,2.22-17,2.14,1.52-17.8L723,629l5.42-3.55-.38-5,.21-17.2L727,586l1.27-17.19-2-17.21-.35-17.2.91-17.22Zm-78.29,4,12.34-1-1.8,10.66,5,.18,1.6-13.38,13.52-.43.8,13,18.4,1.83.45,16.75-19.67.14-.26,14.45,20.86,1.3,1.45,16-23-1.57-.4,17.52,20.62-.43.7,20-.21,20.95-1.54,15.59-10,3.15-6.34,1-.4-18.22,2.78-.72,3.88,1.07-1.8-6,1-21.22h-7.87l-1.53,16.77L682,628.12l-1.7,16.81-13-.58-.94-16.23,2.12-16.66-3.82-15.58-4.94-.54-3.26,21.87.77,21.78-13.75,1.62-.72-21.48,2.37-20.49,1.46-18.84,20.86-.68-1.72-14.49-22.19-3-1.07-15.43,23.07-1.79.32-12.24L657,533.68l-4.11.09-1.71,3.37-5.76-.65-.87,1.84-.24-15.22-.29-2.39L646.7,518Zm69.53-1.22,1,16.57.29,16.81.62,16.81-1.83,16.81.63,16.81,1.47,16.82-2.2,16.57-12.91.44-.23-17,.44-16.81L708.2,570l-2.4-16.81,1.93-16.82.64-16.81-.65-16Z" transform="translate(-455.47 -317.37)"/><path class="cls-14" d="M806.11,499.42l16.67-2.1-2.92,12.42,14.34.6,15.56,2.93,15.59-2.06-.27,18.93-16.57.33-16.84.72-15.46.79L814.6,544.8l.65,13.93,16.64,2.21L849,558.57l16.63,1,.37,18.81-17,1.39L831.89,576l-17.82,1.58,2.87,15.58-.5,12.82L832,609.53l17.19-1.27,17.71-.87.22,20.14-17.93,1L832,626.65l-16.89.5,1.16,19.13-16.06-1.44-.62-19-.17-19.25.44-19.26,1.63-19.25-2.34-19-5.9-.7.69-19.2,1.11,1.16,6-11.73Zm-23.76.08,17.55-1.86L795,515.07l-5.83,15.17-2.87,19,2.11,19.12L788,587.53l.45,19.13.72,19.14.85,20.43-16.4-1.36-.83-19.14,2.37-19.29-2.38-19.28L774,567.88l-.5-19.32-9,.55,3.66-18.31.21.82.68-3.46,1-3,8.68-12.11Z" transform="translate(-455.47 -317.37)"/><path class="cls-15" d="M806.11,499.42l16.67-2.1-2.92,12.42,14.34.6,15.56,2.93,15.59-2.06-.27,18.93-16.57.33-16.84.72-15.46.79L814.6,544.8l.65,13.93,16.64,2.21L849,558.57l16.63,1,.37,18.81-17,1.39L831.89,576l-17.82,1.58,2.87,15.58-.5,12.82L832,609.53l17.19-1.27,17.71-.87.22,20.14-17.93,1L832,626.65l-16.89.5,1.16,19.13-16.06-1.44-.62-19-.17-19.25.44-19.26,1.63-19.25-2.34-19-5.9-.7.69-19.2,1.11,1.16,6-11.73Zm-23.76.08,17.55-1.86L795,515.07l-5.83,15.17-2.87,19,2.11,19.12L788,587.53l.45,19.13.72,19.14.85,20.43-16.4-1.36-.83-19.14,2.37-19.29-2.38-19.28L774,567.88l-.5-19.32-9,.55,3.66-18.31.21.82.68-3.46,1-3,8.68-12.11Z" transform="translate(-455.47 -317.37)"/><path class="cls-14" d="M968.56,629.26l6.55-.08L972.56,613l1.94-16-3.5.61L967.14,613Zm-78-78.7,13.14-.09,4.21,14-.82,4.6,1.81-.78,4.27,2.8L915.26,589l-9.92-1.53-8.11-1.68-4.75-5.54,1.38-10.11Zm11.54,44.75,13.63-.12.49,17.38-3.93,16.94.24,8-6.42,4.23-2.85,4.41-6.69-1.34-6.06,1.29-2.13-18.6,5.71,1.32,3.92-1.51-1.44-5.77Zm-11-92.45,13.24-.09,4,15.89,1.2,5.7,7.71-.13-3.74,17.84-6.72,1.19-5.61-2.51-4.5-2.14-4.28-5.15L894,524Zm98.32,126.31.28,16.06-18.41,2.53-18.49-1.9-18.49,1.71L917,644l-1.6-15,5.2.37L919.42,613l-2.17-16.13,2.69-15.48,16.54,0,17.17-2.9,17.17.42,17.69,1.24-2.63,16.69L988,613l-.35,16.17Zm-70.32-57.38L919,554.5l-2.56-17.56,1.9-17.55-1.06-19.14,18.83,3.33,17.22-2.21,17.22,1.78,17.15-1.25,2.15,17.34-3,17.41.23,17.41,2.21,7.67-2.83,7.34L980,572.22l-7-2.28-18,2.11-18-.35Zm19.18,24.93-6.34.08L934.52,613l-1.93,16,3.26-.59L939.72,613Zm-5.79-79,.11,11.13,20.61-2.54,20.3,2-.79-8.24-19.5-3.75Zm0,38.47,18.9-.19,18.71-2.56,2.63,1.27-1.2-4.07,2.73-7.47-21,2.14-21.18-1.61Zm24.35,40.54-6.77.09L952.63,613l-1.94,16,3.73-.63,3.85-15.3Z" transform="translate(-455.47 -317.37)"/><path class="cls-15" d="M968.56,629.26l6.55-.08L972.56,613l1.94-16-3.5.61L967.14,613Zm-78-78.7,13.14-.09,4.21,14-.82,4.6,1.81-.78,4.27,2.8L915.26,589l-9.92-1.53-8.11-1.68-4.75-5.54,1.38-10.11Zm11.54,44.75,13.63-.12.49,17.38-3.93,16.94.24,8-6.42,4.23-2.85,4.41-6.69-1.34-6.06,1.29-2.13-18.6,5.71,1.32,3.92-1.51-1.44-5.77Zm-11-92.45,13.24-.09,4,15.89,1.2,5.7,7.71-.13-3.74,17.84-6.72,1.19-5.61-2.51-4.5-2.14-4.28-5.15L894,524Zm98.32,126.31.28,16.06-18.41,2.53-18.49-1.9-18.49,1.71L917,644l-1.6-15,5.2.37L919.42,613l-2.17-16.13,2.69-15.48,16.54,0,17.17-2.9,17.17.42,17.69,1.24-2.63,16.69L988,613l-.35,16.17Zm-70.32-57.38L919,554.5l-2.56-17.56,1.9-17.55-1.06-19.14,18.83,3.33,17.22-2.21,17.22,1.78,17.15-1.25,2.15,17.34-3,17.41.23,17.41,2.21,7.67-2.83,7.34L980,572.22l-7-2.28-18,2.11-18-.35Zm19.18,24.93-6.34.08L934.52,613l-1.93,16,3.26-.59L939.72,613Zm-5.79-79,.11,11.13,20.61-2.54,20.3,2-.79-8.24-19.5-3.75Zm0,38.47,18.9-.19,18.71-2.56,2.63,1.27-1.2-4.07,2.73-7.47-21,2.14-21.18-1.61Zm24.35,40.54-6.77.09L952.63,613l-1.94,16,3.73-.63,3.85-15.3Z" transform="translate(-455.47 -317.37)"/><path class="cls-14" d="M1095.09,549.06l-21.19,2.61-21-1.93.35,14.08,18.94-2,19.07,4.44,2.76-3.37,2.07-4.33ZM1053.82,507l3.58-8.81,12.27,1.87,5.8,5.66,18.8-1.95,17.34,3.87,1.55,15-20.28-1.48-20.24,3.24-20.24-2.1-19.24,1.49-2.31,15.56,2.15,16.77.15,16.77.65,16.78-3.75,16.78-.25,16.77,2.92,9-5.08,7.89-9.07,5.68-6.83.36,2.6-17.31v2.36l2.62-3.82-1-4.21,3.87-16.75.26-16.76-.36-16.75-3.12-16.76,2.42-16.75.12-16.76-.72-16.27,17.34-1.33Zm8.4,99.95,8.18,4,12.72-9.58-15.72.33-15.33,2-13.71-3.75-1.68-14.2,18.87,1.49,18.82-3.24,18.82,2.09,19.73-1.55-2.07,14.1L1099,611.82l-13.36,11.93,3.75.6,3.22,6,6.85.88,13.68-2.9-1.8,15-18.21,1.59-8.14.81-5.18-6-8.66-7.42-11.35,10.15-13,5.2-11.1-3.17.48-13.7,5.12.9,5.26-3.81,6.71-.74,5-4.65L1038,606ZM1040.51,579l-2.29-14,2-15-5.27.18-1.87-16.93,8.64,1.87-1.92-8.3,12.69,1.33,1.24,4,20.19,2,20.28-1.76,1.07-4.29,14.26-1.94.48,7.19,5.09.1-3.63,16.14-4.5-.32,3,11.89-3.16,8.43-.8,7.27-10.74,4.92L1076.8,579l-18.44-1.57Z" transform="translate(-455.47 -317.37)"/><path class="cls-15" d="M1095.09,549.06l-21.19,2.61-21-1.93.35,14.08,18.94-2,19.07,4.44,2.76-3.37,2.07-4.33ZM1053.82,507l3.58-8.81,12.27,1.87,5.8,5.66,18.8-1.95,17.34,3.87,1.55,15-20.28-1.48-20.24,3.24-20.24-2.1-19.24,1.49-2.31,15.56,2.15,16.77.15,16.77.65,16.78-3.75,16.78-.25,16.77,2.92,9-5.08,7.89-9.07,5.68-6.83.36,2.6-17.31v2.36l2.62-3.82-1-4.21,3.87-16.75.26-16.76-.36-16.75-3.12-16.76,2.42-16.75.12-16.76-.72-16.27,17.34-1.33Zm8.4,99.95,8.18,4,12.72-9.58-15.72.33-15.33,2-13.71-3.75-1.68-14.2,18.87,1.49,18.82-3.24,18.82,2.09,19.73-1.55-2.07,14.1L1099,611.82l-13.36,11.93,3.75.6,3.22,6,6.85.88,13.68-2.9-1.8,15-18.21,1.59-8.14.81-5.18-6-8.66-7.42-11.35,10.15-13,5.2-11.1-3.17.48-13.7,5.12.9,5.26-3.81,6.71-.74,5-4.65L1038,606ZM1040.51,579l-2.29-14,2-15-5.27.18-1.87-16.93,8.64,1.87-1.92-8.3,12.69,1.33,1.24,4,20.19,2,20.28-1.76,1.07-4.29,14.26-1.94.48,7.19,5.09.1-3.63,16.14-4.5-.32,3,11.89-3.16,8.43-.8,7.27-10.74,4.92L1076.8,579l-18.44-1.57Z" transform="translate(-455.47 -317.37)"/><path class="cls-14" d="M1206.57,519l.2,10.22,10.28.17,4.44-.25L1224,525l-1.42-5.85Zm-19.44-18.63.53,16.07-.9,14.35-2.38,10L1172.15,546l-16.32,2.85-16-2.36L1138,524.39l1.31-22.48,15.55,1.08,15.38.06Zm1,98.42.56,15.87-.9,14.11-2.49,9.84L1173,643.77l-16.65,2.86-16.38-2.36-1.79-21.78,1.31-22.13,15.85,1.08,15.68.06Zm-49.45-29,.18-18.18,21.93.51,20.55.63.35-3.43,14.72-2.71-.76,7.07,17.26-1.78,2.15-4.49,12.71,1.1-.18,5.68,8.13-.27,1.89,15.28-21.11-1.7-20,.58,11.08,6,3.75,7.82,7.54-1.6,17.47,1.17,2.07,15.71-19.76-1.67-14.33.13-3.55-5.53-12.16-8.27-6.52,9.83-6.94,4.82-13.06-2.82-20.2.19L1140,579.67l21.62,2.5,7.13-2.82,3.06-4.66,7.28-7.58-19.81-1.68Zm15.57-50.33.19,10.55,11.36.21,4.39-.3,2.62-4.32-1.39-6Zm.4,98.25.19,10.24,11.78.26,4.53-.34,2.65-4.21-1.35-5.83Zm84.22-18.55.56,15.67-.91,13.92-2.43,9.83-12.35,5-16.15,2.86L1191.72,644l-1.79-21.5,1.32-21.85,15.49,1.08,15.33.06Zm-.59-98.67.54,15.69-.9,14-2.41,9.8-12.21,5-15.85,2.86-15.58-2.36-1.79-21.51,1.31-21.85,15.24,1.08,15.07.06Zm-32,117.27.2,10.16,10.86.21,3.83.17,2.47-1-2.09-3.52,2.28-8.2Z" transform="translate(-455.47 -317.37)"/><path class="cls-15" d="M1206.57,519l.2,10.22,10.28.17,4.44-.25L1224,525l-1.42-5.85Zm-19.44-18.63.53,16.07-.9,14.35-2.38,10L1172.15,546l-16.32,2.85-16-2.36L1138,524.39l1.31-22.48,15.55,1.08,15.38.06Zm1,98.42.56,15.87-.9,14.11-2.49,9.84L1173,643.77l-16.65,2.86-16.38-2.36-1.79-21.78,1.31-22.13,15.85,1.08,15.68.06Zm-49.45-29,.18-18.18,21.93.51,20.55.63.35-3.43,14.72-2.71-.76,7.07,17.26-1.78,2.15-4.49,12.71,1.1-.18,5.68,8.13-.27,1.89,15.28-21.11-1.7-20,.58,11.08,6,3.75,7.82,7.54-1.6,17.47,1.17,2.07,15.71-19.76-1.67-14.33.13-3.55-5.53-12.16-8.27-6.52,9.83-6.94,4.82-13.06-2.82-20.2.19L1140,579.67l21.62,2.5,7.13-2.82,3.06-4.66,7.28-7.58-19.81-1.68Zm15.57-50.33.19,10.55,11.36.21,4.39-.3,2.62-4.32-1.39-6Zm.4,98.25.19,10.24,11.78.26,4.53-.34,2.65-4.21-1.35-5.83Zm84.22-18.55.56,15.67-.91,13.92-2.43,9.83-12.35,5-16.15,2.86L1191.72,644l-1.79-21.5,1.32-21.85,15.49,1.08,15.33.06Zm-.59-98.67.54,15.69-.9,14-2.41,9.8-12.21,5-15.85,2.86-15.58-2.36-1.79-21.51,1.31-21.85,15.24,1.08,15.07.06Zm-32,117.27.2,10.16,10.86.21,3.83.17,2.47-1-2.09-3.52,2.28-8.2Z" transform="translate(-455.47 -317.37)"/><path class="cls-16" d="M523.91,697.09h828c-1.29,2-90.1-35.2-122.93-53.65-33.17-18.66-62.67,8.92-87.72,9.06s-23.17-15.4-38.16-15.53-7.9,4.32-28.87,8.07-65.56-1.36-86.13-3.83-75.31,13-95.44,15.64c-25,3.31-28.58-7.76-53.13-20.21s-57,11.49-96.81,11.06-48.89-30-75.35-16.08A1477,1477,0,0,1,523.91,697.09Z" transform="translate(-455.47 -317.37)"/><text class="cls-17" transform="translate(206.02 129.3)">鼠标滚动开始闯关</text></svg>