<svg id="图层_3" data-name="图层 3" xmlns="http://www.w3.org/2000/svg" viewBox="0 0 562.95 435.98"><defs><style>.cls-1{fill:#4fb363;}.cls-2{fill:#60d978;}.cls-3{fill:#e6e6e6;}.cls-4{fill:#ccc;}.cls-5{fill:#efefef;}.cls-6{fill:#ddd;}.cls-7{fill:#fc5b6f;}.cls-8{fill:#f74352;}.cls-9{fill:#ceccca;}.cls-10{fill:#7d92a8;}.cls-11{fill:#647892;}.cls-12{fill:#546a82;}.cls-13{fill:#2f84ea;}.cls-14{fill:#ed5a2d;}.cls-15{fill:#212121;stroke:#212121;stroke-miterlimit:10;stroke-width:6px;}.cls-16{font-size:22.77px;font-family:MicrosoftYaHei-Bold, Microsoft YaHei;font-weight:700;letter-spacing:0.2em;}.cls-16,.cls-20{fill:#fff;}.cls-17{fill:#9ad6d4;}.cls-18{fill:#ffaa0e;}.cls-19{fill:#57bab7;}.cls-21{fill:#ff3776;}</style></defs><title>16</title><path class="cls-1" d="M1078.53,714.22s7.83-15-11.25-43.83c0,0,18.59,7.21,26.42,27.18,0,0,3.42-27.18-13.21-52.15,0,0,11.25,2.77,20.06,16.64,0,0,16.63-45.5,40.61-54.38,0,0-29.85,54.38-17.13,106.52h-45.5Z" transform="translate(-663.49 -291)"/><path class="cls-2" d="M1124.19,714.22s20.06-41.06-12.23-101c0,0,34.25,7.21,40.61,83.22,0,0,8.8-22.75-5.39-68.8,0,0,18.59,9.43,25,33.29,0,0,7.84-35.51,36.7-53.26,0,0-22,39.39-19.08,77.68,0,0,7.34-18.87,25-28.86,0,0-12.72,20.53-11.25,43.84,0,0-2-14.43,23-29.41,0,0-13.21,27.18-9.78,43.27h-92.47Z" transform="translate(-663.49 -291)"/><path class="cls-3" d="M1149.7,714.28l-5.24-23.66-15.34-4.16L1118,665.19l-38.86-11.38-25,20.38-11.54,24.87v15.22Z" transform="translate(-663.49 -291)"/><path class="cls-3" d="M1042.53,699.06v15.22h50.67V657.94l-14.1-4.13-25,20.38Z" transform="translate(-663.49 -291)"/><path class="cls-4" d="M1118,665.19v38.39l11.16-17.12Z" transform="translate(-663.49 -291)"/><path class="cls-4" d="M1079.1,653.81l-16.93,34-8.1-13.65Z" transform="translate(-663.49 -291)"/><path class="cls-4" d="M1144.46,690.62l-8.25,23.66h13.49Z" transform="translate(-663.49 -291)"/><path class="cls-4" d="M1042.53,699.06,1056,714.28h-13.46Z" transform="translate(-663.49 -291)"/><path class="cls-3" d="M1190.52,727,1187,711.09l-10.3-2.8L1169.2,694l-26.11-7.64-16.81,13.68-7.75,16.71V727Z" transform="translate(-663.49 -291)"/><path class="cls-3" d="M1118.53,716.76V727h34V689.14l-9.48-2.77-16.81,13.68Z" transform="translate(-663.49 -291)"/><path class="cls-4" d="M1169.2,694v25.78l7.49-11.5Z" transform="translate(-663.49 -291)"/><path class="cls-4" d="M1143.09,686.37l-11.36,22.85-5.45-9.17Z" transform="translate(-663.49 -291)"/><path class="cls-4" d="M1187,711.09,1181.46,727h9.06Z" transform="translate(-663.49 -291)"/><path class="cls-4" d="M1118.53,716.76l9,10.22h-9Z" transform="translate(-663.49 -291)"/><path class="cls-5" d="M934.07,436.51c-65.76,58.72-212,90.11-212,90.11h434.38s-146.21-31.39-212-90.11C942.39,434.62,936.19,434.62,934.07,436.51Z" transform="translate(-663.49 -291)"/><path class="cls-6" d="M935.52,436.51a3.62,3.62,0,0,1,2.44-1.35,7.15,7.15,0,0,0-3.89,1.35c-65.76,58.72-212,90.11-212,90.11h80.2S894.19,495.23,935.52,436.51Z" transform="translate(-663.49 -291)"/><path class="cls-5" d="M886.68,573.63c-4.11,0-7.43-1.43-7.43-3.2V550.86c0-1.77,3.32-3.21,7.43-3.21s7.44,1.44,7.44,3.21v19.57C894.12,572.2,890.79,573.63,886.68,573.63Z" transform="translate(-663.49 -291)"/><path class="cls-5" d="M990.31,573.63c-4.11,0-7.44-1.43-7.44-3.2V550.86c0-1.77,3.33-3.21,7.44-3.21s7.43,1.44,7.43,3.21v19.57C997.74,572.2,994.41,573.63,990.31,573.63Z" transform="translate(-663.49 -291)"/><path class="cls-7" d="M1148.08,551.71h-418c-4.4,0-8-1.53-8-3.43V526.62h434.38v21.47C1156.48,550.09,1152.72,551.71,1148.08,551.71Z" transform="translate(-663.49 -291)"/><path class="cls-8" d="M801.38,548.28V526.62H722.1v21.66c0,1.9,3.56,3.43,8,3.43h79.28C805,551.71,801.38,550.18,801.38,548.28Z" transform="translate(-663.49 -291)"/><path class="cls-6" d="M937.38,436.51c-24,58.72-77.38,90.11-77.38,90.11h158.57s-53.37-31.39-77.38-90.11A2,2,0,0,0,937.38,436.51Z" transform="translate(-663.49 -291)"/><path class="cls-9" d="M940.45,435.51a2,2,0,0,0-3.07,1c-24,58.72-77.38,90.11-77.38,90.11h46.09s23.48-31.39,34-90.11A3.23,3.23,0,0,1,940.45,435.51Z" transform="translate(-663.49 -291)"/><rect class="cls-10" x="106.77" y="261.09" width="19.49" height="160.32"/><rect class="cls-11" x="126.36" y="261.09" width="19.49" height="160.32"/><rect class="cls-11" x="106.77" y="261.09" width="19.49" height="33.93"/><rect class="cls-12" x="126.26" y="261.09" width="19.49" height="33.93"/><polyline class="cls-10" points="416.26 261.08 416.26 421.4 396.77 421.4 396.77 261.08"/><polyline class="cls-11" points="435.85 261.08 435.85 421.4 416.36 421.4 416.36 261.08"/><polyline class="cls-11" points="416.26 261.08 416.26 295.01 396.77 295.01 396.77 261.08"/><polyline class="cls-12" points="435.75 261.08 435.75 295.01 416.26 295.01 416.26 261.08"/><rect class="cls-13" x="132.53" y="32.19" width="297.27" height="70.21"/><rect class="cls-14" x="124.13" y="23.85" width="297.27" height="70.21"/><line class="cls-15" x1="175.26" x2="175.26" y2="44.36"/><circle class="cls-15" cx="175.26" cy="42.04" r="5.66"/><line class="cls-15" x1="372.6" x2="372.6" y2="44.36"/><circle class="cls-15" cx="372.6" cy="42.04" r="5.66"/><text class="cls-16" transform="translate(167.19 71.49) rotate(-0.08)">第二站：模拟操练</text><path class="cls-17" d="M770.21,671.47l-1.67,29.62L748.4,663.83l-4.46,2.42,20.13,37.25-25.69-14.82-2.45,4.49,33.43,19.29a2.5,2.5,0,0,0,3.77-2l2.18-38.53Z" transform="translate(-663.49 -291)"/><path class="cls-18" d="M709.7,638.91a30.53,30.53,0,0,0-42.39,11.61c-8.26,15.18-2.69,34.58,12.46,43.34,14.65,8.48,38.05,2.84,52.58-4.17l4.71,8.4,6-11-9.4.25C731.86,670.91,724.35,647.38,709.7,638.91Z" transform="translate(-663.49 -291)"/><path class="cls-19" d="M744.28,620.21a30.52,30.52,0,0,1,32.94-29.09c17.22,1.4,30.4,16.69,29.44,34.16-.94,16.9-18.48,33.39-32.3,41.71l4.44,8.54-12.46-1,5.36-7.73C758.92,656.29,743.35,637.11,744.28,620.21Z" transform="translate(-663.49 -291)"/><path class="cls-20" d="M685.9,687.24a2.51,2.51,0,0,1-2.46,0,24.54,24.54,0,0,1-9.44-32.7,2.49,2.49,0,0,1,3.46-1,2.66,2.66,0,0,1,1,3.54,19.22,19.22,0,0,0,7.39,25.61,2.66,2.66,0,0,1,1,3.55A2.47,2.47,0,0,1,685.9,687.24Z" transform="translate(-663.49 -291)"/><path class="cls-21" d="M751.22,588.42c-11-20.44-36.1-28.31-56-17.57s-27,36-16,56.45c10.67,19.75,41,30.29,62.25,33l-.46,11.42,13.47-7.28-9.81-5.87C754.12,639.3,761.9,608.17,751.22,588.42Z" transform="translate(-663.49 -291)"/><path class="cls-20" d="M689.46,624.76h0a2.57,2.57,0,0,1-3.47-1.09c-9-16.6-3.14-37.21,13-45.93a2.62,2.62,0,0,1,2.49,4.6c-13.68,7.39-18.62,24.85-11,38.92A2.57,2.57,0,0,1,689.46,624.76Z" transform="translate(-663.49 -291)"/></svg>