<svg id="图层_3" data-name="图层 3" xmlns="http://www.w3.org/2000/svg" xmlns:xlink="http://www.w3.org/1999/xlink" viewBox="0 0 376.47 167.28"><defs><style>.cls-1{fill:#e6e6e6;}.cls-2{fill:#ccc;}.cls-3{fill:#8cc152;}.cls-4{fill:#a0d468;}.cls-5{fill:url(#未命名的渐变_24);}.cls-6{fill:url(#未命名的渐变_24-2);}.cls-7{fill:url(#未命名的渐变_24-3);}</style><linearGradient id="未命名的渐变_24" x1="911.01" y1="583.18" x2="911.01" y2="573.7" gradientUnits="userSpaceOnUse"><stop offset="0" stop-color="#fcdac8"/><stop offset="1" stop-color="#fcb282"/></linearGradient><linearGradient id="未命名的渐变_24-2" x1="979.72" y1="584.94" x2="979.72" y2="572.49" xlink:href="#未命名的渐变_24"/><linearGradient id="未命名的渐变_24-3" x1="1103.71" y1="575.53" x2="1103.71" y2="567.08" xlink:href="#未命名的渐变_24"/></defs><title>5</title><path class="cls-1" d="M754.45,575.64l13-58.76,37.91-10.34,27.6-52.85L929,425.42,990.92,476l28.53,61.81v37.79Z" transform="translate(-754.45 -425.42)"/><path class="cls-1" d="M1019.46,537.85v37.79H894.16v-140L929,425.42,990.92,476Z" transform="translate(-754.45 -425.42)"/><path class="cls-2" d="M832.94,453.69v95.39l-27.6-42.54Z" transform="translate(-754.45 -425.42)"/><path class="cls-2" d="M929,425.42,970.89,510l20-33.91Z" transform="translate(-754.45 -425.42)"/><path class="cls-2" d="M767.43,516.88l20.38,58.76H754.45Z" transform="translate(-754.45 -425.42)"/><path class="cls-2" d="M1019.45,537.85l-33.28,37.79h33.28Z" transform="translate(-754.45 -425.42)"/><path class="cls-3" d="M932.13,480.23c-3.89,0-7,3.44-7,7.7v30.8c0,4.25-3.15,7.7-7,7.7h-7c-3.89,0-7,3.44-7,7.7s3.15,7.7,7,7.7h7c11.64,0,21.12-10.37,21.12-23.1v-30.8C939.17,483.67,936,480.23,932.13,480.23Z" transform="translate(-754.45 -425.42)"/><path class="cls-3" d="M918.05,518.73c0-4.26-3.14-7.7-7-7.7h-7c-3.88,0-7-3.45-7-7.7v-15.4c0-4.26-3.15-7.7-7-7.7s-7,3.44-7,7.7v15.4c0,12.73,9.47,23.1,21.11,23.1h7C914.91,526.43,918.05,523,918.05,518.73Z" transform="translate(-754.45 -425.42)"/><path class="cls-4" d="M911,580.33c-3.89,0-7-3.44-7-7.7V472.53c0-4.26,3.15-7.71,7-7.71s7,3.45,7,7.71v100.1C918.05,576.89,914.91,580.33,911,580.33Z" transform="translate(-754.45 -425.42)"/><path class="cls-5" d="M884.62,583.18s9.73-8.63,14-9.28,10.16,4.48,13.44,4.51,6.14-5.86,8.59-4.51l16.79,9.28Z" transform="translate(-754.45 -425.42)"/><path class="cls-3" d="M1004.47,449.7c-4.57,0-8.25,4.52-8.25,10.12v40.46c0,5.58-3.7,10.11-8.25,10.11h-8.25c-4.57,0-8.25,4.52-8.25,10.12s3.68,10.11,8.25,10.11H988c13.64,0,24.75-13.62,24.75-30.34V459.82C1012.72,454.22,1009,449.7,1004.47,449.7Z" transform="translate(-754.45 -425.42)"/><path class="cls-3" d="M988,500.28c0-5.6-3.69-10.12-8.25-10.12h-8.25c-4.56,0-8.25-4.53-8.25-10.11V459.82c0-5.6-3.69-10.12-8.25-10.12s-8.25,4.52-8.25,10.12v20.23c0,16.72,11.1,30.34,24.75,30.34h8.25C984.28,510.39,988,505.87,988,500.28Z" transform="translate(-754.45 -425.42)"/><path class="cls-4" d="M979.72,581.19c-4.57,0-8.25-4.51-8.25-10.11V439.59c0-5.6,3.68-10.12,8.25-10.12S988,434,988,439.59V571.08C988,576.68,984.28,581.19,979.72,581.19Z" transform="translate(-754.45 -425.42)"/><path class="cls-6" d="M948.79,584.94s11.4-11.34,16.36-12.19,11.91,5.88,15.75,5.92,7.19-7.69,10.06-5.92l19.69,12.19Z" transform="translate(-754.45 -425.42)"/><path class="cls-3" d="M1120.72,483.85c-3.14,0-5.67,3.06-5.67,6.85v27.43c0,3.79-2.54,6.86-5.67,6.86h-5.67c-3.13,0-5.66,3.07-5.66,6.86s2.53,6.85,5.66,6.85h5.67c9.38,0,17-9.23,17-20.57V490.7C1126.39,486.91,1123.86,483.85,1120.72,483.85Z" transform="translate(-754.45 -425.42)"/><path class="cls-3" d="M1109.38,518.13c0-3.79-2.53-6.86-5.67-6.86h-5.66c-3.13,0-5.67-3.07-5.67-6.85V490.7c0-3.79-2.53-6.85-5.67-6.85s-5.67,3.06-5.67,6.85v13.72c0,11.34,7.63,20.57,17,20.57h5.66C1106.85,525,1109.38,521.92,1109.38,518.13Z" transform="translate(-754.45 -425.42)"/><path class="cls-4" d="M1103.71,573c-3.13,0-5.66-3.07-5.66-6.86V477c0-3.79,2.53-6.86,5.66-6.86s5.67,3.07,5.67,6.86v89.14C1109.38,569.92,1106.85,573,1103.71,573Z" transform="translate(-754.45 -425.42)"/><path class="cls-7" d="M1082.46,575.53s7.84-7.69,11.24-8.27,8.19,4,10.83,4,4.94-5.22,6.91-4l13.53,8.27Z" transform="translate(-754.45 -425.42)"/><path class="cls-1" d="M1004.59,592.69l6.18-25.43,18.07-4.47L1042,539.92l45.82-12.23,29.5,21.9,13.6,26.75v16.35Z" transform="translate(-754.45 -425.42)"/><path class="cls-1" d="M1130.92,576.34v16.35h-59.73V532.12l16.63-4.43,29.5,21.9Z" transform="translate(-754.45 -425.42)"/><path class="cls-2" d="M1042,539.92V581.2l-13.16-18.41Z" transform="translate(-754.45 -425.42)"/><path class="cls-2" d="M1087.82,527.69l20,36.58,9.55-14.68Z" transform="translate(-754.45 -425.42)"/><path class="cls-2" d="M1010.77,567.26l9.72,25.43h-15.9Z" transform="translate(-754.45 -425.42)"/><path class="cls-2" d="M1130.92,576.34l-15.87,16.35h15.87Z" transform="translate(-754.45 -425.42)"/></svg>