<svg id="图层_3" data-name="图层 3" xmlns="http://www.w3.org/2000/svg" viewBox="0 0 397.37 325.1"><defs><style>.cls-1{fill:#4fb363;}.cls-2{fill:#89522d;}.cls-3{fill:#6e4224;}.cls-4{fill:#60d978;}.cls-5{fill:#6e4325;}.cls-6{fill:#62dd7a;}.cls-7{fill:#61dc79;}.cls-8{fill:#61da79;}.cls-9{fill:#63da7b;}.cls-10{fill:#63dd7c;}.cls-11{fill:#64dc7c;}.cls-12{fill:#a96737;}.cls-13{fill:#0fa4bc;}.cls-14{fill:#40bac6;}.cls-15{fill:#4ed1d1;}.cls-16{fill:#fcdac8;}</style></defs><title>17</title><path class="cls-1" d="M893.91,412.92c7.21-.75,14.38-1.8,21.69-.94,16.13,1.88,29.91,8.7,41.56,20.27,1.32,1.31,1.47,2.12-.43,3-2.59,1.15-5.08,2.52-7.61,3.8-2.08.62-3.89-.19-5.7-1.08-8.16-4-16.5-7.55-24.45-12-2.32-.95-1.14.83-1,1.45,1.35,4.59,2.78,9.14,4.19,13.71-.07,2-1.17,1.05-2,.69a148,148,0,0,1-16.73-9.65c-1.24-.79-2.49-1.62-3.72-2.44l-4.38-2.64c1.56,4.27,2.89,7.88,4.31,11.77-4.11.16-7.79-1-11.55-1.31-3.08-1.1-5.09-3.64-7.38-5.8s-4.67-4.07-6.87-6.29c-3.1-3.12-4.27-2.89-6.91.84-2.11,3.1-3.82,6.45-5.93,9.53a7.52,7.52,0,0,1-2.74,3c-1.33,2.26-2.7,4.5-4,6.78s-2.34,4.37-3.83,7.15c-1.83-5.19-3.44-9.72-5-14.25-1.6-.75-.92.75-1,1.2-.62,4-1.66,7.94-2.58,11.9a8,8,0,0,1-2.17,4.31c-7.18,4-7.17,4-10-3.76-1.2-3.31-2.42-6.62-3.72-9.89-.11-.28-.53-2.37-1.32-.24a63.6,63.6,0,0,1-6.6,14.54c-5.7,4.32-11.28,2.33-16.93-.22-2.14-1-1-2.12-.5-3.26,6.17-13.88,16.43-23.21,30.16-28.7,8.82-3.53,18-5,27.48-5.88-4-1.19-7.89-2.47-11.88-3.56-2.16-.59-2.8-1.43-1.66-3.68,1.6-3.14,2.92-6.44,4.23-9.72.36-.92,1.53-1.87.43-3.06-6.88.4-13.7.23-20.26-2.34a4.68,4.68,0,0,1-.75-3.07c-.86-1.75,0-2.89,1.31-3.86,3.31-2.46,6.7-4.74,9.51-5.72-3.23,1.66-7.73,3.23-12.15,5a12.67,12.67,0,0,1-8.26.75,77.63,77.63,0,0,1-17.09-4.76,3.84,3.84,0,0,1-2.41-2.61c-2.12-6.22-4.39-12.39-6.72-18.53-.7-1.85-.63-2.87,1.54-3.13,15.11-1.81,30.08-1.73,44.55,3.94,17.3,6.79,28.4,19.66,34.33,37.51.55,1.67,1.06,3.35,1.77,5.62,1.39-5.22,2.56-9.87,3.88-14.47a82.45,82.45,0,0,1,5.1-13.46c3.6-7.38,8.13-14,15.14-18.35,7.33-4.56,15.14-4.74,23.23-2.52,1.87.51,1.76,1.38,1.23,2.68-1.32,3.27-2.7,6.53-4,9.79-4.42,3.24-10,3.29-14.61,5.71,2.6,0,5.34-.08,8.07.05,1.43.07,3-.14,3.73,1.73.37,4.2-1.83,7.55-3.76,10.82-1.43,2.41-4,.93-6.15.73A87.13,87.13,0,0,0,896.8,388c-1.49.27-1.47,1.64-1.66,2.67-.83,4.5-2.06,8.91-2.65,13.45-2.64,5.49-8.25,7.9-11.49,12C885,415.38,889,412.24,893.91,412.92Z" transform="translate(-743.83 -346.9)"/><path class="cls-2" d="M853.72,448.85q6.31-11.49,12.64-23c1.38,9.12,9.71,10.87,13.46,17.48.46,5.61,3.38,10.09,5.07,15.13,0,16.56,2.44,32.85,4,49.22,2.63,27.58,5.7,55.11,9,82.59,2.34,19.66,5.3,39.22,8,58.82-2.87,5.25-4.37,11.88-10.28,14.11-8.11.08-16-3.55-24.22-2-3.22.62-6.5,1.6-9.63-.5-3.27-8.24-1.84-16.8-1-25.23.31-3,2.82-4.08,5.27-4.44,2.87-.41,5.77-.11,8.65-.33-1.42.11-2.84,0-4.26,0-8.92-.1-10.34-2.08-9.56-12.66.66-9,.15-18.11.29-27.17.17-11,2.53-13.92,11.73-14.63-9.23-.29-10.29-1.7-10.62-12.17-.25-8.21,1.24-16.23,1.37-24.39.1-6.34,3.87-7.69,8.39-7.64-6.35-.18-7.6-1.11-7.25-8.34.65-13.55,1.72-27.08,3.35-40.53.47-3.91,1.92-6.88,5.88-7.17-1.47-1.07-3.75-1.62-3.72-3.67.09-6.92-4.3-8.77-8.4-11.13a7.21,7.21,0,0,1-1.3-1.34C859.45,455.21,859.51,449.54,853.72,448.85Z" transform="translate(-743.83 -346.9)"/><path class="cls-3" d="M860.56,459.9c3.33,1,6.67,2,10,3a1.93,1.93,0,0,1,1.28,2.58c-3,9.11,2.5,9.05,7.49,9.56a2.49,2.49,0,0,1,1,.51c.13.09.19.33.29.51,0,1.24-.79,1.41-1.55,1.49-8.74.87-9.06.82-10.18,11.27-1.21,11.16-1.59,22.45-2.63,33.65-.6,6.45,1.19,9.3,6.92,8.35,1.64-.28,3.48-.57,5.4,1-1.92,3-4.58,1.4-6.76,1.63-4.38.46-7.14,1.87-6.78,8.21.49,8.78-1.58,17.48-1.15,26.37.22,4.67,1.58,6.73,5.55,6.31,3.53-.37,6.83.68,10.67,2.28-2.84,3-5.79,1.63-8.4,1.74-6.92.3-8.64,2.41-8.91,10.67-.36,11.28,1,22.61-.91,33.88-.59,3.5,1.11,6,4.71,5.93,3.87-.12,7.74-.06,11.6.06,1.13,0,2.48.41,2.27,2.24-.14,1.3-1.27,1.65-2.25,1.67-3.48.07-7,.29-10.44,0-4.43-.35-6.4,1.5-6.17,7,.28,6.79.08,13.61.08,20.41a4.71,4.71,0,0,1-2.39,2.73c-7.49,4.18-9.82,2.54-9.8-6.93a49.15,49.15,0,0,1,.19-7.38c.23-40.29,1.16-80.56,3.86-120.74C855.09,505.08,856.72,482.33,860.56,459.9Z" transform="translate(-743.83 -346.9)"/><path class="cls-4" d="M919,426c4.67.49,8.39,3.43,12.54,5.23,5.9,2.54,11.47,5.85,17.61,7.84-2.46,1.42-5,2.69-7.35,4.28-2.53,1.72-4.45,1.52-6.6-.77C929.87,436.91,924.38,431.46,919,426Z" transform="translate(-743.83 -346.9)"/><path class="cls-5" d="M878.29,444.18c-3-1.95-3.94-4.84-3.66-8.31,2.1-1.75,4.68-2.75,6.7-4.63l6.85,6.29Q886.88,446.59,878.29,444.18Z" transform="translate(-743.83 -346.9)"/><path class="cls-6" d="M829.22,396.09a172.37,172.37,0,0,1,20.26,2.34c-5.33,2.15-10.67,4.29-16,6.46-1.51.62-2.47.59-2.84-1.47C830.19,401,829.1,398.66,829.22,396.09Z" transform="translate(-743.83 -346.9)"/><path class="cls-7" d="M916.82,378.4a3.85,3.85,0,0,0-.58.08c-2.87-1.65-6-.49-9-.76a42.54,42.54,0,0,1-6.08-.52,89.63,89.63,0,0,1,18.18-6.3Z" transform="translate(-743.83 -346.9)"/><path class="cls-8" d="M818.88,389.19c5.67.25,10.33-3.12,15.51-4.62a27,27,0,0,1,6.37-1.56c-3.29,2.18-6.61,4.32-9.87,6.54-1.21.82-2.63,1.57-2.42,3.47-1.3-2.39-3.81-1.84-5.78-2.64C821.43,389.87,819.91,390.34,818.88,389.19Z" transform="translate(-743.83 -346.9)"/><path class="cls-9" d="M899.8,429.71c7,3,13.31,7.32,19.94,11,.79.44,1.44,1.61,2.46.38.67.94.29,1.5-.69,1.33-3.44-.62-7-.62-9.93-3.26C907.84,435.8,903.31,433.43,899.8,429.71Z" transform="translate(-743.83 -346.9)"/><path class="cls-10" d="M839.76,455.86q2.19-8.52,4.38-17c.22-.87.43-2,1.35-.38-1.25,3.17-.72,6.5-.39,9.68C845.56,452.61,844,455.09,839.76,455.86Z" transform="translate(-743.83 -346.9)"/><path class="cls-11" d="M818.15,456.51c1-5.43,4.25-9.77,6.6-14.54-.64,3.79-1.3,7.58-1.92,11.38C822.38,456.18,820.09,456.05,818.15,456.51Z" transform="translate(-743.83 -346.9)"/><path class="cls-12" d="M881.33,431.24c-1,3.41-3.84,4.05-6.71,4.63-1.86-1.09-3.14-2.85-5.47-3.55-2.62-.79-2.63-3.9-2.72-6.46,2.54-4.87,4-5.11,8-1.31C876.71,426.77,879,429,881.33,431.24Z" transform="translate(-743.83 -346.9)"/><path class="cls-10" d="M896.11,386.75c-.92,4.19,1.27,7.77,2.14,11.61a20.79,20.79,0,0,1-6.49,6.28c0-6.18,2.4-11.91,3.16-17.95C895,386.22,895.71,386.34,896.11,386.75Z" transform="translate(-743.83 -346.9)"/><path class="cls-1" d="M980,402.77c-7.21-.75-14.38-1.8-21.69-.94-16.13,1.88-29.91,8.7-41.56,20.27-1.32,1.31-1.47,2.12.43,3,2.59,1.15,5.08,2.52,7.61,3.8,2.08.62,3.89-.19,5.7-1.08,8.16-4,16.5-7.56,24.45-12,2.32-.95,1.14.83,1,1.45-1.35,4.59-2.78,9.14-4.19,13.71.07,2,1.17,1.05,2,.69A148,148,0,0,0,970.43,422c1.24-.79,2.49-1.62,3.73-2.44l4.37-2.64c-1.56,4.27-2.89,7.88-4.31,11.77,4.11.16,7.79-1,11.55-1.31,3.08-1.1,5.09-3.64,7.38-5.8s4.67-4.07,6.87-6.29c3.1-3.12,4.27-2.89,6.91.84,2.11,3.1,3.82,6.45,5.93,9.53.78,1.13,1.45,2.35,2.74,3,1.33,2.26,2.7,4.5,4,6.78s2.33,4.37,3.82,7.15l5.05-14.26c1.6-.74.92.76,1,1.2.61,4,1.65,7.95,2.57,11.91a8,8,0,0,0,2.17,4.31c7.18,4,7.17,4,10-3.76,1.2-3.32,2.42-6.62,3.72-9.89.11-.28.53-2.37,1.32-.25a63.48,63.48,0,0,0,6.6,14.55c5.7,4.32,11.28,2.33,16.93-.22,2.14-1,1-2.13.5-3.26-6.17-13.88-16.43-23.21-30.16-28.7-8.82-3.53-18-5-27.48-5.88,4-1.19,7.89-2.47,11.88-3.56,2.16-.59,2.8-1.43,1.66-3.68-1.6-3.14-2.92-6.44-4.23-9.72-.36-.92-1.53-1.87-.43-3.06,6.88.4,13.7.23,20.26-2.34a4.68,4.68,0,0,0,.75-3.07c.86-1.76,0-2.89-1.31-3.86-3.3-2.46-6.7-4.74-9.51-5.72,3.23,1.65,7.73,3.22,12.15,5a12.67,12.67,0,0,0,8.26.75,77.63,77.63,0,0,0,17.09-4.76,3.84,3.84,0,0,0,2.41-2.61c2.12-6.22,4.39-12.39,6.72-18.53.7-1.85.63-2.87-1.54-3.13-15.11-1.81-30.08-1.73-44.55,3.94-17.3,6.79-28.4,19.66-34.33,37.51-.55,1.67-1.06,3.35-1.77,5.62-1.39-5.22-2.56-9.87-3.88-14.47a82.45,82.45,0,0,0-5.1-13.46c-3.6-7.39-8.13-14-15.14-18.35-7.33-4.56-15.14-4.74-23.23-2.52-1.87.51-1.76,1.38-1.23,2.68,1.32,3.27,2.7,6.52,4.05,9.78,4.42,3.24,10,3.3,14.61,5.72-2.6,0-5.34-.08-8.07.05-1.43.07-3.05-.14-3.73,1.73-.37,4.2,1.83,7.55,3.77,10.82,1.42,2.41,4,.93,6.14.73a87.56,87.56,0,0,1,9.86-1.92c1.49.27,1.47,1.64,1.66,2.67.83,4.5,2.06,8.91,2.65,13.45,2.64,5.49,8.25,7.9,11.49,12C989,405.23,985,402.09,980,402.77Z" transform="translate(-743.83 -346.9)"/><path class="cls-2" d="M1020.23,438.7q-6.32-11.51-12.64-23c-1.38,9.12-9.71,10.87-13.46,17.48-.46,5.61-3.38,10.09-5.07,15.13,0,16.56-2.44,32.85-4,49.22-2.63,27.58-5.7,55.11-9,82.59-2.34,19.66-5.3,39.22-8,58.82,2.87,5.25,4.37,11.87,10.28,14.11,8.11.08,16-3.55,24.22-2,3.22.62,6.5,1.6,9.63-.5,3.27-8.24,1.84-16.8,1-25.23-.31-3-2.82-4.08-5.27-4.44-2.87-.41-5.77-.11-8.65-.34,1.42.12,2.84,0,4.26,0,8.92-.1,10.34-2.08,9.56-12.66-.66-9-.15-18.11-.29-27.17-.17-11-2.52-13.92-11.73-14.63,9.23-.29,10.29-1.7,10.62-12.17.25-8.21-1.24-16.23-1.37-24.39-.1-6.34-3.87-7.69-8.39-7.64,6.35-.18,7.6-1.11,7.25-8.34-.65-13.55-1.72-27.08-3.35-40.53-.47-3.91-1.92-6.88-5.88-7.17,1.47-1.07,3.75-1.62,3.72-3.67-.09-6.92,4.3-8.77,8.4-11.13a7.21,7.21,0,0,0,1.3-1.34C1014.5,445.06,1014.44,439.39,1020.23,438.7Z" transform="translate(-743.83 -346.9)"/><path class="cls-3" d="M1013.39,449.75c-3.33,1-6.66,2-10,3a1.94,1.94,0,0,0-1.28,2.58c3,9.11-2.5,9.05-7.49,9.56a2.49,2.49,0,0,0-1,.51c-.13.09-.19.33-.29.51,0,1.24.79,1.41,1.55,1.48,8.74.88,9.06.83,10.18,11.28,1.21,11.16,1.59,22.45,2.63,33.65.6,6.45-1.19,9.3-6.92,8.34-1.64-.27-3.48-.56-5.4,1,1.92,2.95,4.58,1.4,6.76,1.63,4.38.46,7.14,1.87,6.78,8.21-.49,8.78,1.58,17.48,1.15,26.36-.22,4.68-1.58,6.74-5.55,6.32-3.53-.37-6.83.68-10.67,2.28,2.84,3,5.79,1.63,8.4,1.74,6.92.3,8.64,2.41,8.91,10.67.36,11.28-1,22.61.91,33.88.59,3.5-1.11,6-4.71,5.92-3.86-.11-7.74,0-11.6.07-1.13,0-2.48.41-2.27,2.24.14,1.3,1.27,1.65,2.25,1.67,3.48.07,7,.29,10.44,0,4.43-.35,6.4,1.5,6.17,7-.28,6.79-.07,13.61-.08,20.41a4.71,4.71,0,0,0,2.39,2.73c7.49,4.18,9.82,2.54,9.8-6.93a49.15,49.15,0,0,0-.19-7.38c-.23-40.29-1.16-80.56-3.86-120.74C1018.86,494.93,1017.23,472.17,1013.39,449.75Z" transform="translate(-743.83 -346.9)"/><path class="cls-4" d="M955,415.8c-4.67.49-8.39,3.43-12.54,5.23-5.9,2.54-11.47,5.85-17.61,7.84,2.46,1.42,5,2.69,7.35,4.28,2.53,1.72,4.45,1.52,6.6-.77C944.08,426.76,949.57,421.31,955,415.8Z" transform="translate(-743.83 -346.9)"/><path class="cls-5" d="M995.66,434c3-1.95,3.94-4.84,3.67-8.31-2.11-1.75-4.69-2.76-6.71-4.63l-6.85,6.29Q987.08,436.44,995.66,434Z" transform="translate(-743.83 -346.9)"/><path class="cls-6" d="M1044.73,385.94a172.37,172.37,0,0,0-20.26,2.34c5.33,2.15,10.67,4.29,16,6.46,1.52.62,2.47.59,2.84-1.47C1043.76,390.83,1044.85,388.51,1044.73,385.94Z" transform="translate(-743.83 -346.9)"/><path class="cls-7" d="M957.13,368.25a3.85,3.85,0,0,1,.58.08c2.87-1.66,6-.49,9-.76a44,44,0,0,0,6.08-.52,89.66,89.66,0,0,0-18.18-6.31C955.42,363.25,956.28,365.75,957.13,368.25Z" transform="translate(-743.83 -346.9)"/><path class="cls-8" d="M1055.07,379c-5.67.25-10.33-3.12-15.51-4.62a27,27,0,0,0-6.37-1.56c3.29,2.18,6.61,4.32,9.87,6.54,1.21.82,2.63,1.57,2.42,3.47,1.3-2.39,3.81-1.84,5.78-2.64C1052.52,379.72,1054,380.19,1055.07,379Z" transform="translate(-743.83 -346.9)"/><path class="cls-9" d="M974.16,419.56c-7,3-13.32,7.32-19.95,11-.79.44-1.44,1.61-2.46.38-.67.94-.29,1.5.69,1.33,3.44-.62,7-.62,9.93-3.26C966.11,425.65,970.64,423.27,974.16,419.56Z" transform="translate(-743.83 -346.9)"/><path class="cls-10" d="M1034.19,445.71q-2.19-8.52-4.37-17c-.23-.87-.44-2-1.36-.39,1.25,3.18.72,6.51.39,9.69C1028.39,442.46,1029.94,444.94,1034.19,445.71Z" transform="translate(-743.83 -346.9)"/><path class="cls-11" d="M1055.8,446.36c-1-5.43-4.25-9.77-6.6-14.55.64,3.8,1.3,7.59,1.92,11.39C1051.57,446,1053.86,445.9,1055.8,446.36Z" transform="translate(-743.83 -346.9)"/><path class="cls-12" d="M992.62,421.09c1,3.41,3.84,4.05,6.71,4.63,1.86-1.09,3.14-2.85,5.47-3.55,2.62-.79,2.64-3.9,2.72-6.46-2.54-4.87-4-5.11-7.95-1.31C997.25,416.62,994.93,418.86,992.62,421.09Z" transform="translate(-743.83 -346.9)"/><path class="cls-10" d="M977.84,376.6c.92,4.19-1.27,7.77-2.14,11.61a20.65,20.65,0,0,0,6.49,6.27c0-6.17-2.4-11.9-3.16-17.94C979,376.07,978.24,376.19,977.84,376.6Z" transform="translate(-743.83 -346.9)"/><polygon class="cls-13" points="99.11 293.24 93.38 295.14 68.38 218.71 74.11 216.81 99.11 293.24"/><polyline class="cls-14" points="79.66 164.15 78.53 177.43 68.9 183.78 77.22 185.42 76.58 196.55 69.88 196.89 75.97 204.47 69.36 223.01"/><path class="cls-14" d="M812.4,569s-25.76-33.74,11.09-57.91" transform="translate(-743.83 -346.9)"/><path class="cls-14" d="M813,561.54s10.4-32.9,43.42-19.34l-9.3,5.38-8.65-3.52,2.76,6.34-7.65,4.72-3.32-4.34-2.2,7.59-15.31,4.14" transform="translate(-743.83 -346.9)"/><path class="cls-14" d="M817.19,564.79s-21.28-30.59-51-5.83l11.33,2.53,7.8-6.46-.82,7.44,9.42,2.39,2-5.57,4.7,7.13,17.14-.72" transform="translate(-743.83 -346.9)"/><polygon class="cls-13" points="86.66 295.54 81.59 298.84 43.72 239.57 48.8 236.28 86.66 295.54"/><path class="cls-15" d="M792.57,588s-9.18-39.15-48.74-26.34l10.34,7.08,10.36-3.32-3.77,7.12,8.48,6.17,4.24-4.75,1.88,9,17.43,6.17" transform="translate(-743.83 -346.9)"/><path class="cls-15" d="M788.05,590.3s4.54-40,45.32-31.95l-9.44,8.26-10.67-2.07,4.57,6.62-7.7,7.14-4.76-4.21-.82,9.17L788,591.46" transform="translate(-743.83 -346.9)"/><path class="cls-15" d="M792.24,587.86s-39.19-7.66-43.87,33.95L759,615.22l1.26-10.88,4.89,6.39,9.07-5.25-2.55-5.85,8.93,2,12.75-13.47" transform="translate(-743.83 -346.9)"/><path class="cls-16" d="M762.9,671.28h93v-32S803.08,629.28,762.9,671.28Z" transform="translate(-743.83 -346.9)"/><polygon class="cls-13" points="119.82 292.41 125.55 294.32 150.55 217.89 144.82 215.98 119.82 292.41"/><polyline class="cls-14" points="139.27 163.32 140.4 176.6 150.03 182.95 141.71 184.59 142.35 195.73 149.05 196.06 142.96 203.65 149.57 222.18"/><path class="cls-14" d="M894.19,568.14S920,534.39,883.1,510.22" transform="translate(-743.83 -346.9)"/><path class="cls-14" d="M893.61,560.71s-10.39-32.9-43.41-19.33l9.3,5.37,8.65-3.52-2.76,6.34,7.65,4.72,3.32-4.34,2.2,7.6,15.31,4.13" transform="translate(-743.83 -346.9)"/><path class="cls-14" d="M889.39,564s21.29-30.59,51-5.82l-11.33,2.52-7.8-6.46.82,7.45L912.69,564l-2-5.56-4.7,7.12-17.13-.72" transform="translate(-743.83 -346.9)"/><polygon class="cls-13" points="132.27 294.72 137.34 298.01 175.21 238.75 170.13 235.46 132.27 294.72"/><path class="cls-15" d="M914,587.16s9.18-39.16,48.74-26.35l-10.34,7.08-10.36-3.32,3.77,7.12-8.48,6.17-4.24-4.75-1.88,9L913.8,588.3" transform="translate(-743.83 -346.9)"/><path class="cls-15" d="M918.54,589.47s-4.54-40-45.32-32l9.43,8.26,10.68-2.07-4.57,6.62,7.7,7.14,4.76-4.21.82,9.18,16.58,8.19" transform="translate(-743.83 -346.9)"/><path class="cls-15" d="M914.35,587s39.19-7.67,43.87,33.94l-10.66-6.58-1.25-10.89-4.89,6.39-9.07-5.25,2.55-5.85-8.93,2-12.75-13.47" transform="translate(-743.83 -346.9)"/><path class="cls-16" d="M943.69,670.46h-93v-32S903.5,628.45,943.69,670.46Z" transform="translate(-743.83 -346.9)"/><polygon class="cls-13" points="181.53 293.95 175.81 295.85 150.8 219.43 156.53 217.52 181.53 293.95"/><polyline class="cls-14" points="162.09 164.86 160.95 178.14 151.33 184.49 159.64 186.13 159.01 197.26 152.31 197.6 158.4 205.18 151.79 223.72"/><path class="cls-14" d="M894.82,569.67s-25.76-33.74,11.1-57.91" transform="translate(-743.83 -346.9)"/><path class="cls-14" d="M895.4,562.25s10.39-32.9,43.42-19.34l-9.31,5.38-8.65-3.52,2.76,6.34L916,555.83l-3.32-4.34-2.2,7.59-15.31,4.14" transform="translate(-743.83 -346.9)"/><path class="cls-14" d="M899.62,565.5s-21.28-30.59-51-5.83l11.33,2.53,7.81-6.46-.82,7.44,9.41,2.39,2-5.57,4.7,7.13,17.13-.72" transform="translate(-743.83 -346.9)"/><polygon class="cls-13" points="169.08 296.25 164.01 299.55 126.15 240.29 131.22 236.99 169.08 296.25"/><path class="cls-15" d="M875,588.69s-9.19-39.15-48.75-26.34l10.34,7.08L847,566.11l-3.77,7.12,8.48,6.17,4.24-4.75,1.88,9,17.43,6.17" transform="translate(-743.83 -346.9)"/><path class="cls-15" d="M870.47,591s4.54-40,45.33-32l-9.44,8.26-10.68-2.07,4.58,6.62-7.7,7.14-4.77-4.21L887,584l-16.59,8.2" transform="translate(-743.83 -346.9)"/><path class="cls-15" d="M874.67,588.57s-39.2-7.66-43.87,33.95l10.65-6.59,1.25-10.88,4.9,6.39,9.06-5.25-2.55-5.85,8.93,2,12.75-13.47" transform="translate(-743.83 -346.9)"/><path class="cls-16" d="M845.33,672h93V640S885.51,630,845.33,672Z" transform="translate(-743.83 -346.9)"/><polygon class="cls-13" points="202.25 293.12 207.97 295.03 232.98 218.6 227.25 216.69 202.25 293.12"/><polyline class="cls-14" points="221.69 164.03 222.83 177.31 232.45 183.66 224.14 185.3 224.77 196.44 231.47 196.77 225.38 204.35 232 222.89"/><path class="cls-14" d="M976.61,568.85s25.77-33.75-11.09-57.92" transform="translate(-743.83 -346.9)"/><path class="cls-14" d="M976,561.42s-10.39-32.9-43.42-19.33l9.31,5.37,8.65-3.52-2.77,6.34,7.66,4.72,3.32-4.34,2.19,7.6,15.31,4.13" transform="translate(-743.83 -346.9)"/><path class="cls-14" d="M971.82,564.67s21.28-30.59,51-5.82l-11.32,2.52-7.81-6.46.82,7.45-9.41,2.38-2-5.56-4.7,7.12-17.14-.72" transform="translate(-743.83 -346.9)"/><polygon class="cls-13" points="214.7 295.43 219.77 298.72 257.63 239.46 252.56 236.17 214.7 295.43"/><path class="cls-15" d="M996.44,587.87s9.18-39.16,48.74-26.35l-10.33,7.08-10.36-3.32,3.76,7.12-8.47,6.17-4.24-4.75-1.89,9L996.23,589" transform="translate(-743.83 -346.9)"/><path class="cls-15" d="M1001,590.18s-4.54-40-45.33-31.95l9.44,8.26,10.68-2.07L971.18,571l7.7,7.14,4.76-4.21.82,9.18,16.58,8.19" transform="translate(-743.83 -346.9)"/><path class="cls-15" d="M996.77,587.75s39.19-7.67,43.87,33.94L1030,615.11l-1.26-10.89-4.89,6.39-9.06-5.25,2.55-5.85-8.94,2L995.65,588" transform="translate(-743.83 -346.9)"/><path class="cls-16" d="M1026.11,671.17h-93v-32S985.93,629.16,1026.11,671.17Z" transform="translate(-743.83 -346.9)"/><polygon class="cls-13" points="277.55 289.97 271.82 291.87 246.81 215.44 252.54 213.54 277.55 289.97"/><polyline class="cls-14" points="258.1 160.88 256.96 174.16 247.34 180.51 255.65 182.15 255.02 193.28 248.32 193.62 254.41 201.2 247.8 219.74"/><path class="cls-14" d="M990.84,565.69s-25.77-33.74,11.09-57.91" transform="translate(-743.83 -346.9)"/><path class="cls-14" d="M991.41,558.27s10.39-32.9,43.42-19.34l-9.31,5.38-8.65-3.52,2.77,6.34-7.66,4.72-3.32-4.34-2.19,7.59-15.31,4.14" transform="translate(-743.83 -346.9)"/><path class="cls-14" d="M995.63,561.51s-21.28-30.58-51-5.82l11.32,2.53,7.81-6.46-.82,7.44,9.41,2.39,2-5.57,4.7,7.13,17.14-.72" transform="translate(-743.83 -346.9)"/><polygon class="cls-13" points="265.1 292.27 260.02 295.56 222.16 236.31 227.23 233.01 265.1 292.27"/><path class="cls-15" d="M971,584.71s-9.18-39.15-48.74-26.34l10.33,7.08L943,562.13l-3.76,7.12,8.47,6.17,4.24-4.75,1.89,9,17.42,6.17" transform="translate(-743.83 -346.9)"/><path class="cls-15" d="M966.48,587s4.54-40,45.33-31.95l-9.44,8.26-10.68-2.07,4.58,6.62-7.7,7.13-4.76-4.21L983,580l-16.58,8.2" transform="translate(-743.83 -346.9)"/><path class="cls-15" d="M970.68,584.59s-39.19-7.66-43.87,33.95L937.46,612l1.26-10.88,4.89,6.39,9.06-5.25-2.55-5.85,8.94,2,12.74-13.47" transform="translate(-743.83 -346.9)"/><path class="cls-16" d="M941.34,668h93V636S981.52,626,941.34,668Z" transform="translate(-743.83 -346.9)"/><polygon class="cls-13" points="298.26 289.14 303.99 291.05 328.99 214.62 323.26 212.71 298.26 289.14"/><polyline class="cls-14" points="317.7 160.05 318.84 173.33 328.47 179.68 320.15 181.32 320.79 192.46 327.48 192.79 321.4 200.37 328.01 218.91"/><path class="cls-14" d="M1072.63,564.87s25.76-33.75-11.1-57.92" transform="translate(-743.83 -346.9)"/><path class="cls-14" d="M1072.05,557.44s-10.39-32.9-43.42-19.33l9.31,5.37,8.65-3.52-2.76,6.34,7.65,4.72,3.32-4.34,2.19,7.6,15.32,4.13" transform="translate(-743.83 -346.9)"/><path class="cls-14" d="M1067.83,560.69s21.28-30.59,51-5.82l-11.33,2.52-7.81-6.46.82,7.45-9.41,2.38-2-5.56-4.7,7.12-17.13-.72" transform="translate(-743.83 -346.9)"/><polygon class="cls-13" points="310.71 291.45 315.78 294.74 353.64 235.48 348.57 232.19 310.71 291.45"/><path class="cls-15" d="M1092.45,583.89s9.19-39.16,48.75-26.35l-10.34,7.08-10.36-3.32,3.77,7.12-8.48,6.17-4.24-4.75-1.88,9L1092.24,585" transform="translate(-743.83 -346.9)"/><path class="cls-15" d="M1097,586.2s-4.54-40-45.33-32l9.44,8.26,10.68-2.07-4.58,6.62,7.7,7.14,4.77-4.21.81,9.18,16.59,8.19" transform="translate(-743.83 -346.9)"/><path class="cls-15" d="M1092.78,583.77s39.2-7.67,43.87,33.94L1126,611.13l-1.26-10.89-4.89,6.39-9.06-5.25,2.55-5.85-8.93,2L1091.66,584" transform="translate(-743.83 -346.9)"/><path class="cls-16" d="M1122.12,667.18h-93v-32S1081.94,625.18,1122.12,667.18Z" transform="translate(-743.83 -346.9)"/></svg>