<svg id="图层_3" data-name="图层 3" xmlns="http://www.w3.org/2000/svg" viewBox="0 0 441.22 428.3"><defs><style>.cls-1{fill:#2f84ea;}.cls-2{fill:#2f69dd;}.cls-3{fill:#2432b2;}.cls-4{fill:#ed5a2d;}.cls-5{fill:#e04e2d;}.cls-6{fill:#b53a24;}.cls-7{fill:#fab349;}.cls-8{fill:#ffd2a6;}.cls-9{fill:#fcdac8;}.cls-10{fill:#434a54;}.cls-11{fill:#b39a7c;}.cls-12{fill:#212121;stroke:#212121;stroke-miterlimit:10;stroke-width:6px;}.cls-13{font-size:22.77px;fill:#fff;font-family:MicrosoftYaHei-Bold, Microsoft YaHei;font-weight:700;letter-spacing:0.2em;}</style></defs><title>7</title><path class="cls-1" d="M1094.2,603.29l1.55-3.64c13.63-32,36-59,63.18-76.5,6.27,31.7,2.24,66.58-11.38,98.56l-1.55,3.64a305.49,305.49,0,0,1-55,86l-20.72-8.82A305.66,305.66,0,0,1,1094.2,603.29Z" transform="translate(-720.59 -294.1)"/><path class="cls-2" d="M1117.76,561.63a179.7,179.7,0,0,0-22,38l-1.55,3.64a305.66,305.66,0,0,0-23.92,99.25l20.72,8.82q9.09-10,17.32-20.9C1102.9,667.28,1101.09,627.68,1117.76,561.63Z" transform="translate(-720.59 -294.1)"/><path class="cls-3" d="M1160.17,527.43l-64.79,152.1c-.75,1.75-2.51,2.68-3.94,2.07s-2-2.52-1.24-4.27L1155,525.22c.75-1.75,2.51-2.68,3.94-2.07S1160.92,525.68,1160.17,527.43Z" transform="translate(-720.59 -294.1)"/><g id="surface1"><path class="cls-4" d="M1029.86,616.37v-4c0-34.76,10-68.43,28.15-95.13,18.19,26.71,28.15,60.37,28.15,95.13v4a305.54,305.54,0,0,1-16.89,100.68h-22.52A305.28,305.28,0,0,1,1029.86,616.37Z" transform="translate(-720.59 -294.1)"/><path class="cls-5" d="M1035.21,568.81a179.2,179.2,0,0,0-5.35,43.6v4a305.28,305.28,0,0,0,16.89,100.68h22.52q4.44-12.74,7.74-26C1062.94,671.84,1045.75,636.11,1035.21,568.81Z" transform="translate(-720.59 -294.1)"/><path class="cls-6" d="M1060.82,520.72V686.05c0,1.91-1.26,3.45-2.81,3.45s-2.82-1.54-2.82-3.45V520.72c0-1.9,1.26-3.44,2.82-3.44S1060.82,518.82,1060.82,520.72Z" transform="translate(-720.59 -294.1)"/><path class="cls-7" d="M973.56,717.05v3.45h168.9v-3.45l-20.81-4.24a317.54,317.54,0,0,0-127.28,0Z" transform="translate(-720.59 -294.1)"/></g><path class="cls-8" d="M943.8,448.87H921.48a7.33,7.33,0,0,0-7.43,7.23v7.25H884.28V456.1a7.33,7.33,0,0,0-7.45-7.23H854.51a7.33,7.33,0,0,0-7.43,7.23v69a7.35,7.35,0,0,0,7.43,7.25H943.8a7.34,7.34,0,0,0,7.44-7.25v-69A7.33,7.33,0,0,0,943.8,448.87Z" transform="translate(-720.59 -294.1)"/><path class="cls-9" d="M943.8,448.87H921.48a7.33,7.33,0,0,0-7.43,7.23v7.25H884.28V456.1a7.33,7.33,0,0,0-7.45-7.23H854.51a7.33,7.33,0,0,0-7.43,7.23v14.5a7.34,7.34,0,0,1,7.43-7.25h22.32a7.34,7.34,0,0,1,7.45,7.25v7.23h29.77V470.6a7.34,7.34,0,0,1,7.43-7.25H943.8a7.34,7.34,0,0,1,7.44,7.25V456.1A7.33,7.33,0,0,0,943.8,448.87Z" transform="translate(-720.59 -294.1)"/><path class="cls-8" d="M995.88,492.32H966.12a7.34,7.34,0,0,0-7.43,7.24v21.72H928.92V499.56a7.33,7.33,0,0,0-7.44-7.24H876.83a7.34,7.34,0,0,0-7.43,7.24v21.72H839.64V499.56a7.19,7.19,0,0,0-2.18-5.13,7.59,7.59,0,0,0-5.27-2.11H802.44a7.35,7.35,0,0,0-7.45,7.24V686.18a7.36,7.36,0,0,0,7.45,7.25H995.88a7.36,7.36,0,0,0,7.45-7.25V499.56A7.35,7.35,0,0,0,995.88,492.32Z" transform="translate(-720.59 -294.1)"/><path class="cls-9" d="M876.83,506.8h44.65a7.34,7.34,0,0,1,7.44,7.25V499.56a7.33,7.33,0,0,0-7.44-7.24H876.83a7.34,7.34,0,0,0-7.43,7.24v14.49A7.34,7.34,0,0,1,876.83,506.8Z" transform="translate(-720.59 -294.1)"/><rect class="cls-9" x="208.33" y="227.19" width="29.76" height="14.49"/><rect class="cls-9" x="119.04" y="227.19" width="29.76" height="14.49"/><path class="cls-9" d="M802.44,506.8h29.75a7.56,7.56,0,0,1,5.27,2.13,7.13,7.13,0,0,1,2.18,5.11V499.56a7.19,7.19,0,0,0-2.18-5.13,7.59,7.59,0,0,0-5.27-2.11H802.44a7.35,7.35,0,0,0-7.45,7.24v14.49A7.35,7.35,0,0,1,802.44,506.8Z" transform="translate(-720.59 -294.1)"/><path class="cls-9" d="M995.88,492.32H966.12a7.34,7.34,0,0,0-7.43,7.24v14.49a7.34,7.34,0,0,1,7.43-7.25h29.76a7.35,7.35,0,0,1,7.45,7.25V499.56A7.35,7.35,0,0,0,995.88,492.32Z" transform="translate(-720.59 -294.1)"/><path class="cls-10" d="M899.15,547.29c-20.55,0-37.19,17.13-37.19,38.27v83.11h74.4V585.56C936.36,564.43,919.71,547.29,899.15,547.29Z" transform="translate(-720.59 -294.1)"/><path class="cls-8" d="M1076.74,711.55c-.48-.81-11.84-19.73-39.64-38.55a205.23,205.23,0,0,0-54.81-25.86c-25.12-7.73-53.09-11.65-83.14-11.65s-58,3.92-83.12,11.65A205.23,205.23,0,0,0,761.22,673c-27.79,18.82-39.16,37.74-39.64,38.55a7.07,7.07,0,0,0,0,7.23A7.5,7.5,0,0,0,728,722.4h342.26a7.47,7.47,0,0,0,6.44-3.62A7.07,7.07,0,0,0,1076.74,711.55Z" transform="translate(-720.59 -294.1)"/><path class="cls-9" d="M724.6,721.57c5-6.82,16.53-20.48,36.62-34.09A205.23,205.23,0,0,1,816,661.62c25.12-7.73,53.09-11.65,83.12-11.65s58,3.92,83.14,11.65a205.23,205.23,0,0,1,54.81,25.86c20.09,13.61,31.6,27.27,36.61,34.09a7.31,7.31,0,0,0,3-2.79,7.07,7.07,0,0,0,0-7.23c-.48-.81-11.85-19.73-39.64-38.55a205.23,205.23,0,0,0-54.81-25.86c-25.12-7.73-53.1-11.65-83.14-11.65s-58,3.92-83.12,11.65A205.23,205.23,0,0,0,761.22,673c-27.79,18.82-39.16,37.74-39.64,38.55a7.07,7.07,0,0,0,0,7.23A7.35,7.35,0,0,0,724.6,721.57Z" transform="translate(-720.59 -294.1)"/><path class="cls-11" d="M807.7,688.3a7.13,7.13,0,0,1,0,10.25,7.61,7.61,0,0,1-10.53,0,7.11,7.11,0,0,1,0-10.25A7.61,7.61,0,0,1,807.7,688.3Z" transform="translate(-720.59 -294.1)"/><path class="cls-11" d="M837.46,659.33a7.11,7.11,0,0,1,0,10.25,7.6,7.6,0,0,1-10.52,0,7.11,7.11,0,0,1,0-10.25A7.6,7.6,0,0,1,837.46,659.33Z" transform="translate(-720.59 -294.1)"/><path class="cls-11" d="M867.22,688.3a7.13,7.13,0,0,1,0,10.25,7.61,7.61,0,0,1-10.53,0,7.13,7.13,0,0,1,0-10.25A7.61,7.61,0,0,1,867.22,688.3Z" transform="translate(-720.59 -294.1)"/><path class="cls-11" d="M897,659.33a7.13,7.13,0,0,1,0,10.25,7.6,7.6,0,0,1-10.52,0,7.13,7.13,0,0,1,0-10.25A7.6,7.6,0,0,1,897,659.33Z" transform="translate(-720.59 -294.1)"/><path class="cls-11" d="M926.74,688.3a7.11,7.11,0,0,1,0,10.25,7.59,7.59,0,0,1-10.51,0,7.11,7.11,0,0,1,0-10.25A7.59,7.59,0,0,1,926.74,688.3Z" transform="translate(-720.59 -294.1)"/><path class="cls-11" d="M956.51,659.33a7.13,7.13,0,0,1,0,10.25,7.61,7.61,0,0,1-10.53,0,7.13,7.13,0,0,1,0-10.25A7.61,7.61,0,0,1,956.51,659.33Z" transform="translate(-720.59 -294.1)"/><path class="cls-11" d="M986.26,688.3a7.11,7.11,0,0,1,0,10.25,7.6,7.6,0,0,1-10.52,0,7.11,7.11,0,0,1,0-10.25A7.6,7.6,0,0,1,986.26,688.3Z" transform="translate(-720.59 -294.1)"/><rect class="cls-1" x="26.69" y="32.19" width="297.27" height="70.21"/><rect class="cls-4" x="18.29" y="23.85" width="297.27" height="70.21"/><line class="cls-12" x1="69.43" x2="69.43" y2="44.36"/><circle class="cls-12" cx="69.43" cy="42.04" r="5.66"/><line class="cls-12" x1="266.77" x2="266.77" y2="44.36"/><circle class="cls-12" cx="266.77" cy="42.04" r="5.66"/><text class="cls-13" transform="translate(61.36 71.41)">第二站：答题闯关</text></svg>