<svg id="图层_3" data-name="图层 3" xmlns="http://www.w3.org/2000/svg" viewBox="0 0 593.48 337.29"><defs><style>.cls-1{fill:#fd715c;}.cls-2{fill:#bc554a;}.cls-3{font-size:34.16px;fill:#fff;font-family:DFPHaiBaoW12, DFPHaiBaoW12-GB;letter-spacing:0.2em;}.cls-4{fill:#0fa4bc;}.cls-5{fill:#40bac6;}.cls-6{fill:#4ed1d1;}.cls-7{fill:#fcdac8;}.cls-8{fill:#4fb363;}.cls-9{fill:#89522d;}.cls-10{fill:#6e4224;}.cls-11{fill:#a96737;}.cls-12{fill:#60d978;}.cls-13{fill:#6e4325;}.cls-14{fill:#62dd7a;}.cls-15{fill:#61dc79;}.cls-16{fill:#61da79;}.cls-17{fill:#63da7b;}.cls-18{fill:#63dd7c;}.cls-19{fill:#64dc7c;}.cls-20{fill:#724729;}</style></defs><title>12</title><path class="cls-1" d="M870.28,365.7V674h308.33V365.7Zm251.56,307.6H927V465.5h194.8Z" transform="translate(-646.49 -340.66)"/><rect class="cls-2" x="280.55" y="124.85" width="61.37" height="207.8"/><rect class="cls-2" x="532.11" y="25.05" width="61.37" height="308.33"/><text class="cls-3" transform="translate(324.25 64.05)">第二关<tspan x="-81.98" y="40.99">制作温度提示器</tspan></text><polygon class="cls-4" points="191.91 314.33 197.92 313.75 189.82 233.74 183.81 234.32 191.91 314.33"/><polyline class="cls-5" points="157.4 188.43 163.82 200.11 175.19 202.02 168.25 206.88 173.34 216.81 179.6 214.4 177.11 223.8 190.66 238.07"/><path class="cls-5" d="M837.5,577.54s9.88-41.29-33.61-48.45" transform="translate(-646.49 -340.66)"/><path class="cls-5" d="M834,571s-22.83-25.87-47.53-.09l10.69,1.15,6.48-6.73,0,6.92,8.91,1.21,1.28-5.31,5.08,6.05,15.68-2.42" transform="translate(-646.49 -340.66)"/><path class="cls-5" d="M831.42,575.67s7.07-36.59,44.29-26l-9.33,6.89-9.75-2.74,3.76,6.47-7.64,6L848.63,562l-1.41,8.42-16,6.29" transform="translate(-646.49 -340.66)"/><polygon class="cls-4" points="204.23 311.39 210.2 312.35 220.81 242.83 214.84 241.88 204.23 311.39"/><path class="cls-6" d="M863.33,586.9s-7.47-39.52,33.89-43.83l-6.58,10.66-10.82,1.16,6.33,5L880.9,569l-5.8-2.62,1.93,9L863.6,588" transform="translate(-646.49 -340.66)"/><path class="cls-6" d="M868.4,587.18s-20.34-34.7-54.38-10.84l12,3.72,8.93-6.21-1.5,7.9,9.93,3.41,2.65-5.78,4.46,8.06,18.48.78" transform="translate(-646.49 -340.66)"/><path class="cls-6" d="M863.58,586.66s32.73-22.89,53.86,13.26L905,598.22l-5.55-9.45-1.89,7.83-10.41-1.13,0-6.38-7.36,5.43-17.12-7.15" transform="translate(-646.49 -340.66)"/><path class="cls-7" d="M889.76,674.08h-93V642S849.57,632.07,889.76,674.08Z" transform="translate(-646.49 -340.66)"/><path class="cls-8" d="M811.3,428.66c11.69-1.18,23.31-2.83,35.16-1.49,26.16,3,48.52,13.71,67.4,31.94,2.13,2.06,2.39,3.33-.7,4.67-4.19,1.82-8.24,4-12.35,6-3.36,1-6.29-.31-9.23-1.7-13.23-6.27-26.76-11.9-39.64-18.89-3.77-1.49-1.86,1.31-1.56,2.29,2.19,7.22,4.51,14.4,6.79,21.59-.11,3.09-1.9,1.66-3.16,1.08-9.48-4.28-18.31-9.74-27.13-15.19-2-1.25-4-2.56-6-3.84l-7.09-4.17c2.53,6.73,4.68,12.42,7,18.54-6.66.27-12.64-1.53-18.73-2.06-5-1.73-8.25-5.72-12-9.13s-7.58-6.42-11.15-9.91c-5-4.91-6.92-4.56-11.21,1.33-3.41,4.87-6.18,10.15-9.61,15-1.25,1.78-2.34,3.7-4.44,4.66-2.16,3.56-4.37,7.08-6.46,10.68-2,3.4-3.79,6.88-6.19,11.25-3-8.17-5.59-15.31-8.2-22.45-2.59-1.17-1.49,1.2-1.6,1.89-1,6.35-2.69,12.52-4.17,18.75-.62,2.59-1.49,5-3.52,6.8-11.64,6.24-11.62,6.23-16.16-5.93-2-5.22-3.93-10.42-6-15.58-.17-.43-.85-3.73-2.14-.38a98.62,98.62,0,0,1-10.7,22.91c-9.25,6.8-18.29,3.66-27.45-.35-3.46-1.51-1.63-3.35-.81-5.13,10-21.87,26.65-36.56,48.91-45.21,14.29-5.56,29.19-7.88,44.55-9.26-6.42-1.88-12.8-3.88-19.26-5.6-3.51-.93-4.55-2.26-2.69-5.81,2.59-4.95,4.73-10.13,6.85-15.31.59-1.45,2.49-2.94.7-4.81-11.16.62-22.21.36-32.84-3.69-1.17-1.42-1.21-3.13-1.23-4.83-1.39-2.77,0-4.56,2.13-6.09,5.36-3.86,10.86-7.46,15.43-9-5.25,2.6-12.54,5.08-19.71,7.88a21.09,21.09,0,0,1-13.39,1.17,127.86,127.86,0,0,1-27.72-7.5,6.12,6.12,0,0,1-3.9-4.1c-3.44-9.8-7.11-19.52-10.9-29.19-1.13-2.91-1-4.52,2.5-4.93,24.5-2.86,48.77-2.72,72.23,6.21,28.06,10.69,46,31,55.66,59.08.9,2.62,1.72,5.27,2.88,8.84,2.25-8.21,4.14-15.54,6.29-22.78a127.36,127.36,0,0,1,8.26-21.2c5.84-11.64,13.19-22,24.56-28.91,11.88-7.17,24.54-7.46,37.66-4,3,.81,2.86,2.16,2,4.22-2.15,5.15-4.37,10.27-6.57,15.41-7.17,5.1-16.2,5.19-23.7,9,4.23.06,8.67-.13,13.1.07,2.31.11,4.94-.22,6,2.72.6,6.62-3,11.9-6.1,17.05-2.31,3.79-6.53,1.46-10,1.15-5.32-1.13-10.58-2.51-16-3-2.42.42-2.38,2.57-2.69,4.2-1.35,7.08-3.35,14-4.3,21.19-4.28,8.64-13.38,12.43-18.63,18.88C796.85,432.53,803.32,427.59,811.3,428.66Z" transform="translate(-646.49 -340.66)"/><path class="cls-9" d="M753.64,469.38l13.11-20.33c1.43,8.06,10.08,9.61,14,15.46.47,5,3.51,8.92,5.25,13.39,0,14.64,2.54,29.06,4.16,43.54,2.72,24.4,5.91,48.75,9.31,73.07,2.42,17.39,5.5,34.69,8.28,52-3,4.64-4.53,10.51-10.66,12.48-8.42.07-16.6-3.14-25.13-1.75-3.34.54-6.74,1.41-10-.45-3.39-7.29-1.91-14.86-1-22.32.31-2.67,2.92-3.61,5.46-3.93,3-.36,6-.09,9-.29-1.48.1-3,0-4.43,0-9.25-.09-10.72-1.84-9.92-11.2.69-8,.16-16,.31-24,.17-9.7,2.62-12.31,12.17-12.94-9.57-.26-10.68-1.5-11-10.77-.26-7.26,1.29-14.36,1.42-21.58.11-5.61,4-6.8,8.7-6.76-6.58-.15-7.88-1-7.52-7.37.67-12,1.79-24,3.48-35.86.49-3.46,2-6.08,6.1-6.35-1.53-.94-3.89-1.42-3.86-3.24.09-6.12-4.46-7.76-8.72-9.85a6.47,6.47,0,0,1-1.34-1.19C759.59,475,759.65,470,753.64,469.38Z" transform="translate(-646.49 -340.66)"/><path class="cls-10" d="M760.74,479.15c3.45.88,6.91,1.74,10.36,2.64a1.67,1.67,0,0,1,1.33,2.28c-3.06,8.06,2.6,8,7.77,8.45a3,3,0,0,1,1.07.46c.14.08.2.29.3.45,0,1.09-.82,1.25-1.6,1.31-9.08.78-9.4.73-10.57,10-1.26,9.88-1.65,19.87-2.73,29.78-.62,5.7,1.24,8.23,7.18,7.38,1.7-.24,3.61-.5,5.61.86-2,2.61-4.76,1.24-7,1.44-4.55.41-7.41,1.66-7,7.26.52,7.77-1.63,15.47-1.19,23.33.23,4.14,1.65,6,5.76,5.59,3.66-.33,7.09.6,11.07,2-2.95,2.64-6,1.45-8.72,1.54-7.17.27-9,2.14-9.24,9.44-.38,10,1,20-1,30-.6,3.1,1.16,5.34,4.89,5.24,4-.1,8,0,12,.06,1.18,0,2.57.36,2.36,2-.15,1.15-1.32,1.46-2.34,1.47-3.61.07-7.24.27-10.83,0-4.6-.31-6.64,1.33-6.4,6.17.29,6,.07,12,.08,18.06a4.45,4.45,0,0,1-2.48,2.41c-7.77,3.7-10.19,2.25-10.16-6.13a36.54,36.54,0,0,1,.19-6.53c.23-35.64,1.21-71.27,4-106.82C755.06,519.13,756.75,499,760.74,479.15Z" transform="translate(-646.49 -340.66)"/><path class="cls-7" d="M749.48,646.07a23.39,23.39,0,0,1,.3,2.34c.25,12.24.24,12.24,12.15,7.91,12.08-1.9,24.05-.75,36,1.21,2.08.49,3.22,1.71,4.14,3.76,4.27,9.55,10.53,11.27,18.9,5.42a9.9,9.9,0,0,1,4.85-2.19c2.61-.06,5,.43,6.79,2.58,4.74,3.08,10.38,4,15.38,6.44,1.13.56,3.12.6,2.87,2.53-.28,2.3-2.3,1.71-3.8,1.83-1,.08-2,0-3,0H709.93c-.8,0-1.61,0-2.41,0-1.75-.08-4.24.55-4.76-1.5-.59-2.38,2.23-2.54,3.68-3.06,11.67-4.14,23.25-8.62,35.17-11.86,5.72-1.56,8.2-3.66,7.42-9.55C748.77,650.06,748.41,648,749.48,646.07Z" transform="translate(-646.49 -340.66)"/><path class="cls-11" d="M825.81,665.56c-1.91.31-3,1.76-4.37,2.93-7.55,6.6-18.78,3.12-20.88-6.63a6.67,6.67,0,0,0-2.63-4.33c4.08-2.94,4.92-8.76,9.79-11,7.77-1,14.39.44,18.08,8.29C828.32,658.41,827.3,662,825.81,665.56Z" transform="translate(-646.49 -340.66)"/><path class="cls-12" d="M851.94,449.18c7.56.77,13.6,5.41,20.33,8.24,9.56,4,18.6,9.21,28.54,12.35-4,2.23-8.11,4.23-11.9,6.75-4.1,2.71-7.22,2.39-10.71-1.22C869.61,466.44,860.71,457.87,851.94,449.18Z" transform="translate(-646.49 -340.66)"/><path class="cls-13" d="M786,477.9c-4.84-3.07-6.38-7.63-5.94-13.1,3.41-2.75,7.6-4.33,10.88-7.28l11.1,9.9Q799.9,481.7,786,477.9Z" transform="translate(-646.49 -340.66)"/><path class="cls-14" d="M706.42,402.15a287.38,287.38,0,0,1,32.84,3.69q-13,5.07-25.94,10.17c-2.46,1-4,.93-4.61-2.31C708,409.85,706.22,406.2,706.42,402.15Z" transform="translate(-646.49 -340.66)"/><path class="cls-15" d="M848.45,374.29a7.55,7.55,0,0,0-.94.12c-4.65-2.6-9.69-.77-14.53-1.2-3.23-.28-6.5,0-9.86-.82a148.45,148.45,0,0,1,29.48-9.92Z" transform="translate(-646.49 -340.66)"/><path class="cls-16" d="M689.65,391.28c9.19.4,16.74-4.91,25.14-7.27,3.35-.94,6.59-2.29,10.33-2.45-5.34,3.42-10.71,6.8-16,10.29-2,1.29-4.26,2.47-3.92,5.47-2.1-3.76-6.18-2.9-9.37-4.16C693.79,392.36,691.32,393.09,689.65,391.28Z" transform="translate(-646.49 -340.66)"/><path class="cls-17" d="M820.84,455.11c11.35,4.72,21.59,11.53,32.34,17.35,1.29.7,2.34,2.54,4,.6,1.08,1.48.47,2.37-1.11,2.09-5.58-1-11.36-1-16.1-5.13C833.88,464.7,826.54,461,820.84,455.11Z" transform="translate(-646.49 -340.66)"/><path class="cls-18" d="M723.5,496.3q3.54-13.43,7.09-26.83c.37-1.36.7-3.19,2.2-.61-2,5-1.17,10.25-.64,15.25C732.9,491.17,730.4,495.08,723.5,496.3Z" transform="translate(-646.49 -340.66)"/><path class="cls-19" d="M688.46,497.32c1.61-8.55,6.89-15.39,10.7-22.91-1,6-2.11,11.95-3.1,17.93C695.31,496.8,691.6,496.59,688.46,497.32Z" transform="translate(-646.49 -340.66)"/><path class="cls-20" d="M825.81,665.56c0-3.58,0-7.15,0-10.73,7.75,1.22,9.86,5,6.81,12.27Z" transform="translate(-646.49 -340.66)"/><path class="cls-11" d="M790.91,457.52c-1.66,5.37-6.24,6.37-10.88,7.28-3-1.71-5.09-4.48-8.87-5.59-4.25-1.24-4.28-6.14-4.41-10.16,4.11-7.68,6.44-8.06,12.88-2.07C783.4,450.48,787.15,454,790.91,457.52Z" transform="translate(-646.49 -340.66)"/><path class="cls-18" d="M814.87,387.44c-1.49,6.6,2.06,12.24,3.47,18.29-2.61,4.25-6.47,7.17-10.52,9.88-.05-9.73,3.88-18.75,5.12-28.26C813,386.61,814.23,386.79,814.87,387.44Z" transform="translate(-646.49 -340.66)"/></svg>