<svg id="图层_3" data-name="图层 3" xmlns="http://www.w3.org/2000/svg" viewBox="0 0 198.14 156.7"><defs><style>.cls-1{fill:#8cb4eb;}.cls-2{fill:#e3aa75;}.cls-3{fill:#d29b6e;}.cls-4{fill:#fcdac8;}.cls-5{fill:#fc5e6e;}.cls-6{fill:#6bb0fc;}.cls-7{fill:#ffd164;}.cls-8{fill:#e6646e;}.cls-9{fill:#ffd255;}.cls-10{fill:#83deed;}</style></defs><title>15</title><path class="cls-1" d="M977.91,472.16l3.2,7.63a7.67,7.67,0,0,0,7.14,4.61h25.47a7.69,7.69,0,0,0,7.14-4.61l3.19-7.63Z" transform="translate(-844.01 -430.54)"/><path class="cls-2" d="M944.59,577.44A2.5,2.5,0,0,1,942,575V433a2.56,2.56,0,0,1,5.12,0V575A2.5,2.5,0,0,1,944.59,577.44Z" transform="translate(-844.01 -430.54)"/><rect class="cls-3" x="98.01" y="48.97" width="5.13" height="9.79"/><path class="cls-4" d="M975.35,582.34h-4.91a12.6,12.6,0,0,1-7.28-2.18C958.68,577,952,575,944.59,575s-14.09,2-18.57,5.17a12.6,12.6,0,0,1-7.28,2.18h-4.91a2.45,2.45,0,1,0,0,4.9h61.52a2.45,2.45,0,1,0,0-4.9Z" transform="translate(-844.01 -430.54)"/><path class="cls-5" d="M944.59,437.89c-33.24,0-62.48,13.63-79.46,34.27h79.46Z" transform="translate(-844.01 -430.54)"/><path class="cls-6" d="M944.59,437.89c33.24,0,62.48,13.63,79.46,34.27H944.59Z" transform="translate(-844.01 -430.54)"/><path class="cls-7" d="M911.27,472.16l3.19,7.63a7.68,7.68,0,0,0,7.14,4.61h46a7.69,7.69,0,0,0,7.14-4.61l3.19-7.63Z" transform="translate(-844.01 -430.54)"/><path class="cls-8" d="M911.27,472.16l-3.2,7.63a7.67,7.67,0,0,1-7.14,4.61H875.46a7.69,7.69,0,0,1-7.14-4.61l-3.19-7.63" transform="translate(-844.01 -430.54)"/><path class="cls-9" d="M944.59,437.89c-13.94,0-26.2,13.63-33.32,34.27h66.64C970.79,451.52,958.53,437.89,944.59,437.89Z" transform="translate(-844.01 -430.54)"/><path class="cls-4" d="M951.91,575.68a40,40,0,0,0-7.32-.69c-7.45,0-14.09,2-18.57,5.17a12.6,12.6,0,0,1-7.28,2.18h-4.91a2.45,2.45,0,1,0,0,4.9h20.62C935.38,581.82,942.41,577.34,951.91,575.68Z" transform="translate(-844.01 -430.54)"/><path class="cls-10" d="M996.86,577.33c-2.51,2.14-5,3.36-5.45,2.72s1.17-2.93,3.68-5.07l41.53-35.48c2.51-2.14,5-3.36,5.45-2.72s-1.17,2.93-3.68,5.08Z" transform="translate(-844.01 -430.54)"/><path class="cls-10" d="M1022.61,538.07c-3.23-.66-5.8-1.64-5.7-2.18s2.82-.45,6.06.2l10.32,2.09c3.23.65,5.8,1.63,5.7,2.17s-2.82.46-6.06-.2Z" transform="translate(-844.01 -430.54)"/><path class="cls-10" d="M981.62,563c-3.27.46-6,.27-6.1-.43s2.52-1.65,5.78-2.11l14.07-2c3.27-.46,6-.27,6.1.43s-2.51,1.65-5.78,2.11Z" transform="translate(-844.01 -430.54)"/><path class="cls-10" d="M1001.61,564.33c-3-1.5-5.08-3.33-4.74-4.08s3-.14,6,1.36L1033.09,577c2.94,1.49,5.08,3.32,4.74,4.07s-3,.14-6-1.35Z" transform="translate(-844.01 -430.54)"/><path class="cls-8" d="M983.56,562.61s18.35-1.26,36.47-25.07l15.27,3.15S1004.79,581.9,983.56,562.61Z" transform="translate(-844.01 -430.54)"/><path class="cls-10" d="M974,579c-2.4,2.27-4.78,3.63-5.29,3s1-3,3.41-5.26l43.42-41.24c2.39-2.27,4.77-3.63,5.29-3s-1,3-3.41,5.26Z" transform="translate(-844.01 -430.54)"/><path class="cls-10" d="M976.7,564.63c-2.94-1.5-5.07-3.33-4.74-4.08s3-.14,6,1.36l30.27,15.37c2.94,1.49,5.07,3.33,4.74,4.07s-3,.14-6-1.35Z" transform="translate(-844.01 -430.54)"/><path class="cls-10" d="M893.88,579.12c2.51,2.14,5,3.35,5.59,2.68s-1-3-3.54-5.11l-46.21-39.42c-2.51-2.14-5-3.35-5.59-2.68s1,3,3.54,5.1Z" transform="translate(-844.01 -430.54)"/><path class="cls-10" d="M866.51,536.44c3.26-.53,5.85-1.43,5.76-2s-2.83-.62-6.09-.09l-13,2.1c-3.25.52-5.84,1.42-5.75,2s2.83.62,6.09.09Z" transform="translate(-844.01 -430.54)"/><path class="cls-10" d="M911.6,564.27c3.26.53,6,.36,6.14-.37s-2.45-1.77-5.71-2.3l-17-2.77c-3.26-.53-6-.36-6.14.37s2.46,1.77,5.71,2.3Z" transform="translate(-844.01 -430.54)"/><path class="cls-10" d="M889.11,564.64c3-1.34,5.19-3.09,4.84-3.89s-3.11-.35-6.12,1L852.4,577.51c-3,1.34-5.2,3.09-4.84,3.89s3.1.35,6.12-1Z" transform="translate(-844.01 -430.54)"/><path class="cls-7" d="M908.75,563.66s-20.47-1.91-40-27.58l-17.17,2.84S884.46,583.33,908.75,563.66Z" transform="translate(-844.01 -430.54)"/><path class="cls-10" d="M919.3,581.65c2.4,2.27,4.84,3.61,5.44,3s-.88-3-3.27-5.29l-48.09-45.58c-2.4-2.27-4.84-3.6-5.44-3s.88,3,3.27,5.29Z" transform="translate(-844.01 -430.54)"/><path class="cls-10" d="M916.93,565.75c3-1.35,5.2-3.1,4.85-3.9s-3.11-.35-6.13,1l-35.43,15.77c-3,1.34-5.19,3.09-4.84,3.89s3.11.35,6.12-1Z" transform="translate(-844.01 -430.54)"/></svg>