<svg id="图层_3" data-name="图层 3" xmlns="http://www.w3.org/2000/svg" viewBox="0 0 383.66 253.67"><defs><style>.cls-1{fill:#f4e6ce;stroke-width:2px;}.cls-1,.cls-3{stroke:#95a5a5;}.cls-1,.cls-2,.cls-3{stroke-miterlimit:10;}.cls-2,.cls-3{fill:none;stroke-width:10px;}.cls-2{stroke:#bdc3c7;}.cls-4{fill:#fff4c1;}.cls-5{fill:#fce575;}.cls-6{fill:#a56021;}.cls-7{fill:#f9bb32;}.cls-8{fill:#8c4c17;}.cls-9{fill:#db9c2e;}.cls-10{fill:#ffdf74;}.cls-11{fill:#ffd551;}.cls-12{fill:#fcdac8;}.cls-13{fill:#ffd2a6;}.cls-14{fill:#ff624b;}.cls-15{fill:#ff9079;}.cls-16{fill:#ff4b34;}.cls-17{fill:#ef677e;}.cls-18{fill:#5ebe52;}.cls-19{fill:#e6585f;}.cls-20{fill:#ffb700;}.cls-21{fill:#ffa600;}.cls-22{fill:#b6e4ea;}.cls-23{fill:#96d7ee;}.cls-24{fill:#f7f5f5;}</style></defs><title>8</title><rect class="cls-1" x="1" y="224.07" width="23.94" height="25.61"/><rect class="cls-2" x="30.92" y="25.61" width="287.23" height="102.43"/><rect class="cls-2" x="30.92" y="25.61" width="47.87" height="51.22"/><rect class="cls-2" x="30.92" y="76.82" width="47.87" height="51.22"/><rect class="cls-2" x="78.79" y="25.61" width="47.87" height="51.22"/><rect class="cls-2" x="78.79" y="76.82" width="47.87" height="51.22"/><rect class="cls-2" x="126.66" y="25.61" width="47.87" height="51.22"/><rect class="cls-2" x="126.66" y="76.82" width="47.87" height="51.22"/><rect class="cls-2" x="174.53" y="25.61" width="47.87" height="51.22"/><rect class="cls-2" x="174.53" y="76.82" width="47.87" height="51.22"/><rect class="cls-2" x="222.4" y="25.61" width="47.87" height="51.22"/><rect class="cls-2" x="222.4" y="76.82" width="47.87" height="51.22"/><rect class="cls-2" x="270.27" y="25.61" width="47.87" height="51.22"/><rect class="cls-2" x="270.27" y="76.82" width="47.87" height="51.22"/><line class="cls-3" x1="12.97" y1="224.07" x2="12.97"/><rect class="cls-1" x="324.13" y="224.07" width="23.94" height="25.61"/><line class="cls-3" x1="336.1" y1="224.07" x2="336.1"/><line class="cls-2" x1="12.97" y1="38.41" x2="30.92" y2="38.41"/><line class="cls-2" x1="12.97" y1="115.23" x2="30.92" y2="115.23"/><line class="cls-2" x1="318.14" y1="38.41" x2="336.1" y2="38.41"/><line class="cls-2" x1="318.14" y1="115.23" x2="336.1" y2="115.23"/><path class="cls-4" d="M1125.31,590.54l-17.85-4.78-12.94,48.3,2.65.71a3,3,0,0,0,1.78-.08,37.49,37.49,0,0,0,23.45-25.54l4.33-16.16A2,2,0,0,0,1125.31,590.54Z" transform="translate(-751.03 -381.83)"/><path class="cls-5" d="M1091,581.34l17.85,4.78-12.94,48.3-2.65-.71a3,3,0,0,1-1.51-1,37.48,37.48,0,0,1-7.53-33.84l4.33-16.16A2,2,0,0,1,1091,581.34Z" transform="translate(-751.03 -381.83)"/><path class="cls-6" d="M1115.3,576.78l-8.79-2.36,10.32-45.74a6.43,6.43,0,0,1,7.93-4.8h0a6.43,6.43,0,0,1,4.47,8.11Z" transform="translate(-751.03 -381.83)"/><path class="cls-7" d="M1106,574.85l-2.23,9.91,8.79,2.36,3-9.7a.54.54,0,0,0-.37-.68l-8.55-2.29A.54.54,0,0,0,1106,574.85Z" transform="translate(-751.03 -381.83)"/><path class="cls-8" d="M1127.47,525.38a6.38,6.38,0,0,0-2.7-1.49h0a6.43,6.43,0,0,0-7.93,4.8l-10.32,45.74,5.79,1.55,10.32-45.74A6.44,6.44,0,0,1,1127.47,525.38Z" transform="translate(-751.03 -381.83)"/><path class="cls-9" d="M1111,575.62l-4.34-1.17a.56.56,0,0,0-.67.4l-2.23,9.91,4.35,1.17,2.23-9.91A.53.53,0,0,1,1111,575.62Z" transform="translate(-751.03 -381.83)"/><path class="cls-10" d="M1096.94,625l-2.42,9,2.65.71a3,3,0,0,0,1.78-.08c.89-.32,1.76-.68,2.62-1.06A37.45,37.45,0,0,1,1096.94,625Z" transform="translate(-751.03 -381.83)"/><path class="cls-11" d="M1095.77,602l4.33-16.15a2,2,0,0,1,2.44-1.42l-11.58-3.1a2,2,0,0,0-2.45,1.41l-4.33,16.16a37.48,37.48,0,0,0,7.53,33.84,3,3,0,0,0,1.51,1l2.65.71,2-7.27A37.44,37.44,0,0,1,1095.77,602Z" transform="translate(-751.03 -381.83)"/><path class="cls-12" d="M1123.81,621.48h-1.24a14,14,0,0,0-9.25-13.19,14,14,0,0,0-19.16-9.86,14,14,0,0,0-25.65,2.3A14.18,14.18,0,0,0,1064,600a14,14,0,0,0-14,14V635.5h81.55a3.15,3.15,0,0,0,3.14-3.14A10.88,10.88,0,0,0,1123.81,621.48Z" transform="translate(-751.03 -381.83)"/><path class="cls-13" d="M1084.65,635.5a5.52,5.52,0,0,0,5.52-5.11l2.5-34.17a14,14,0,0,0-24.16,4.51A14.18,14.18,0,0,0,1064,600a14,14,0,0,0-14,14V635.5Z" transform="translate(-751.03 -381.83)"/><path class="cls-12" d="M1071.43,545.51h-.8a9,9,0,0,0-5.93-8.45,9,9,0,0,0-8.78-7,9.14,9.14,0,0,0-3.52.71,9,9,0,0,0-16.46,1.49,8.88,8.88,0,0,0-2.88-.48,9,9,0,0,0-9,9v.68h-2.38a7.68,7.68,0,0,0-7.68,7.68v5.42h62.39a2,2,0,0,0,2-2A7,7,0,0,0,1071.43,545.51Z" transform="translate(-751.03 -381.83)"/><path class="cls-9" d="M1063,533.91l.24-.08a9.52,9.52,0,0,0-1.33-1.5A8.22,8.22,0,0,1,1063,533.91Z" transform="translate(-751.03 -381.83)"/><path class="cls-13" d="M1024.62,552.27a7.68,7.68,0,0,1,7.68-7.68h2.38v-.67a9,9,0,0,1,9-9,9.11,9.11,0,0,1,2.88.48,9,9,0,0,1,5.28-5.57,9,9,0,0,0-15.9,2.39,8.88,8.88,0,0,0-2.88-.48,9,9,0,0,0-9,9v.68h-2.38a7.68,7.68,0,0,0-7.68,7.68v5.42h10.62Z" transform="translate(-751.03 -381.83)"/><path class="cls-14" d="M1024.69,635.5h45.09a5.52,5.52,0,0,0,5.52-5.11l5.17-70.78H1014l5.17,70.78A5.52,5.52,0,0,0,1024.69,635.5Z" transform="translate(-751.03 -381.83)"/><path class="cls-15" d="M1071.07,631.67H1071a1.59,1.59,0,0,1-1.47-1.71l2.41-33.11a1.61,1.61,0,0,1,1.71-1.47,1.58,1.58,0,0,1,1.47,1.7l-2.41,33.12A1.61,1.61,0,0,1,1071.07,631.67Z" transform="translate(-751.03 -381.83)"/><path class="cls-16" d="M1025.08,566.77H1080l.52-7.16H1014l5.17,70.78a5.52,5.52,0,0,0,5.52,5.11h5.4Z" transform="translate(-751.03 -381.83)"/><path class="cls-14" d="M1011.68,562.34l-.81-9.48c-.06-.72.78-1.34,1.85-1.34h69c1.07,0,1.91.62,1.85,1.34l-.81,9.48c-.06.67-.87,1.19-1.84,1.19h-67.42C1012.55,563.53,1011.74,563,1011.68,562.34Z" transform="translate(-751.03 -381.83)"/><path class="cls-16" d="M1022.76,562.34l-.81-9.48c-.06-.72.78-1.34,1.85-1.34h-11.08c-1.07,0-1.91.62-1.85,1.34l.81,9.48c.06.67.87,1.19,1.84,1.19h11.08C1023.62,563.53,1022.82,563,1022.76,562.34Z" transform="translate(-751.03 -381.83)"/><path class="cls-7" d="M1005,600.57l9.28-15.46a2.3,2.3,0,0,1,1.51-1.07l.49,6.69L1009,602.92a4.89,4.89,0,0,0,4.22,7.41h11.49a18.27,18.27,0,0,0,15.57-8.77l17.8-29.49a2.32,2.32,0,0,1,3.17-.79,2.3,2.3,0,0,1,.79,3.15l-17.8,29.49a22.92,22.92,0,0,1-19.53,11h-11.49a9.41,9.41,0,0,1-8.29-4.8A9.32,9.32,0,0,1,1005,600.57Z" transform="translate(-751.03 -381.83)"/><path class="cls-16" d="M1041.56,626.6a4.78,4.78,0,1,1-4.78-4.78A4.78,4.78,0,0,1,1041.56,626.6Z" transform="translate(-751.03 -381.83)"/><path class="cls-13" d="M1104.42,605.53a4.78,4.78,0,1,1-4.78-4.78A4.78,4.78,0,0,1,1104.42,605.53Z" transform="translate(-751.03 -381.83)"/><path class="cls-9" d="M1008.07,610.12a9.34,9.34,0,0,1,.1-9.55l7.86-13.09-.25-3.44a2.3,2.3,0,0,0-1.51,1.07L1005,600.57a9.32,9.32,0,0,0-.11,9.55,9.45,9.45,0,0,0,8.29,4.8h3.19A9.43,9.43,0,0,1,1008.07,610.12Z" transform="translate(-751.03 -381.83)"/><ellipse class="cls-17" cx="63" cy="214.75" rx="36" ry="36.61"/><path class="cls-18" d="M779.14,587.56a37,37,0,0,0,11.23,36.61c18.51-3.87,32.52-30.11,35.46-35.83C794.52,580.12,784.5,584.94,779.14,587.56Z" transform="translate(-751.03 -381.83)"/><path class="cls-19" d="M827.29,562.55a35.09,35.09,0,0,0-14.9-2.54,35.29,35.29,0,0,1,11.6,2.54c18.49,7.44,27.55,28.71,20.23,47.51a36.08,36.08,0,0,1-31.83,23.1,36,36,0,0,0,35.12-23.1C854.83,591.26,845.78,570,827.29,562.55Z" transform="translate(-751.03 -381.83)"/><path class="cls-20" d="M827.29,562.55a35.18,35.18,0,0,0-17.18-2.36c7.2,4.59,11.45,11.17,15.72,28.15,2.06-1.59,12.79-7.21,16.09-14.93A35.89,35.89,0,0,0,827.29,562.55Z" transform="translate(-751.03 -381.83)"/><path class="cls-21" d="M839.68,570.88h0l-.75-.75-.06-.06-.39-.38h0l-.75-.67-.15-.14c-.37-.33-.75-.64-1.14-1l-.24-.19-.44-.34-.37-.29-.31-.22c-.11-.09-.23-.17-.35-.25s-.24-.18-.37-.26a4.27,4.27,0,0,0-.44-.3l-.27-.18-.53-.35-.24-.15-.49-.3-.23-.13-.64-.37-.18-.1c-.18-.11-.37-.21-.56-.31l-.18-.09-.69-.35-.17-.09-.64-.31-.11-.05-.74-.33-.18-.08-.76-.31h0l-.84-.33-.13-.05-.8-.28-.16-.06-.8-.26-.13,0-.77-.22-.09,0c-.27-.08-.53-.15-.8-.21l-.19-.05-.76-.18-.22-.05-.76-.16-.19,0-.64-.11-.22,0-.72-.11-.28,0-.69-.09-.31,0-.55-.06-.42,0-.48,0-.39,0-.58,0h-1.74l-.65,0h-.57A35.37,35.37,0,0,1,824,562.55,35.91,35.91,0,0,1,840.51,576a16.23,16.23,0,0,0,1.41-2.58c-.36-.44-.72-.87-1.09-1.29h0C840.45,571.7,840.07,571.28,839.68,570.88Z" transform="translate(-751.03 -381.83)"/><path class="cls-22" d="M847.51,610.06A37.41,37.41,0,0,0,850,598.88c-6.94-4.36-20.65-9.89-24.15-10.54,2.64,4.51,13.55,21.95,5.88,40.13A36.28,36.28,0,0,0,847.51,610.06Z" transform="translate(-751.03 -381.83)"/><path class="cls-23" d="M846.75,597a37.29,37.29,0,0,1-2.53,13,36.4,36.4,0,0,1-11.42,15.46c-.32,1-.67,2-1.09,3a36.05,36.05,0,0,0,7.74-6l0,0L840,622l.07-.08.43-.47.1-.1c.13-.15.27-.3.4-.46l.1-.11.4-.46.09-.12.4-.48a.86.86,0,0,1,.07-.1l.43-.54,0-.05c.46-.61.91-1.24,1.33-1.88a.61.61,0,0,0,.07-.1l.34-.53.12-.19c.1-.15.19-.3.28-.45l.14-.23.25-.42.14-.25.24-.42.14-.26.22-.41a2.44,2.44,0,0,0,.14-.28l.21-.41.14-.28.2-.42c0-.09.09-.19.13-.28s.14-.29.2-.44l.12-.27.21-.48.1-.24c.1-.24.2-.48.29-.72h0c.11-.26.21-.53.3-.79l.09-.26c.07-.19.13-.37.2-.55l.09-.3.18-.54c0-.1.06-.19.08-.28.08-.25.15-.51.23-.76l.09-.34.12-.45c0-.14.07-.28.1-.42l.09-.35c0-.16.07-.31.1-.47l.06-.26c.12-.6.24-1.2.34-1.81l0-.13.09-.63v-.07c.13-.92.22-1.85.28-2.76C849,598.27,847.92,597.65,846.75,597Z" transform="translate(-751.03 -381.83)"/><ellipse class="cls-24" cx="75.35" cy="206.1" rx="8.21" ry="8.35"/></svg>