<svg id="图层_3" data-name="图层 3" xmlns="http://www.w3.org/2000/svg" viewBox="0 0 338.74 385.23"><defs><style>.cls-1{fill:#ffd2a6;}.cls-2{fill:#ed5564;}.cls-3{fill:#656d78;}.cls-4{fill:#545c66;}.cls-5{fill:#556080;}.cls-6{fill:#424a60;}.cls-7{fill:#2a303d;}.cls-10,.cls-8{fill:#fff;}.cls-9{fill:#dd352e;}.cls-10{isolation:isolate;font-size:34.16px;font-family:DFPHaiBaoW12, DFPHaiBaoW12-GB;letter-spacing:0.2em;}</style></defs><title>4</title><path class="cls-1" d="M1053.4,424.69h14.76v134h-14.73Z" transform="translate(-773.58 -315.5)"/><path class="cls-1" d="M817.76,424.7h14.73v134H817.76Z" transform="translate(-773.58 -315.5)"/><path class="cls-1" d="M817.76,570.29h250.4v127.4H817.76Z" transform="translate(-773.58 -315.5)"/><path class="cls-2" d="M943,315.5,773.58,424.7h338.74Z" transform="translate(-773.58 -315.5)"/><path class="cls-2" d="M1086.54,573.33c0,1.67-1.66,3-3.69,3H803c-2,0-3.68-1.37-3.68-3V561.19c0-1.66,1.66-3,3.68-3h279.81c2,0,3.69,1.37,3.69,3Z" transform="translate(-773.58 -315.5)"/><path class="cls-3" d="M1083,700.73H803c-2,0-3.68-1.36-3.68-3s1.65-3,3.68-3h280c2,0,3.68,1.36,3.68,3S1085,700.73,1083,700.73Z" transform="translate(-773.58 -315.5)"/><path class="cls-4" d="M990.81,631h14.73v66.73H990.81Z" transform="translate(-773.58 -315.5)"/><path class="cls-4" d="M880.35,631h14.73v66.73H880.35Z" transform="translate(-773.58 -315.5)"/><path class="cls-3" d="M906.16,646.05c0,1.67-1.66,3-3.68,3H873c-2,0-3.68-1.36-3.68-3V640c0-1.67,1.66-3,3.68-3h29.46c2,0,3.68,1.37,3.68,3Z" transform="translate(-773.58 -315.5)"/><path class="cls-2" d="M928.22,640.07c0,1.67-1.66,3-3.68,3H850.9c-2,0-3.68-1.37-3.68-3v-18.2c0-1.67,1.65-3,3.68-3h73.64c2,0,3.68,1.37,3.68,3Z" transform="translate(-773.58 -315.5)"/><path class="cls-3" d="M1016.59,646.05c0,1.67-1.66,3-3.69,3H983.45c-2,0-3.68-1.36-3.68-3V640c0-1.67,1.65-3,3.68-3h29.45c2,0,3.69,1.37,3.69,3Z" transform="translate(-773.58 -315.5)"/><path class="cls-2" d="M1038.68,640.07c0,1.67-1.66,3-3.68,3H961.36c-2,0-3.69-1.37-3.69-3v-18.2c0-1.67,1.66-3,3.69-3H1035c2,0,3.68,1.37,3.68,3Z" transform="translate(-773.58 -315.5)"/><rect class="cls-5" x="59.16" y="109.2" width="220.67" height="132.9"/><rect class="cls-6" x="59.16" y="219.46" width="220.67" height="22.64"/><path class="cls-7" d="M1037,549.38H876.25c-3,0-5.36-1.12-5.36-2.51s2.39-2.51,5.36-2.51H1037c3,0,5.36,1.12,5.36,2.51S1040,549.38,1037,549.38Z" transform="translate(-773.58 -315.5)"/><path class="cls-8" d="M848.4,550.65c-1,0-1.85-.49-1.85-1.09V543c0-.61.83-1.09,1.85-1.09s1.85.48,1.85,1.09v6.57C850.25,550.16,849.43,550.65,848.4,550.65Z" transform="translate(-773.58 -315.5)"/><path class="cls-8" d="M855.8,550.65c-1,0-1.85-.49-1.85-1.09V543c0-.61.83-1.09,1.85-1.09s1.85.48,1.85,1.09v6.57C857.65,550.16,856.83,550.65,855.8,550.65Z" transform="translate(-773.58 -315.5)"/><path class="cls-9" d="M893.69,544.36H872.47c-2.35,0-4.25,1.12-4.25,2.51s1.9,2.51,4.25,2.51h21.22Z" transform="translate(-773.58 -315.5)"/><path class="cls-8" d="M896.55,553.63c-1.58,0-2.86-.75-2.86-1.69V541.79c0-.93,1.28-1.69,2.86-1.69s2.86.76,2.86,1.69v10.15C899.41,552.88,898.16,553.63,896.55,553.63Z" transform="translate(-773.58 -315.5)"/><text class="cls-10" transform="translate(90.8 180.35)">点击观看</text></svg>