<svg id="图层_3" data-name="图层 3" xmlns="http://www.w3.org/2000/svg" viewBox="0 0 338.74 385.23"><defs><style>.cls-1{fill:#ffd2a6;}.cls-2{fill:#d66b00;}.cls-3{fill:#656d78;}.cls-4{fill:#545c66;}.cls-5{fill:#556080;}.cls-6{fill:#424a60;}.cls-7{fill:#2a303d;}.cls-10,.cls-8{fill:#fff;}.cls-9{fill:#dd352e;}.cls-10{isolation:isolate;font-size:34.16px;font-family:DFPHaiBaoW12, DFPHaiBaoW12-GB;letter-spacing:0.2em;}.cls-11{fill:#ed5564;}.cls-12{fill:#e6e9ed;}.cls-13{fill:#da4453;}</style></defs><title>14</title><path class="cls-1" d="M817.48,570.38h250.38v127.4H817.48Z" transform="translate(-773.3 -315.55)"/><path class="cls-2" d="M942.67,315.55,773.3,424.75H1112Z" transform="translate(-773.3 -315.55)"/><path class="cls-2" d="M1086.26,573.38c0,1.66-1.66,3-3.68,3H802.76c-2,0-3.68-1.37-3.68-3V561.25c0-1.67,1.66-3,3.68-3h279.82c2,0,3.68,1.37,3.68,3Z" transform="translate(-773.3 -315.55)"/><path class="cls-3" d="M1082.69,700.78h-280c-2,0-3.68-1.36-3.68-3s1.65-3,3.68-3h280c2,0,3.68,1.36,3.68,3S1084.72,700.78,1082.69,700.78Z" transform="translate(-773.3 -315.55)"/><path class="cls-4" d="M990.53,631h14.73v66.74H990.53Z" transform="translate(-773.3 -315.55)"/><path class="cls-4" d="M880.08,631H894.8v66.74H880.08Z" transform="translate(-773.3 -315.55)"/><path class="cls-3" d="M905.85,646.1c0,1.67-1.66,3-3.68,3H872.71c-2,0-3.68-1.36-3.68-3V640c0-1.67,1.66-3,3.68-3h29.46c2,0,3.68,1.37,3.68,3Z" transform="translate(-773.3 -315.55)"/><path class="cls-2" d="M927.94,640.13c0,1.66-1.66,3-3.68,3H850.62c-2,0-3.68-1.37-3.68-3V621.92c0-1.67,1.66-3,3.68-3h73.64c2,0,3.68,1.36,3.68,3Z" transform="translate(-773.3 -315.55)"/><path class="cls-3" d="M1016.36,646.1c0,1.67-1.66,3-3.68,3H983.22c-2,0-3.68-1.36-3.68-3V640c0-1.67,1.66-3,3.68-3h29.46c2,0,3.68,1.37,3.68,3Z" transform="translate(-773.3 -315.55)"/><path class="cls-2" d="M1038.36,640.13c0,1.66-1.66,3-3.68,3h-73.6c-2,0-3.68-1.37-3.68-3V621.92c0-1.67,1.66-3,3.68-3h73.64c2,0,3.68,1.36,3.68,3Z" transform="translate(-773.3 -315.55)"/><rect class="cls-5" x="59.16" y="109.2" width="220.67" height="132.9"/><rect class="cls-6" x="59.16" y="219.46" width="220.67" height="22.64"/><path class="cls-7" d="M1036.76,549.43H876c-3,0-5.36-1.12-5.36-2.51s2.39-2.51,5.36-2.51h160.79c3,0,5.36,1.12,5.36,2.51S1039.73,549.43,1036.76,549.43Z" transform="translate(-773.3 -315.55)"/><path class="cls-8" d="M848.13,550.7c-1,0-1.85-.49-1.85-1.09v-6.56c0-.6.82-1.09,1.85-1.09s1.85.49,1.85,1.09v6.56C850,550.21,849.15,550.7,848.13,550.7Z" transform="translate(-773.3 -315.55)"/><path class="cls-8" d="M855.53,550.7c-1,0-1.85-.49-1.85-1.09v-6.56c0-.6.82-1.09,1.85-1.09s1.85.49,1.85,1.09v6.56C857.36,550.21,856.55,550.7,855.53,550.7Z" transform="translate(-773.3 -315.55)"/><path class="cls-9" d="M893.41,544.38H872.19c-2.35,0-4.24,1.12-4.24,2.51s1.89,2.51,4.24,2.51h21.22Z" transform="translate(-773.3 -315.55)"/><path class="cls-8" d="M896.27,553.69c-1.58,0-2.86-.76-2.86-1.69V541.85c0-.94,1.28-1.7,2.86-1.7s2.86.76,2.86,1.7V552C899.13,552.93,897.85,553.69,896.27,553.69Z" transform="translate(-773.3 -315.55)"/><text class="cls-10" transform="translate(90.8 180.35)">点击观看</text><path class="cls-1" d="M1053.25,424.21H1068v134h-14.73Z" transform="translate(-773.3 -315.55)"/><path class="cls-1" d="M817.61,424.21h14.75v134H817.61Z" transform="translate(-773.3 -315.55)"/><path class="cls-11" d="M1066.17,555.46a4.09,4.09,0,0,1-4.07,4.07h-24.44a4.1,4.1,0,0,1-4.08-4.07v-48.9a4.08,4.08,0,0,1,4.08-4.07h24.44a4.08,4.08,0,0,1,4.07,4.07Z" transform="translate(-773.3 -315.55)"/><path class="cls-12" d="M1033.58,494.38h32.59v16.29h-32.59Z" transform="translate(-773.3 -315.55)"/><path class="cls-3" d="M1041.72,559.5a4.19,4.19,0,0,1-1.17-.17,4,4,0,0,1-2.77-4.94l0-.12,24.44-81.47a4.07,4.07,0,0,1,7.8,2.34l-24.44,81.46A4.09,4.09,0,0,1,1041.72,559.5Z" transform="translate(-773.3 -315.55)"/><path class="cls-13" d="M1050.91,510.64l-13.08,43.62a4,4,0,0,0,2.6,5l.13,0a3.86,3.86,0,0,0,1.17.18,4.09,4.09,0,0,0,3.9-2.9l13.79-46Z" transform="translate(-773.3 -315.55)"/></svg>