<svg id="图层_3" data-name="图层 3" xmlns="http://www.w3.org/2000/svg" viewBox="0 0 315.41 377.49"><defs><style>.cls-1{fill:#556080;}.cls-2{fill:#424a60;}.cls-3{fill:#2a303d;}.cls-4,.cls-6{fill:#fff;}.cls-5{fill:#dd352e;}.cls-6{isolation:isolate;font-size:34.16px;font-family:DFPHaiBaoW12, DFPHaiBaoW12-GB;letter-spacing:0.2em;}.cls-7{fill:#57565c;}.cls-8{fill:#c6c5ca;}.cls-9{fill:#4fb363;}.cls-10{fill:#60d978;}.cls-11{fill:#898890;}.cls-12{fill:#545c66;}.cls-13{fill:#656d78;}</style></defs><title>10</title><rect class="cls-1" x="47.24" y="86.08" width="220.67" height="132.9"/><rect class="cls-2" x="47.24" y="196.34" width="220.67" height="22.64"/><path class="cls-3" d="M1036.49,530.57H875.7c-3,0-5.36-1.12-5.36-2.51s2.39-2.5,5.36-2.5h160.79c3,0,5.36,1.12,5.36,2.5S1039.45,530.57,1036.49,530.57Z" transform="translate(-784.95 -319.81)"/><path class="cls-4" d="M847.82,531.85c-1,0-1.85-.49-1.85-1.1v-6.56c0-.6.82-1.09,1.85-1.09s1.85.49,1.85,1.09v6.56C849.71,531.36,848.88,531.85,847.82,531.85Z" transform="translate(-784.95 -319.81)"/><path class="cls-4" d="M855.26,531.85c-1,0-1.85-.49-1.85-1.1v-6.56c0-.6.82-1.09,1.85-1.09s1.85.49,1.85,1.09v6.56C857.11,531.36,856.28,531.85,855.26,531.85Z" transform="translate(-784.95 -319.81)"/><path class="cls-5" d="M893.14,525.56H871.92c-2.35,0-4.24,1.12-4.24,2.5s1.89,2.51,4.24,2.51h21.22Z" transform="translate(-784.95 -319.81)"/><path class="cls-4" d="M896,534.83c-1.58,0-2.86-.76-2.86-1.69V523c0-.94,1.28-1.69,2.86-1.69s2.82.69,2.82,1.69v10.15C898.82,534.07,897.58,534.83,896,534.83Z" transform="translate(-784.95 -319.81)"/><text class="cls-6" transform="translate(78.88 157.23)">点击观看</text><path class="cls-7" d="M820.82,371.88h14.34V554.11H820.82Z" transform="translate(-784.95 -319.81)"/><path class="cls-7" d="M1050.18,371.88h14.34V554.11h-14.34Z" transform="translate(-784.95 -319.81)"/><path class="cls-8" d="M785,554.11h315.41V697.3H785Z" transform="translate(-784.95 -319.81)"/><path class="cls-9" d="M1093.19,364.91v13.48c0,10.78-9.63,19.52-21.5,19.52s-21.51-8.74-21.51-19.52V358.86h43Z" transform="translate(-784.95 -319.81)"/><path class="cls-9" d="M1050.18,358.86v19.53c0,10.78-9.63,19.52-21.51,19.52s-21.5-8.74-21.5-19.52V358.86Z" transform="translate(-784.95 -319.81)"/><path class="cls-9" d="M1007.17,358.86v19.53c0,10.78-9.63,19.52-21.51,19.52s-21.5-8.74-21.5-19.52V358.86Z" transform="translate(-784.95 -319.81)"/><path class="cls-9" d="M964.16,358.86v19.53c0,10.78-9.63,19.52-21.51,19.52s-21.5-8.74-21.5-19.52V358.86Z" transform="translate(-784.95 -319.81)"/><path class="cls-9" d="M921.15,358.86v19.53c0,10.78-9.63,19.52-21.51,19.52s-21.5-8.74-21.5-19.52V358.86Z" transform="translate(-784.95 -319.81)"/><path class="cls-9" d="M878.14,358.86v19.53c0,10.78-9.63,19.52-21.51,19.52s-21.5-8.74-21.5-19.52V358.86Z" transform="translate(-784.95 -319.81)"/><path class="cls-9" d="M835.13,358.86v19.53c0,10.78-9.63,19.52-21.51,19.52s-21.51-8.74-21.51-19.52V358.86Z" transform="translate(-784.95 -319.81)"/><path class="cls-10" d="M1071.69,339.34v19.52c0,10.78-9.63,19.53-21.51,19.53s-21.51-8.75-21.51-19.53V339.34Z" transform="translate(-784.95 -319.81)"/><path class="cls-10" d="M1028.67,339.34v19.52c0,10.78-9.62,19.53-21.5,19.53s-21.51-8.75-21.51-19.53V339.34Z" transform="translate(-784.95 -319.81)"/><path class="cls-10" d="M985.66,339.34v19.52c0,10.78-9.63,19.53-21.5,19.53s-21.51-8.75-21.51-19.53V339.34Z" transform="translate(-784.95 -319.81)"/><path class="cls-10" d="M942.65,339.34v19.52c0,10.78-9.63,19.53-21.5,19.53s-21.51-8.75-21.51-19.53V339.34Z" transform="translate(-784.95 -319.81)"/><path class="cls-10" d="M899.64,339.34v19.52c0,10.78-9.63,19.53-21.5,19.53s-21.51-8.75-21.51-19.53V339.34Z" transform="translate(-784.95 -319.81)"/><path class="cls-10" d="M856.63,339.34v19.52c0,10.78-9.63,19.53-21.5,19.53s-21.51-8.75-21.51-19.53V339.34Z" transform="translate(-784.95 -319.81)"/><path class="cls-10" d="M792.11,339.34h21.51v19.52c0,10.78-9.63,19.53-21.51,19.53S792.11,339.34,792.11,339.34Z" transform="translate(-784.95 -319.81)"/><path class="cls-10" d="M1093.19,339.34h-21.5v19.52c0,10.78,9.62,19.53,21.5,19.53S1093.19,339.34,1093.19,339.34Z" transform="translate(-784.95 -319.81)"/><path class="cls-10" d="M1093.19,325.86v13.48c0,10.78-9.63,19.52-21.5,19.52s-21.51-8.74-21.51-19.52V319.81h43Z" transform="translate(-784.95 -319.81)"/><path class="cls-10" d="M1050.18,319.81v19.53c0,10.78-9.63,19.52-21.51,19.52s-21.5-8.74-21.5-19.52V319.81Z" transform="translate(-784.95 -319.81)"/><path class="cls-10" d="M1007.17,319.81v19.53c0,10.78-9.63,19.52-21.51,19.52s-21.5-8.74-21.5-19.52V319.81Z" transform="translate(-784.95 -319.81)"/><path class="cls-10" d="M964.16,319.81v19.53c0,10.78-9.63,19.52-21.51,19.52s-21.5-8.74-21.5-19.52V319.81Z" transform="translate(-784.95 -319.81)"/><path class="cls-10" d="M921.15,319.81v19.53c0,10.78-9.63,19.52-21.51,19.52s-21.5-8.74-21.5-19.52V319.81Z" transform="translate(-784.95 -319.81)"/><path class="cls-10" d="M878.14,319.81v19.53c0,10.78-9.63,19.52-21.51,19.52s-21.5-8.74-21.5-19.52V319.81Z" transform="translate(-784.95 -319.81)"/><path class="cls-10" d="M835.13,319.81v19.53c0,10.78-9.63,19.52-21.51,19.52s-21.51-8.74-21.51-19.52V319.81Z" transform="translate(-784.95 -319.81)"/><path class="cls-11" d="M785,554.11h315.41v26H785Z" transform="translate(-784.95 -319.81)"/><path class="cls-12" d="M849.27,627.64H864v66.74H849.27Z" transform="translate(-784.95 -319.81)"/><path class="cls-13" d="M875,642.73c0,1.67-1.66,3-3.68,3H841.9c-2,0-3.68-1.36-3.68-3v-6.07c0-1.67,1.66-3,3.68-3h29.46c2,0,3.68,1.37,3.68,3Z" transform="translate(-784.95 -319.81)"/><path class="cls-9" d="M897.13,636.75c0,1.67-1.66,3-3.68,3H819.82c-2,0-3.68-1.37-3.68-3v-18.2c0-1.67,1.66-3,3.68-3h73.64c2,0,3.68,1.37,3.68,3Z" transform="translate(-784.95 -319.81)"/><path class="cls-12" d="M1013.29,627.64H1028v66.74h-14.73Z" transform="translate(-784.95 -319.81)"/><path class="cls-13" d="M1039.07,642.73c0,1.67-1.66,3-3.68,3h-29.46c-2,0-3.68-1.36-3.68-3v-6.07c0-1.67,1.66-3,3.68-3h29.46c2,0,3.68,1.37,3.68,3Z" transform="translate(-784.95 -319.81)"/><path class="cls-9" d="M1061.16,636.75c0,1.67-1.66,3-3.68,3H983.82c-2,0-3.68-1.37-3.68-3v-18.2c0-1.67,1.65-3,3.68-3h73.64c2,0,3.68,1.37,3.68,3Z" transform="translate(-784.95 -319.81)"/></svg>